<svg width="224" height="47" viewBox="0 0 224 47" fill="none" xmlns="http://www.w3.org/2000/svg">
<path d="M0 5C0 2.23858 2.23858 0 5 0H219C221.761 0 224 2.23858 224 5V42C224 44.7614 221.761 47 219 47H4.99999C2.23857 47 0 44.7614 0 42V5Z" fill="#212416"/>
<path d="M1 5C1 2.79086 2.79086 1 5 1H219C221.209 1 223 2.79086 223 5V42C223 44.2091 221.209 46 219 46H4.99999C2.79086 46 1 44.2091 1 42V5Z" stroke="#909772" stroke-opacity="0.5" stroke-width="2"/>
<circle opacity="0.5" cx="200" cy="24" r="8" fill="#11130B"/>
<path d="M19.3775 18.786V22.98H23.9495V24.33H19.3775V28.65H24.4895V30H17.7395V17.436H24.4895V18.786H19.3775ZM32.116 30L29.776 26.328L27.526 30H25.816L29.002 25.104L25.816 20.136H27.67L30.01 23.79L32.242 20.136H33.952L30.784 25.014L33.97 30H32.116ZM34.9693 25.05C34.9693 24.03 35.1733 23.142 35.5813 22.386C35.9893 21.618 36.5533 21.024 37.2733 20.604C38.0053 20.184 38.8393 19.974 39.7753 19.974C40.9873 19.974 41.9833 20.268 42.7633 20.856C43.5553 21.444 44.0773 22.26 44.3293 23.304H42.5653C42.3973 22.704 42.0673 22.23 41.5753 21.882C41.0953 21.534 40.4953 21.36 39.7753 21.36C38.8393 21.36 38.0833 21.684 37.5073 22.332C36.9313 22.968 36.6433 23.874 36.6433 25.05C36.6433 26.238 36.9313 27.156 37.5073 27.804C38.0833 28.452 38.8393 28.776 39.7753 28.776C40.4953 28.776 41.0953 28.608 41.5753 28.272C42.0553 27.936 42.3853 27.456 42.5653 26.832H44.3293C44.0653 27.84 43.5373 28.65 42.7453 29.262C41.9533 29.862 40.9633 30.162 39.7753 30.162C38.8393 30.162 38.0053 29.952 37.2733 29.532C36.5533 29.112 35.9893 28.518 35.5813 27.75C35.1733 26.982 34.9693 26.082 34.9693 25.05ZM51.4109 19.956C52.1549 19.956 52.8269 20.118 53.4269 20.442C54.0269 20.754 54.4949 21.228 54.8309 21.864C55.1789 22.5 55.3529 23.274 55.3529 24.186V30H53.7329V24.42C53.7329 23.436 53.4869 22.686 52.9949 22.17C52.5029 21.642 51.8309 21.378 50.9789 21.378C50.1149 21.378 49.4249 21.648 48.9089 22.188C48.4049 22.728 48.1529 23.514 48.1529 24.546V30H46.5149V16.68H48.1529V21.54C48.4769 21.036 48.9209 20.646 49.4849 20.37C50.0609 20.094 50.7029 19.956 51.4109 19.956ZM57.4166 25.032C57.4166 24.024 57.6206 23.142 58.0286 22.386C58.4366 21.618 58.9946 21.024 59.7026 20.604C60.4226 20.184 61.2206 19.974 62.0966 19.974C62.9606 19.974 63.7106 20.16 64.3466 20.532C64.9826 20.904 65.4566 21.372 65.7686 21.936V20.136H67.4246V30H65.7686V28.164C65.4446 28.74 64.9586 29.22 64.3106 29.604C63.6746 29.976 62.9306 30.162 62.0786 30.162C61.2026 30.162 60.4106 29.946 59.7026 29.514C58.9946 29.082 58.4366 28.476 58.0286 27.696C57.6206 26.916 57.4166 26.028 57.4166 25.032ZM65.7686 25.05C65.7686 24.306 65.6186 23.658 65.3186 23.106C65.0186 22.554 64.6106 22.134 64.0946 21.846C63.5906 21.546 63.0326 21.396 62.4206 21.396C61.8086 21.396 61.2506 21.54 60.7466 21.828C60.2426 22.116 59.8406 22.536 59.5406 23.088C59.2406 23.64 59.0906 24.288 59.0906 25.032C59.0906 25.788 59.2406 26.448 59.5406 27.012C59.8406 27.564 60.2426 27.99 60.7466 28.29C61.2506 28.578 61.8086 28.722 62.4206 28.722C63.0326 28.722 63.5906 28.578 64.0946 28.29C64.6106 27.99 65.0186 27.564 65.3186 27.012C65.6186 26.448 65.7686 25.794 65.7686 25.05ZM74.9986 19.956C76.1986 19.956 77.1706 20.322 77.9146 21.054C78.6586 21.774 79.0306 22.818 79.0306 24.186V30H77.4106V24.42C77.4106 23.436 77.1646 22.686 76.6726 22.17C76.1806 21.642 75.5086 21.378 74.6566 21.378C73.7926 21.378 73.1026 21.648 72.5866 22.188C72.0826 22.728 71.8306 23.514 71.8306 24.546V30H70.1926V20.136H71.8306V21.54C72.1546 21.036 72.5926 20.646 73.1446 20.37C73.7086 20.094 74.3266 19.956 74.9986 19.956ZM85.7743 19.974C86.6263 19.974 87.3703 20.16 88.0063 20.532C88.6543 20.904 89.1343 21.372 89.4463 21.936V20.136H91.1023V30.216C91.1023 31.116 90.9103 31.914 90.5263 32.61C90.1423 33.318 89.5903 33.87 88.8703 34.266C88.1623 34.662 87.3343 34.86 86.3863 34.86C85.0903 34.86 84.0103 34.554 83.1463 33.942C82.2823 33.33 81.7723 32.496 81.6163 31.44H83.2363C83.4163 32.04 83.7883 32.52 84.3523 32.88C84.9163 33.252 85.5943 33.438 86.3863 33.438C87.2863 33.438 88.0183 33.156 88.5823 32.592C89.1583 32.028 89.4463 31.236 89.4463 30.216V28.146C89.1223 28.722 88.6423 29.202 88.0063 29.586C87.3703 29.97 86.6263 30.162 85.7743 30.162C84.8983 30.162 84.1003 29.946 83.3803 29.514C82.6723 29.082 82.1143 28.476 81.7063 27.696C81.2983 26.916 81.0943 26.028 81.0943 25.032C81.0943 24.024 81.2983 23.142 81.7063 22.386C82.1143 21.618 82.6723 21.024 83.3803 20.604C84.1003 20.184 84.8983 19.974 85.7743 19.974ZM89.4463 25.05C89.4463 24.306 89.2963 23.658 88.9963 23.106C88.6963 22.554 88.2883 22.134 87.7723 21.846C87.2683 21.546 86.7103 21.396 86.0983 21.396C85.4863 21.396 84.9283 21.54 84.4243 21.828C83.9203 22.116 83.5183 22.536 83.2183 23.088C82.9183 23.64 82.7683 24.288 82.7683 25.032C82.7683 25.788 82.9183 26.448 83.2183 27.012C83.5183 27.564 83.9203 27.99 84.4243 28.29C84.9283 28.578 85.4863 28.722 86.0983 28.722C86.7103 28.722 87.2683 28.578 87.7723 28.29C88.2883 27.99 88.6963 27.564 88.9963 27.012C89.2963 26.448 89.4463 25.794 89.4463 25.05ZM102.87 24.69C102.87 25.002 102.852 25.332 102.816 25.68H94.9324C94.9924 26.652 95.3224 27.414 95.9224 27.966C96.5344 28.506 97.2724 28.776 98.1364 28.776C98.8444 28.776 99.4324 28.614 99.9004 28.29C100.38 27.954 100.716 27.51 100.908 26.958H102.672C102.408 27.906 101.88 28.68 101.088 29.28C100.296 29.868 99.3124 30.162 98.1364 30.162C97.2004 30.162 96.3604 29.952 95.6164 29.532C94.8844 29.112 94.3084 28.518 93.8884 27.75C93.4684 26.97 93.2584 26.07 93.2584 25.05C93.2584 24.03 93.4624 23.136 93.8704 22.368C94.2784 21.6 94.8484 21.012 95.5804 20.604C96.3244 20.184 97.1764 19.974 98.1364 19.974C99.0724 19.974 99.9004 20.178 100.62 20.586C101.34 20.994 101.892 21.558 102.276 22.278C102.672 22.986 102.87 23.79 102.87 24.69ZM101.178 24.348C101.178 23.724 101.04 23.19 100.764 22.746C100.488 22.29 100.11 21.948 99.6304 21.72C99.1624 21.48 98.6404 21.36 98.0644 21.36C97.2364 21.36 96.5284 21.624 95.9404 22.152C95.3644 22.68 95.0344 23.412 94.9504 24.348H101.178Z" fill="white"/>
</svg>
