<svg width="224" height="47" viewBox="0 0 224 47" fill="none" xmlns="http://www.w3.org/2000/svg">
<rect width="224" height="47" rx="5" fill="#212416"/>
<rect x="1.25" y="1.25" width="221.5" height="44.5" rx="3.75" stroke="#909772" stroke-opacity="0.5" stroke-width="2.5"/>
<circle opacity="0.5" cx="200" cy="24" r="8" fill="#11130B"/>
<path d="M25.0442 27.21H19.5722L18.5642 30H16.8362L21.3722 17.526H23.2622L27.7802 30H26.0522L25.0442 27.21ZM24.5762 25.878L22.3082 19.542L20.0402 25.878H24.5762ZM29.1451 25.032C29.1451 24.024 29.3491 23.142 29.7571 22.386C30.1651 21.618 30.7231 21.024 31.4311 20.604C32.1511 20.184 32.9551 19.974 33.8431 19.974C34.6111 19.974 35.3251 20.154 35.9851 20.514C36.6451 20.862 37.1491 21.324 37.4971 21.9V16.68H39.1531V30H37.4971V28.146C37.1731 28.734 36.6931 29.22 36.0571 29.604C35.4211 29.976 34.6771 30.162 33.8251 30.162C32.9491 30.162 32.1511 29.946 31.4311 29.514C30.7231 29.082 30.1651 28.476 29.7571 27.696C29.3491 26.916 29.1451 26.028 29.1451 25.032ZM37.4971 25.05C37.4971 24.306 37.3471 23.658 37.0471 23.106C36.7471 22.554 36.3391 22.134 35.8231 21.846C35.3191 21.546 34.7611 21.396 34.1491 21.396C33.5371 21.396 32.9791 21.54 32.4751 21.828C31.9711 22.116 31.5691 22.536 31.2691 23.088C30.9691 23.64 30.8191 24.288 30.8191 25.032C30.8191 25.788 30.9691 26.448 31.2691 27.012C31.5691 27.564 31.9711 27.99 32.4751 28.29C32.9791 28.578 33.5371 28.722 34.1491 28.722C34.7611 28.722 35.3191 28.578 35.8231 28.29C36.3391 27.99 36.7471 27.564 37.0471 27.012C37.3471 26.448 37.4971 25.794 37.4971 25.05ZM41.3092 25.032C41.3092 24.024 41.5132 23.142 41.9212 22.386C42.3292 21.618 42.8872 21.024 43.5952 20.604C44.3152 20.184 45.1192 19.974 46.0072 19.974C46.7752 19.974 47.4892 20.154 48.1492 20.514C48.8092 20.862 49.3132 21.324 49.6612 21.9V16.68H51.3172V30H49.6612V28.146C49.3372 28.734 48.8572 29.22 48.2212 29.604C47.5852 29.976 46.8412 30.162 45.9892 30.162C45.1132 30.162 44.3152 29.946 43.5952 29.514C42.8872 29.082 42.3292 28.476 41.9212 27.696C41.5132 26.916 41.3092 26.028 41.3092 25.032ZM49.6612 25.05C49.6612 24.306 49.5112 23.658 49.2112 23.106C48.9112 22.554 48.5032 22.134 47.9872 21.846C47.4832 21.546 46.9252 21.396 46.3132 21.396C45.7012 21.396 45.1432 21.54 44.6392 21.828C44.1352 22.116 43.7332 22.536 43.4332 23.088C43.1332 23.64 42.9832 24.288 42.9832 25.032C42.9832 25.788 43.1332 26.448 43.4332 27.012C43.7332 27.564 44.1352 27.99 44.6392 28.29C45.1432 28.578 45.7012 28.722 46.3132 28.722C46.9252 28.722 47.4832 28.578 47.9872 28.29C48.5032 27.99 48.9112 27.564 49.2112 27.012C49.5112 26.448 49.6612 25.794 49.6612 25.05ZM60.522 16.68V30H58.884V16.68H60.522ZM64.1597 18.534C63.8477 18.534 63.5837 18.426 63.3677 18.21C63.1517 17.994 63.0437 17.73 63.0437 17.418C63.0437 17.106 63.1517 16.842 63.3677 16.626C63.5837 16.41 63.8477 16.302 64.1597 16.302C64.4597 16.302 64.7117 16.41 64.9157 16.626C65.1317 16.842 65.2397 17.106 65.2397 17.418C65.2397 17.73 65.1317 17.994 64.9157 18.21C64.7117 18.426 64.4597 18.534 64.1597 18.534ZM64.9517 20.136V30H63.3137V20.136H64.9517ZM67.1314 25.032C67.1314 24.024 67.3354 23.142 67.7434 22.386C68.1514 21.618 68.7094 21.024 69.4174 20.604C70.1374 20.184 70.9414 19.974 71.8294 19.974C72.6814 19.974 73.4254 20.166 74.0614 20.55C74.7094 20.922 75.1834 21.384 75.4834 21.936V20.136H77.1394V34.68H75.4834V28.182C75.1714 28.734 74.6914 29.202 74.0434 29.586C73.3954 29.97 72.6394 30.162 71.7754 30.162C70.9114 30.162 70.1254 29.946 69.4174 29.514C68.7094 29.082 68.1514 28.476 67.7434 27.696C67.3354 26.916 67.1314 26.028 67.1314 25.032ZM75.4834 25.05C75.4834 24.306 75.3334 23.658 75.0334 23.106C74.7334 22.554 74.3254 22.134 73.8094 21.846C73.3054 21.546 72.7474 21.396 72.1354 21.396C71.5234 21.396 70.9654 21.54 70.4614 21.828C69.9574 22.116 69.5554 22.536 69.2554 23.088C68.9554 23.64 68.8054 24.288 68.8054 25.032C68.8054 25.788 68.9554 26.448 69.2554 27.012C69.5554 27.564 69.9574 27.99 70.4614 28.29C70.9654 28.578 71.5234 28.722 72.1354 28.722C72.7474 28.722 73.3054 28.578 73.8094 28.29C74.3254 27.99 74.7334 27.564 75.0334 27.012C75.3334 26.448 75.4834 25.794 75.4834 25.05ZM88.6555 20.136V30H87.0175V28.542C86.7055 29.046 86.2675 29.442 85.7035 29.73C85.1515 30.006 84.5395 30.144 83.8675 30.144C83.0995 30.144 82.4095 29.988 81.7975 29.676C81.1855 29.352 80.6995 28.872 80.3395 28.236C79.9915 27.6 79.8175 26.826 79.8175 25.914V20.136H81.4375V25.698C81.4375 26.67 81.6835 27.42 82.1755 27.948C82.6675 28.464 83.3395 28.722 84.1915 28.722C85.0675 28.722 85.7575 28.452 86.2615 27.912C86.7655 27.372 87.0175 26.586 87.0175 25.554V20.136H88.6555ZM92.2672 18.534C91.9552 18.534 91.6912 18.426 91.4752 18.21C91.2592 17.994 91.1512 17.73 91.1512 17.418C91.1512 17.106 91.2592 16.842 91.4752 16.626C91.6912 16.41 91.9552 16.302 92.2672 16.302C92.5672 16.302 92.8192 16.41 93.0232 16.626C93.2392 16.842 93.3472 17.106 93.3472 17.418C93.3472 17.73 93.2392 17.994 93.0232 18.21C92.8192 18.426 92.5672 18.534 92.2672 18.534ZM93.0592 20.136V30H91.4212V20.136H93.0592ZM95.2388 25.032C95.2388 24.024 95.4428 23.142 95.8508 22.386C96.2588 21.618 96.8168 21.024 97.5248 20.604C98.2448 20.184 99.0488 19.974 99.9368 19.974C100.705 19.974 101.419 20.154 102.079 20.514C102.739 20.862 103.243 21.324 103.591 21.9V16.68H105.247V30H103.591V28.146C103.267 28.734 102.787 29.22 102.151 29.604C101.515 29.976 100.771 30.162 99.9188 30.162C99.0428 30.162 98.2448 29.946 97.5248 29.514C96.8168 29.082 96.2588 28.476 95.8508 27.696C95.4428 26.916 95.2388 26.028 95.2388 25.032ZM103.591 25.05C103.591 24.306 103.441 23.658 103.141 23.106C102.841 22.554 102.433 22.134 101.917 21.846C101.413 21.546 100.855 21.396 100.243 21.396C99.6308 21.396 99.0728 21.54 98.5688 21.828C98.0648 22.116 97.6628 22.536 97.3628 23.088C97.0628 23.64 96.9128 24.288 96.9128 25.032C96.9128 25.788 97.0628 26.448 97.3628 27.012C97.6628 27.564 98.0648 27.99 98.5688 28.29C99.0728 28.578 99.6308 28.722 100.243 28.722C100.855 28.722 101.413 28.578 101.917 28.29C102.433 27.99 102.841 27.564 103.141 27.012C103.441 26.448 103.591 25.794 103.591 25.05ZM108.861 18.534C108.549 18.534 108.285 18.426 108.069 18.21C107.853 17.994 107.745 17.73 107.745 17.418C107.745 17.106 107.853 16.842 108.069 16.626C108.285 16.41 108.549 16.302 108.861 16.302C109.161 16.302 109.413 16.41 109.617 16.626C109.833 16.842 109.941 17.106 109.941 17.418C109.941 17.73 109.833 17.994 109.617 18.21C109.413 18.426 109.161 18.534 108.861 18.534ZM109.653 20.136V30H108.015V20.136H109.653ZM114.443 21.486V27.3C114.443 27.78 114.545 28.122 114.749 28.326C114.953 28.518 115.307 28.614 115.811 28.614H117.017V30H115.541C114.629 30 113.945 29.79 113.489 29.37C113.033 28.95 112.805 28.26 112.805 27.3V21.486H111.527V20.136H112.805V17.652H114.443V20.136H117.017V21.486H114.443ZM127.497 20.136L121.557 34.644H119.865L121.809 29.892L117.831 20.136H119.649L122.745 28.128L125.805 20.136H127.497Z" fill="white"/>
</svg>
