<svg width="224" height="47" viewBox="0 0 224 47" fill="none" xmlns="http://www.w3.org/2000/svg">
<path d="M0 5C0 2.23858 2.23858 0 5 0H219C221.761 0 224 2.23858 224 5V42C224 44.7614 221.761 47 219 47H4.99999C2.23857 47 0 44.7614 0 42V5Z" fill="#3F4528"/>
<circle opacity="0.5" cx="200" cy="24" r="8" fill="#11130B"/>
<circle cx="200" cy="24" r="4" fill="#A5C437"/>
<path d="M20.693 19.83V22.386H24.815V24.762H20.693V27.534H25.355V30H17.615V17.364H25.355V19.83H20.693ZM33.2933 30L31.3673 27.21L29.7473 30H26.4173L29.7293 24.87L26.3273 19.956H29.7833L31.7093 22.728L33.3293 19.956H36.6593L33.2933 25.014L36.7493 30H33.2933ZM37.3233 24.978C37.3233 23.934 37.5333 23.022 37.9533 22.242C38.3853 21.462 38.9793 20.862 39.7353 20.442C40.5033 20.022 41.3793 19.812 42.3633 19.812C43.6233 19.812 44.6733 20.142 45.5133 20.802C46.3653 21.462 46.9233 22.392 47.1873 23.592H43.9113C43.6353 22.824 43.1013 22.44 42.3093 22.44C41.7453 22.44 41.2953 22.662 40.9593 23.106C40.6233 23.538 40.4553 24.162 40.4553 24.978C40.4553 25.794 40.6233 26.424 40.9593 26.868C41.2953 27.3 41.7453 27.516 42.3093 27.516C43.1013 27.516 43.6353 27.132 43.9113 26.364H47.1873C46.9233 27.54 46.3653 28.464 45.5133 29.136C44.6613 29.808 43.6113 30.144 42.3633 30.144C41.3793 30.144 40.5033 29.934 39.7353 29.514C38.9793 29.094 38.3853 28.494 37.9533 27.714C37.5333 26.934 37.3233 26.022 37.3233 24.978ZM55.0078 19.848C56.1598 19.848 57.0838 20.232 57.7798 21C58.4758 21.756 58.8238 22.8 58.8238 24.132V30H55.7638V24.546C55.7638 23.874 55.5898 23.352 55.2418 22.98C54.8938 22.608 54.4258 22.422 53.8378 22.422C53.2498 22.422 52.7818 22.608 52.4338 22.98C52.0858 23.352 51.9118 23.874 51.9118 24.546V30H48.8338V16.68H51.9118V21.306C52.2238 20.862 52.6498 20.508 53.1898 20.244C53.7298 19.98 54.3358 19.848 55.0078 19.848ZM60.3507 24.96C60.3507 23.928 60.5427 23.022 60.9267 22.242C61.3227 21.462 61.8567 20.862 62.5287 20.442C63.2007 20.022 63.9507 19.812 64.7787 19.812C65.4867 19.812 66.1047 19.956 66.6327 20.244C67.1727 20.532 67.5867 20.91 67.8747 21.378V19.956H70.9527V30H67.8747V28.578C67.5747 29.046 67.1547 29.424 66.6147 29.712C66.0867 30 65.4687 30.144 64.7607 30.144C63.9447 30.144 63.2007 29.934 62.5287 29.514C61.8567 29.082 61.3227 28.476 60.9267 27.696C60.5427 26.904 60.3507 25.992 60.3507 24.96ZM67.8747 24.978C67.8747 24.21 67.6587 23.604 67.2267 23.16C66.8067 22.716 66.2907 22.494 65.6787 22.494C65.0667 22.494 64.5447 22.716 64.1127 23.16C63.6927 23.592 63.4827 24.192 63.4827 24.96C63.4827 25.728 63.6927 26.34 64.1127 26.796C64.5447 27.24 65.0667 27.462 65.6787 27.462C66.2907 27.462 66.8067 27.24 67.2267 26.796C67.6587 26.352 67.8747 25.746 67.8747 24.978ZM79.2995 19.848C80.4755 19.848 81.4115 20.232 82.1075 21C82.8155 21.756 83.1695 22.8 83.1695 24.132V30H80.1095V24.546C80.1095 23.874 79.9355 23.352 79.5875 22.98C79.2395 22.608 78.7715 22.422 78.1835 22.422C77.5955 22.422 77.1275 22.608 76.7795 22.98C76.4315 23.352 76.2575 23.874 76.2575 24.546V30H73.1795V19.956H76.2575V21.288C76.5695 20.844 76.9895 20.496 77.5175 20.244C78.0455 19.98 78.6395 19.848 79.2995 19.848ZM89.1244 19.812C89.8324 19.812 90.4504 19.956 90.9784 20.244C91.5184 20.532 91.9324 20.91 92.2204 21.378V19.956H95.2984V29.982C95.2984 30.906 95.1124 31.74 94.7404 32.484C94.3804 33.24 93.8224 33.84 93.0664 34.284C92.3224 34.728 91.3924 34.95 90.2764 34.95C88.7884 34.95 87.5824 34.596 86.6584 33.888C85.7344 33.192 85.2064 32.244 85.0744 31.044H88.1164C88.2124 31.428 88.4404 31.728 88.8004 31.944C89.1604 32.172 89.6044 32.286 90.1324 32.286C90.7684 32.286 91.2724 32.1 91.6444 31.728C92.0284 31.368 92.2204 30.786 92.2204 29.982V28.56C91.9204 29.028 91.5064 29.412 90.9784 29.712C90.4504 30 89.8324 30.144 89.1244 30.144C88.2964 30.144 87.5464 29.934 86.8744 29.514C86.2024 29.082 85.6684 28.476 85.2724 27.696C84.8884 26.904 84.6964 25.992 84.6964 24.96C84.6964 23.928 84.8884 23.022 85.2724 22.242C85.6684 21.462 86.2024 20.862 86.8744 20.442C87.5464 20.022 88.2964 19.812 89.1244 19.812ZM92.2204 24.978C92.2204 24.21 92.0044 23.604 91.5724 23.16C91.1524 22.716 90.6364 22.494 90.0244 22.494C89.4124 22.494 88.8904 22.716 88.4584 23.16C88.0384 23.592 87.8284 24.192 87.8284 24.96C87.8284 25.728 88.0384 26.34 88.4584 26.796C88.8904 27.24 89.4124 27.462 90.0244 27.462C90.6364 27.462 91.1524 27.24 91.5724 26.796C92.0044 26.352 92.2204 25.746 92.2204 24.978ZM106.993 24.816C106.993 25.104 106.975 25.404 106.939 25.716H99.9732C100.021 26.34 100.219 26.82 100.567 27.156C100.927 27.48 101.365 27.642 101.881 27.642C102.649 27.642 103.183 27.318 103.483 26.67H106.759C106.591 27.33 106.285 27.924 105.841 28.452C105.409 28.98 104.863 29.394 104.203 29.694C103.543 29.994 102.805 30.144 101.989 30.144C101.005 30.144 100.129 29.934 99.3612 29.514C98.5932 29.094 97.9932 28.494 97.5612 27.714C97.1292 26.934 96.9132 26.022 96.9132 24.978C96.9132 23.934 97.1232 23.022 97.5432 22.242C97.9752 21.462 98.5752 20.862 99.3432 20.442C100.111 20.022 100.993 19.812 101.989 19.812C102.961 19.812 103.825 20.016 104.581 20.424C105.337 20.832 105.925 21.414 106.345 22.17C106.777 22.926 106.993 23.808 106.993 24.816ZM103.843 24.006C103.843 23.478 103.663 23.058 103.303 22.746C102.943 22.434 102.493 22.278 101.953 22.278C101.437 22.278 100.999 22.428 100.639 22.728C100.291 23.028 100.075 23.454 99.9912 24.006H103.843Z" fill="white"/>
</svg>
