<svg width="224" height="52" viewBox="0 0 224 52" fill="none" xmlns="http://www.w3.org/2000/svg">
<g filter="url(#filter0_d)">
<rect width="224" height="47" rx="5" fill="#3F4528"/>
<path d="M25.481 27.768H20.765L20.009 30H16.787L21.359 17.364H24.923L29.495 30H26.237L25.481 27.768ZM24.689 25.392L23.123 20.766L21.575 25.392H24.689ZM30.2745 24.96C30.2745 23.928 30.4665 23.022 30.8505 22.242C31.2465 21.462 31.7805 20.862 32.4525 20.442C33.1245 20.022 33.8745 19.812 34.7025 19.812C35.3625 19.812 35.9625 19.95 36.5025 20.226C37.0545 20.502 37.4865 20.874 37.7985 21.342V16.68H40.8765V30H37.7985V28.56C37.5105 29.04 37.0965 29.424 36.5565 29.712C36.0285 30 35.4105 30.144 34.7025 30.144C33.8745 30.144 33.1245 29.934 32.4525 29.514C31.7805 29.082 31.2465 28.476 30.8505 27.696C30.4665 26.904 30.2745 25.992 30.2745 24.96ZM37.7985 24.978C37.7985 24.21 37.5825 23.604 37.1505 23.16C36.7305 22.716 36.2145 22.494 35.6025 22.494C34.9905 22.494 34.4685 22.716 34.0365 23.16C33.6165 23.592 33.4065 24.192 33.4065 24.96C33.4065 25.728 33.6165 26.34 34.0365 26.796C34.4685 27.24 34.9905 27.462 35.6025 27.462C36.2145 27.462 36.7305 27.24 37.1505 26.796C37.5825 26.352 37.7985 25.746 37.7985 24.978ZM42.4913 24.96C42.4913 23.928 42.6833 23.022 43.0673 22.242C43.4633 21.462 43.9973 20.862 44.6693 20.442C45.3413 20.022 46.0913 19.812 46.9193 19.812C47.5793 19.812 48.1793 19.95 48.7193 20.226C49.2713 20.502 49.7033 20.874 50.0153 21.342V16.68H53.0933V30H50.0153V28.56C49.7273 29.04 49.3133 29.424 48.7733 29.712C48.2453 30 47.6273 30.144 46.9193 30.144C46.0913 30.144 45.3413 29.934 44.6693 29.514C43.9973 29.082 43.4633 28.476 43.0673 27.696C42.6833 26.904 42.4913 25.992 42.4913 24.96ZM50.0153 24.978C50.0153 24.21 49.7993 23.604 49.3673 23.16C48.9473 22.716 48.4313 22.494 47.8193 22.494C47.2073 22.494 46.6853 22.716 46.2533 23.16C45.8333 23.592 45.6233 24.192 45.6233 24.96C45.6233 25.728 45.8333 26.34 46.2533 26.796C46.6853 27.24 47.2073 27.462 47.8193 27.462C48.4313 27.462 48.9473 27.24 49.3673 26.796C49.7993 26.352 50.0153 25.746 50.0153 24.978ZM62.2126 16.68V30H59.1346V16.68H62.2126ZM65.9911 18.912C65.4511 18.912 65.0071 18.756 64.6591 18.444C64.3231 18.12 64.1551 17.724 64.1551 17.256C64.1551 16.776 64.3231 16.38 64.6591 16.068C65.0071 15.744 65.4511 15.582 65.9911 15.582C66.5191 15.582 66.9511 15.744 67.2871 16.068C67.6351 16.38 67.8091 16.776 67.8091 17.256C67.8091 17.724 67.6351 18.12 67.2871 18.444C66.9511 18.756 66.5191 18.912 65.9911 18.912ZM67.5211 19.956V30H64.4431V19.956H67.5211ZM69.1397 24.996C69.1397 24 69.3437 23.112 69.7517 22.332C70.1717 21.552 70.7297 20.946 71.4257 20.514C72.1337 20.07 72.9017 19.848 73.7297 19.848C74.3657 19.848 74.9357 19.962 75.4397 20.19C75.9437 20.406 76.3517 20.712 76.6637 21.108V19.956H79.7417V34.788H76.6637V28.74C76.3157 29.16 75.8897 29.496 75.3857 29.748C74.8937 30 74.3297 30.126 73.6937 30.126C72.8777 30.126 72.1217 29.91 71.4257 29.478C70.7297 29.046 70.1717 28.44 69.7517 27.66C69.3437 26.88 69.1397 25.992 69.1397 24.996ZM76.6637 24.978C76.6637 24.438 76.5557 23.988 76.3397 23.628C76.1357 23.256 75.8657 22.98 75.5297 22.8C75.1937 22.608 74.8397 22.512 74.4677 22.512C74.1077 22.512 73.7597 22.608 73.4237 22.8C73.0877 22.98 72.8117 23.256 72.5957 23.628C72.3797 24 72.2717 24.456 72.2717 24.996C72.2717 25.536 72.3797 25.992 72.5957 26.364C72.8117 26.724 73.0877 27 73.4237 27.192C73.7597 27.372 74.1077 27.462 74.4677 27.462C74.8277 27.462 75.1757 27.372 75.5117 27.192C75.8597 27 76.1357 26.718 76.3397 26.346C76.5557 25.974 76.6637 25.518 76.6637 24.978ZM91.8865 19.956V30H88.8085V28.632C88.4965 29.076 88.0705 29.436 87.5305 29.712C87.0025 29.976 86.4145 30.108 85.7665 30.108C84.9985 30.108 84.3205 29.94 83.7325 29.604C83.1445 29.256 82.6885 28.758 82.3645 28.11C82.0405 27.462 81.8785 26.7 81.8785 25.824V19.956H84.9385V25.41C84.9385 26.082 85.1125 26.604 85.4605 26.976C85.8085 27.348 86.2765 27.534 86.8645 27.534C87.4645 27.534 87.9385 27.348 88.2865 26.976C88.6345 26.604 88.8085 26.082 88.8085 25.41V19.956H91.8865ZM95.6454 18.912C95.1054 18.912 94.6614 18.756 94.3134 18.444C93.9774 18.12 93.8094 17.724 93.8094 17.256C93.8094 16.776 93.9774 16.38 94.3134 16.068C94.6614 15.744 95.1054 15.582 95.6454 15.582C96.1734 15.582 96.6054 15.744 96.9414 16.068C97.2894 16.38 97.4634 16.776 97.4634 17.256C97.4634 17.724 97.2894 18.12 96.9414 18.444C96.6054 18.756 96.1734 18.912 95.6454 18.912ZM97.1754 19.956V30H94.0974V19.956H97.1754ZM98.794 24.96C98.794 23.928 98.986 23.022 99.37 22.242C99.766 21.462 100.3 20.862 100.972 20.442C101.644 20.022 102.394 19.812 103.222 19.812C103.882 19.812 104.482 19.95 105.022 20.226C105.574 20.502 106.006 20.874 106.318 21.342V16.68H109.396V30H106.318V28.56C106.03 29.04 105.616 29.424 105.076 29.712C104.548 30 103.93 30.144 103.222 30.144C102.394 30.144 101.644 29.934 100.972 29.514C100.3 29.082 99.766 28.476 99.37 27.696C98.986 26.904 98.794 25.992 98.794 24.96ZM106.318 24.978C106.318 24.21 106.102 23.604 105.67 23.16C105.25 22.716 104.734 22.494 104.122 22.494C103.51 22.494 102.988 22.716 102.556 23.16C102.136 23.592 101.926 24.192 101.926 24.96C101.926 25.728 102.136 26.34 102.556 26.796C102.988 27.24 103.51 27.462 104.122 27.462C104.734 27.462 105.25 27.24 105.67 26.796C106.102 26.352 106.318 25.746 106.318 24.978ZM113.171 18.912C112.631 18.912 112.187 18.756 111.839 18.444C111.503 18.12 111.335 17.724 111.335 17.256C111.335 16.776 111.503 16.38 111.839 16.068C112.187 15.744 112.631 15.582 113.171 15.582C113.699 15.582 114.131 15.744 114.467 16.068C114.815 16.38 114.989 16.776 114.989 17.256C114.989 17.724 114.815 18.12 114.467 18.444C114.131 18.756 113.699 18.912 113.171 18.912ZM114.701 19.956V30H111.623V19.956H114.701ZM122.529 27.39V30H120.963C119.847 30 118.977 29.73 118.353 29.19C117.729 28.638 117.417 27.744 117.417 26.508V22.512H116.193V19.956H117.417V17.508H120.495V19.956H122.511V22.512H120.495V26.544C120.495 26.844 120.567 27.06 120.711 27.192C120.855 27.324 121.095 27.39 121.431 27.39H122.529ZM134.504 19.956L128.204 34.77H124.892L127.196 29.658L123.11 19.956H126.548L128.87 26.238L131.174 19.956H134.504Z" fill="white"/>
<circle opacity="0.5" cx="200" cy="24" r="8" fill="#11130B"/>
<circle opacity="0.5" cx="200" cy="24" r="4" fill="#A5C437"/>
</g>
<defs>
<filter id="filter0_d" x="0" y="0" width="224" height="52" filterUnits="userSpaceOnUse" color-interpolation-filters="sRGB">
<feFlood flood-opacity="0" result="BackgroundImageFix"/>
<feColorMatrix in="SourceAlpha" type="matrix" values="0 0 0 0 0 0 0 0 0 0 0 0 0 0 0 0 0 0 127 0"/>
<feOffset dy="5"/>
<feColorMatrix type="matrix" values="0 0 0 0 0.164706 0 0 0 0 0.180392 0 0 0 0 0.105882 0 0 0 1 0"/>
<feBlend mode="normal" in2="BackgroundImageFix" result="effect1_dropShadow"/>
<feBlend mode="normal" in="SourceGraphic" in2="effect1_dropShadow" result="shape"/>
</filter>
</defs>
</svg>
