<svg width="149" height="38" viewBox="0 0 149 38" fill="none" xmlns="http://www.w3.org/2000/svg">
<g filter="url(#filter0_d)">
<rect width="149" height="36" rx="5" fill="#EFF4DA"/>
</g>
<path d="M13.8178 18.4C13.8178 17.3013 14.0631 16.32 14.5538 15.456C15.0551 14.5813 15.7325 13.904 16.5858 13.424C17.4498 12.9333 18.4151 12.688 19.4818 12.688C20.7298 12.688 21.8231 13.008 22.7618 13.648C23.7005 14.288 24.3565 15.1733 24.7298 16.304H22.1538C21.8978 15.7707 21.5351 15.3707 21.0658 15.104C20.6071 14.8373 20.0738 14.704 19.4658 14.704C18.8151 14.704 18.2338 14.8587 17.7218 15.168C17.2205 15.4667 16.8258 15.8933 16.5378 16.448C16.2605 17.0027 16.1218 17.6533 16.1218 18.4C16.1218 19.136 16.2605 19.7867 16.5378 20.352C16.8258 20.9067 17.2205 21.3387 17.7218 21.648C18.2338 21.9467 18.8151 22.096 19.4658 22.096C20.0738 22.096 20.6071 21.9627 21.0658 21.696C21.5351 21.4187 21.8978 21.0133 22.1538 20.48H24.7298C24.3565 21.6213 23.7005 22.512 22.7618 23.152C21.8338 23.7813 20.7405 24.096 19.4818 24.096C18.4151 24.096 17.4498 23.856 16.5858 23.376C15.7325 22.8853 15.0551 22.208 14.5538 21.344C14.0631 20.48 13.8178 19.4987 13.8178 18.4ZM30.5791 24.144C29.7257 24.144 28.9577 23.9573 28.2751 23.584C27.5924 23.2 27.0537 22.6613 26.6591 21.968C26.2751 21.2747 26.0831 20.4747 26.0831 19.568C26.0831 18.6613 26.2804 17.8613 26.6751 17.168C27.0804 16.4747 27.6297 15.9413 28.3231 15.568C29.0164 15.184 29.7897 14.992 30.6431 14.992C31.4964 14.992 32.2697 15.184 32.9631 15.568C33.6564 15.9413 34.2004 16.4747 34.5951 17.168C35.0004 17.8613 35.2031 18.6613 35.2031 19.568C35.2031 20.4747 34.9951 21.2747 34.5791 21.968C34.1737 22.6613 33.6191 23.2 32.9151 23.584C32.2217 23.9573 31.4431 24.144 30.5791 24.144ZM30.5791 22.192C30.9844 22.192 31.3631 22.096 31.7151 21.904C32.0777 21.7013 32.3657 21.4027 32.5791 21.008C32.7924 20.6133 32.8991 20.1333 32.8991 19.568C32.8991 18.7253 32.6751 18.08 32.2271 17.632C31.7897 17.1733 31.2511 16.944 30.6111 16.944C29.9711 16.944 29.4324 17.1733 28.9951 17.632C28.5684 18.08 28.3551 18.7253 28.3551 19.568C28.3551 20.4107 28.5631 21.0613 28.9791 21.52C29.4057 21.968 29.9391 22.192 30.5791 22.192ZM41.7582 15.008C42.8142 15.008 43.6675 15.344 44.3182 16.016C44.9689 16.6773 45.2942 17.6053 45.2942 18.8V24H43.0542V19.104C43.0542 18.4 42.8782 17.8613 42.5262 17.488C42.1742 17.104 41.6942 16.912 41.0862 16.912C40.4675 16.912 39.9769 17.104 39.6142 17.488C39.2622 17.8613 39.0862 18.4 39.0862 19.104V24H36.8462V15.136H39.0862V16.24C39.3849 15.856 39.7635 15.5573 40.2222 15.344C40.6915 15.12 41.2035 15.008 41.7582 15.008ZM52.3363 15.008C53.3923 15.008 54.2456 15.344 54.8963 16.016C55.547 16.6773 55.8723 17.6053 55.8723 18.8V24H53.6323V19.104C53.6323 18.4 53.4563 17.8613 53.1043 17.488C52.7523 17.104 52.2723 16.912 51.6643 16.912C51.0456 16.912 50.555 17.104 50.1923 17.488C49.8403 17.8613 49.6643 18.4 49.6643 19.104V24H47.4243V15.136H49.6643V16.24C49.963 15.856 50.3416 15.5573 50.8003 15.344C51.2696 15.12 51.7816 15.008 52.3363 15.008ZM66.2424 19.376C66.2424 19.696 66.2211 19.984 66.1784 20.24H59.6984C59.7518 20.88 59.9758 21.3813 60.3704 21.744C60.7651 22.1067 61.2504 22.288 61.8264 22.288C62.6584 22.288 63.2504 21.9307 63.6024 21.216H66.0184C65.7624 22.0693 65.2718 22.7733 64.5464 23.328C63.8211 23.872 62.9304 24.144 61.8744 24.144C61.0211 24.144 60.2531 23.9573 59.5704 23.584C58.8984 23.2 58.3704 22.6613 57.9864 21.968C57.6131 21.2747 57.4264 20.4747 57.4264 19.568C57.4264 18.6507 57.6131 17.8453 57.9864 17.152C58.3598 16.4587 58.8824 15.9253 59.5544 15.552C60.2264 15.1787 60.9998 14.992 61.8744 14.992C62.7171 14.992 63.4691 15.1733 64.1304 15.536C64.8024 15.8987 65.3198 16.416 65.6824 17.088C66.0558 17.7493 66.2424 18.512 66.2424 19.376ZM63.9224 18.736C63.9118 18.16 63.7038 17.7013 63.2984 17.36C62.8931 17.008 62.3971 16.832 61.8104 16.832C61.2558 16.832 60.7864 17.0027 60.4024 17.344C60.0291 17.6747 59.7998 18.1387 59.7144 18.736H63.9224ZM67.3014 19.568C67.3014 18.6507 67.4881 17.8507 67.8614 17.168C68.2348 16.4747 68.7521 15.9413 69.4134 15.568C70.0748 15.184 70.8321 14.992 71.6854 14.992C72.7841 14.992 73.6908 15.2693 74.4054 15.824C75.1308 16.368 75.6161 17.136 75.8614 18.128H73.4454C73.3174 17.744 73.0988 17.4453 72.7894 17.232C72.4908 17.008 72.1174 16.896 71.6694 16.896C71.0294 16.896 70.5228 17.1307 70.1494 17.6C69.7761 18.0587 69.5894 18.7147 69.5894 19.568C69.5894 20.4107 69.7761 21.0667 70.1494 21.536C70.5228 21.9947 71.0294 22.224 71.6694 22.224C72.5761 22.224 73.1681 21.8187 73.4454 21.008H75.8614C75.6161 21.968 75.1308 22.7307 74.4054 23.296C73.6801 23.8613 72.7734 24.144 71.6854 24.144C70.8321 24.144 70.0748 23.9573 69.4134 23.584C68.7521 23.2 68.2348 22.6667 67.8614 21.984C67.4881 21.2907 67.3014 20.4853 67.3014 19.568ZM80.1104 16.976V21.264C80.1104 21.5627 80.1798 21.7813 80.3184 21.92C80.4678 22.048 80.7131 22.112 81.0544 22.112H82.0944V24H80.6864C78.7984 24 77.8544 23.0827 77.8544 21.248V16.976H76.7984V15.136H77.8544V12.944H80.1104V15.136H82.0944V16.976H80.1104ZM99.8061 15.136L97.2141 24H94.7981L93.1821 17.808L91.5661 24H89.1341L86.5261 15.136H88.7981L90.3661 21.888L92.0621 15.136H94.4301L96.0941 21.872L97.6621 15.136H99.8061ZM100.442 19.536C100.442 18.64 100.618 17.8453 100.97 17.152C101.333 16.4587 101.818 15.9253 102.426 15.552C103.045 15.1787 103.733 14.992 104.49 14.992C105.151 14.992 105.727 15.1253 106.218 15.392C106.719 15.6587 107.119 15.9947 107.418 16.4V15.136H109.674V24H107.418V22.704C107.13 23.12 106.73 23.4667 106.218 23.744C105.717 24.0107 105.135 24.144 104.474 24.144C103.727 24.144 103.045 23.952 102.426 23.568C101.818 23.184 101.333 22.6453 100.97 21.952C100.618 21.248 100.442 20.4427 100.442 19.536ZM107.418 19.568C107.418 19.024 107.311 18.56 107.098 18.176C106.885 17.7813 106.597 17.4827 106.234 17.28C105.871 17.0667 105.482 16.96 105.066 16.96C104.65 16.96 104.266 17.0613 103.914 17.264C103.562 17.4667 103.274 17.7653 103.05 18.16C102.837 18.544 102.73 19.0027 102.73 19.536C102.73 20.0693 102.837 20.5387 103.05 20.944C103.274 21.3387 103.562 21.6427 103.914 21.856C104.277 22.0693 104.661 22.176 105.066 22.176C105.482 22.176 105.871 22.0747 106.234 21.872C106.597 21.6587 106.885 21.36 107.098 20.976C107.311 20.5813 107.418 20.112 107.418 19.568ZM114.102 12.16V24H111.862V12.16H114.102ZM118.555 12.16V24H116.315V12.16H118.555ZM129.008 19.376C129.008 19.696 128.987 19.984 128.944 20.24H122.464C122.517 20.88 122.741 21.3813 123.136 21.744C123.531 22.1067 124.016 22.288 124.592 22.288C125.424 22.288 126.016 21.9307 126.368 21.216H128.784C128.528 22.0693 128.037 22.7733 127.312 23.328C126.587 23.872 125.696 24.144 124.64 24.144C123.787 24.144 123.019 23.9573 122.336 23.584C121.664 23.2 121.136 22.6613 120.752 21.968C120.379 21.2747 120.192 20.4747 120.192 19.568C120.192 18.6507 120.379 17.8453 120.752 17.152C121.125 16.4587 121.648 15.9253 122.32 15.552C122.992 15.1787 123.765 14.992 124.64 14.992C125.483 14.992 126.235 15.1733 126.896 15.536C127.568 15.8987 128.085 16.416 128.448 17.088C128.821 17.7493 129.008 18.512 129.008 19.376ZM126.688 18.736C126.677 18.16 126.469 17.7013 126.064 17.36C125.659 17.008 125.163 16.832 124.576 16.832C124.021 16.832 123.552 17.0027 123.168 17.344C122.795 17.6747 122.565 18.1387 122.48 18.736H126.688ZM133.251 16.976V21.264C133.251 21.5627 133.32 21.7813 133.459 21.92C133.608 22.048 133.854 22.112 134.195 22.112H135.235V24H133.827C131.939 24 130.995 23.0827 130.995 21.248V16.976H129.939V15.136H130.995V12.944H133.251V15.136H135.235V16.976H133.251Z" fill="#333915"/>
<defs>
<filter id="filter0_d" x="0" y="0" width="149" height="38" filterUnits="userSpaceOnUse" color-interpolation-filters="sRGB">
<feFlood flood-opacity="0" result="BackgroundImageFix"/>
<feColorMatrix in="SourceAlpha" type="matrix" values="0 0 0 0 0 0 0 0 0 0 0 0 0 0 0 0 0 0 127 0"/>
<feOffset dy="2"/>
<feColorMatrix type="matrix" values="0 0 0 0 0 0 0 0 0 0 0 0 0 0 0 0 0 0 0.25 0"/>
<feBlend mode="normal" in2="BackgroundImageFix" result="effect1_dropShadow"/>
<feBlend mode="normal" in="SourceGraphic" in2="effect1_dropShadow" result="shape"/>
</filter>
</defs>
</svg>
