<svg width="384" height="48" viewBox="0 0 384 48" fill="none" xmlns="http://www.w3.org/2000/svg">
<rect x="0.772059" y="0.772059" width="382.456" height="46.4559" rx="6.94853" stroke="#EDEDED" stroke-width="1.54412"/>
<path opacity="0.5" d="M16.9114 29.7297C16.0591 29.7297 15.2932 29.5814 14.6138 29.285C13.9467 28.9762 13.4217 28.5562 13.0388 28.025C12.6558 27.4814 12.4582 26.8576 12.4458 26.1535H14.2432C14.3049 26.7588 14.552 27.2714 14.9844 27.6914C15.4291 28.0991 16.0714 28.3029 16.9114 28.3029C17.7144 28.3029 18.3444 28.1053 18.8014 27.71C19.2708 27.3023 19.5055 26.7835 19.5055 26.1535C19.5055 25.6594 19.3696 25.2579 19.0979 24.9491C18.8261 24.6403 18.4864 24.4056 18.0788 24.245C17.6711 24.0844 17.1214 23.9114 16.4296 23.7262C15.5773 23.5038 14.8917 23.2814 14.3729 23.0591C13.8664 22.8367 13.4279 22.4909 13.0573 22.0214C12.6991 21.5397 12.5199 20.8973 12.5199 20.0944C12.5199 19.3903 12.6991 18.7664 13.0573 18.2229C13.4155 17.6794 13.9158 17.2594 14.5582 16.9629C15.2129 16.6664 15.9602 16.5182 16.8002 16.5182C18.0108 16.5182 18.9991 16.8209 19.7649 17.4262C20.5432 18.0314 20.9817 18.8344 21.0805 19.835H19.2276C19.1658 19.3409 18.9064 18.9085 18.4494 18.5379C17.9923 18.155 17.387 17.9635 16.6335 17.9635C15.9294 17.9635 15.3549 18.1488 14.9102 18.5194C14.4655 18.8776 14.2432 19.3841 14.2432 20.0388C14.2432 20.5082 14.3729 20.8912 14.6323 21.1876C14.9041 21.4841 15.2314 21.7126 15.6144 21.8732C16.0096 22.0214 16.5594 22.1944 17.2635 22.392C18.1158 22.6267 18.8014 22.8614 19.3202 23.0962C19.8391 23.3185 20.2838 23.6706 20.6544 24.1523C21.0249 24.6217 21.2102 25.2641 21.2102 26.0794C21.2102 26.7094 21.0435 27.3023 20.7099 27.8582C20.3764 28.4141 19.8823 28.865 19.2276 29.2109C18.5729 29.5567 17.8008 29.7297 16.9114 29.7297ZM32.9563 24.1338C32.9563 24.455 32.9378 24.7947 32.9007 25.1529H24.7848C24.8466 26.1535 25.1863 26.9379 25.8039 27.5062C26.4339 28.062 27.1936 28.34 28.0831 28.34C28.8119 28.34 29.4172 28.1732 29.8989 27.8397C30.3931 27.4938 30.7389 27.0367 30.9366 26.4685H32.7525C32.4807 27.4444 31.9372 28.2412 31.1219 28.8588C30.3066 29.4641 29.2936 29.7667 28.0831 29.7667C27.1195 29.7667 26.2548 29.5506 25.4889 29.1182C24.7354 28.6859 24.1425 28.0744 23.7101 27.2838C23.2778 26.4809 23.0616 25.5544 23.0616 24.5044C23.0616 23.4544 23.2716 22.5341 23.6916 21.7435C24.1116 20.9529 24.6983 20.3476 25.4519 19.9276C26.2178 19.4953 27.0948 19.2791 28.0831 19.2791C29.0466 19.2791 29.8989 19.4891 30.6401 19.9091C31.3813 20.3291 31.9495 20.9097 32.3448 21.6509C32.7525 22.3797 32.9563 23.2073 32.9563 24.1338ZM31.2145 23.7817C31.2145 23.1394 31.0725 22.5897 30.7883 22.1326C30.5042 21.6632 30.1151 21.3112 29.621 21.0764C29.1392 20.8294 28.6019 20.7059 28.0089 20.7059C27.1566 20.7059 26.4278 20.9776 25.8225 21.5212C25.2295 22.0647 24.8898 22.8182 24.8033 23.7817H31.2145ZM34.552 24.4859C34.552 23.4482 34.762 22.5403 35.182 21.762C35.602 20.9714 36.1764 20.36 36.9052 19.9276C37.6464 19.4953 38.4679 19.2791 39.3696 19.2791C40.259 19.2791 41.0311 19.4706 41.6858 19.8535C42.3405 20.2364 42.8285 20.7182 43.1496 21.2988V19.4459H44.8543V29.6H43.1496V27.71C42.8161 28.3029 42.3158 28.797 41.6488 29.1923C40.994 29.5753 40.2282 29.7667 39.3511 29.7667C38.4493 29.7667 37.634 29.5444 36.9052 29.0997C36.1764 28.655 35.602 28.0312 35.182 27.2282C34.762 26.4253 34.552 25.5112 34.552 24.4859ZM43.1496 24.5044C43.1496 23.7385 42.9952 23.0714 42.6864 22.5032C42.3776 21.935 41.9576 21.5026 41.4264 21.2062C40.9076 20.8973 40.3332 20.7429 39.7032 20.7429C39.0732 20.7429 38.4988 20.8912 37.9799 21.1876C37.4611 21.4841 37.0473 21.9164 36.7385 22.4847C36.4296 23.0529 36.2752 23.72 36.2752 24.4859C36.2752 25.2641 36.4296 25.9435 36.7385 26.5241C37.0473 27.0923 37.4611 27.5309 37.9799 27.8397C38.4988 28.1362 39.0732 28.2844 39.7032 28.2844C40.3332 28.2844 40.9076 28.1362 41.4264 27.8397C41.9576 27.5309 42.3776 27.0923 42.6864 26.5241C42.9952 25.9435 43.1496 25.2703 43.1496 24.5044ZM49.39 21.095C49.6865 20.5144 50.1065 20.0635 50.65 19.7423C51.2059 19.4212 51.8791 19.2606 52.6697 19.2606V21.0023H52.225C50.335 21.0023 49.39 22.0276 49.39 24.0782V29.6H47.7038V19.4459H49.39V21.095ZM53.9862 24.5044C53.9862 23.4544 54.1962 22.5403 54.6162 21.762C55.0362 20.9714 55.6167 20.36 56.3579 19.9276C57.1115 19.4953 57.97 19.2791 58.9335 19.2791C60.1812 19.2791 61.2065 19.5817 62.0094 20.187C62.8247 20.7923 63.362 21.6323 63.6215 22.707H61.8056C61.6326 22.0894 61.2929 21.6014 60.7865 21.2432C60.2923 20.885 59.6747 20.7059 58.9335 20.7059C57.97 20.7059 57.1917 21.0394 56.5988 21.7064C56.0059 22.3612 55.7094 23.2938 55.7094 24.5044C55.7094 25.7273 56.0059 26.6723 56.5988 27.3394C57.1917 28.0064 57.97 28.34 58.9335 28.34C59.6747 28.34 60.2923 28.167 60.7865 27.8212C61.2806 27.4753 61.6203 26.9812 61.8056 26.3388H63.6215C63.3497 27.3764 62.8062 28.2103 61.9909 28.8403C61.1756 29.4579 60.1565 29.7667 58.9335 29.7667C57.97 29.7667 57.1115 29.5506 56.3579 29.1182C55.6167 28.6859 55.0362 28.0744 54.6162 27.2838C54.1962 26.4932 53.9862 25.5667 53.9862 24.5044ZM70.9113 19.2606C71.6772 19.2606 72.369 19.4273 72.9866 19.7609C73.6043 20.082 74.086 20.57 74.4319 21.2247C74.7902 21.8794 74.9693 22.6762 74.9693 23.615V29.6H73.3016V23.8559C73.3016 22.8429 73.0484 22.0709 72.5419 21.5397C72.0354 20.9962 71.3437 20.7244 70.4666 20.7244C69.5772 20.7244 68.8669 21.0023 68.3357 21.5582C67.8169 22.1141 67.5575 22.9232 67.5575 23.9856V29.6H65.8713V15.8882H67.5575V20.8912C67.891 20.3723 68.3481 19.9709 68.9287 19.6867C69.5216 19.4026 70.1825 19.2606 70.9113 19.2606ZM92.8177 29.6H91.1316L84.3498 19.3162V29.6H82.6636V16.6664H84.3498L91.1316 26.9317V16.6664H92.8177V29.6ZM95.0621 24.4859C95.0621 23.4482 95.2721 22.5403 95.6921 21.762C96.1121 20.9714 96.6865 20.36 97.4153 19.9276C98.1565 19.4953 98.978 19.2791 99.8797 19.2791C100.769 19.2791 101.541 19.4706 102.196 19.8535C102.851 20.2364 103.339 20.7182 103.66 21.2988V19.4459H105.364V29.6H103.66V27.71C103.326 28.3029 102.826 28.797 102.159 29.1923C101.504 29.5753 100.738 29.7667 99.8612 29.7667C98.9595 29.7667 98.1442 29.5444 97.4153 29.0997C96.6865 28.655 96.1121 28.0312 95.6921 27.2282C95.2721 26.4253 95.0621 25.5112 95.0621 24.4859ZM103.66 24.5044C103.66 23.7385 103.505 23.0714 103.197 22.5032C102.888 21.935 102.468 21.5026 101.937 21.2062C101.418 20.8973 100.843 20.7429 100.213 20.7429C99.5833 20.7429 99.0089 20.8912 98.49 21.1876C97.9712 21.4841 97.5574 21.9164 97.2486 22.4847C96.9397 23.0529 96.7853 23.72 96.7853 24.4859C96.7853 25.2641 96.9397 25.9435 97.2486 26.5241C97.5574 27.0923 97.9712 27.5309 98.49 27.8397C99.0089 28.1362 99.5833 28.2844 100.213 28.2844C100.843 28.2844 101.418 28.1362 101.937 27.8397C102.468 27.5309 102.888 27.0923 103.197 26.5241C103.505 25.9435 103.66 25.2703 103.66 24.5044ZM120.425 19.2606C121.215 19.2606 121.92 19.4273 122.537 19.7609C123.155 20.082 123.643 20.57 124.001 21.2247C124.359 21.8794 124.538 22.6762 124.538 23.615V29.6H122.871V23.8559C122.871 22.8429 122.617 22.0709 122.111 21.5397C121.617 20.9962 120.944 20.7244 120.091 20.7244C119.214 20.7244 118.516 21.0085 117.997 21.5767C117.479 22.1326 117.219 22.9417 117.219 24.0041V29.6H115.552V23.8559C115.552 22.8429 115.298 22.0709 114.792 21.5397C114.298 20.9962 113.625 20.7244 112.772 20.7244C111.895 20.7244 111.197 21.0085 110.678 21.5767C110.16 22.1326 109.9 22.9417 109.9 24.0041V29.6H108.214V19.4459H109.9V20.9097C110.234 20.3785 110.678 19.9709 111.234 19.6867C111.802 19.4026 112.426 19.2606 113.106 19.2606C113.958 19.2606 114.712 19.452 115.366 19.835C116.021 20.2179 116.509 20.78 116.83 21.5212C117.114 20.8047 117.584 20.2488 118.238 19.8535C118.893 19.4582 119.622 19.2606 120.425 19.2606ZM136.569 24.1338C136.569 24.455 136.55 24.7947 136.513 25.1529H128.398C128.459 26.1535 128.799 26.9379 129.417 27.5062C130.047 28.062 130.806 28.34 131.696 28.34C132.425 28.34 133.03 28.1732 133.512 27.8397C134.006 27.4938 134.352 27.0367 134.549 26.4685H136.365C136.093 27.4444 135.55 28.2412 134.735 28.8588C133.919 29.4641 132.906 29.7667 131.696 29.7667C130.732 29.7667 129.868 29.5506 129.102 29.1182C128.348 28.6859 127.755 28.0744 127.323 27.2838C126.89 26.4809 126.674 25.5544 126.674 24.5044C126.674 23.4544 126.884 22.5341 127.304 21.7435C127.724 20.9529 128.311 20.3476 129.065 19.9276C129.83 19.4953 130.708 19.2791 131.696 19.2791C132.659 19.2791 133.512 19.4891 134.253 19.9091C134.994 20.3291 135.562 20.9097 135.958 21.6509C136.365 22.3797 136.569 23.2073 136.569 24.1338ZM134.827 23.7817C134.827 23.1394 134.685 22.5897 134.401 22.1326C134.117 21.6632 133.728 21.3112 133.234 21.0764C132.752 20.8294 132.215 20.7059 131.622 20.7059C130.769 20.7059 130.04 20.9776 129.435 21.5212C128.842 22.0647 128.503 22.8182 128.416 23.7817H134.827ZM148.163 29.7667C147.212 29.7667 146.347 29.5506 145.569 29.1182C144.803 28.6859 144.198 28.0744 143.753 27.2838C143.321 26.4809 143.105 25.5544 143.105 24.5044C143.105 23.4667 143.327 22.5526 143.772 21.762C144.229 20.9591 144.846 20.3476 145.625 19.9276C146.403 19.4953 147.274 19.2791 148.237 19.2791C149.201 19.2791 150.072 19.4953 150.85 19.9276C151.628 20.3476 152.24 20.9529 152.684 21.7435C153.141 22.5341 153.37 23.4544 153.37 24.5044C153.37 25.5544 153.135 26.4809 152.666 27.2838C152.209 28.0744 151.585 28.6859 150.794 29.1182C150.004 29.5506 149.127 29.7667 148.163 29.7667ZM148.163 28.2844C148.768 28.2844 149.337 28.1423 149.868 27.8582C150.399 27.5741 150.825 27.1479 151.146 26.5797C151.48 26.0114 151.647 25.3197 151.647 24.5044C151.647 23.6891 151.486 22.9973 151.165 22.4291C150.844 21.8609 150.424 21.4409 149.905 21.1691C149.386 20.885 148.824 20.7429 148.219 20.7429C147.601 20.7429 147.033 20.885 146.514 21.1691C146.008 21.4409 145.6 21.8609 145.291 22.4291C144.982 22.9973 144.828 23.6891 144.828 24.5044C144.828 25.332 144.976 26.03 145.273 26.5982C145.581 27.1664 145.989 27.5926 146.496 27.8767C147.002 28.1485 147.558 28.2844 148.163 28.2844ZM157.273 21.095C157.57 20.5144 157.99 20.0635 158.533 19.7423C159.089 19.4212 159.762 19.2606 160.553 19.2606V21.0023H160.108C158.218 21.0023 157.273 22.0276 157.273 24.0782V29.6H155.587V19.4459H157.273V21.095ZM176.074 20.465C176.074 21.5397 175.703 22.4353 174.962 23.1517C174.233 23.8559 173.115 24.2079 171.608 24.2079H169.125V29.6H167.439V16.685H171.608C173.066 16.685 174.172 17.037 174.925 17.7412C175.691 18.4453 176.074 19.3532 176.074 20.465ZM171.608 22.8182C172.547 22.8182 173.239 22.6144 173.684 22.2067C174.128 21.7991 174.351 21.2185 174.351 20.465C174.351 18.8714 173.437 18.0747 171.608 18.0747H169.125V22.8182H171.608ZM177.54 24.4859C177.54 23.4482 177.75 22.5403 178.17 21.762C178.59 20.9714 179.164 20.36 179.893 19.9276C180.634 19.4953 181.456 19.2791 182.357 19.2791C183.247 19.2791 184.019 19.4706 184.674 19.8535C185.328 20.2364 185.816 20.7182 186.137 21.2988V19.4459H187.842V29.6H186.137V27.71C185.804 28.3029 185.304 28.797 184.636 29.1923C183.982 29.5753 183.216 29.7667 182.339 29.7667C181.437 29.7667 180.622 29.5444 179.893 29.0997C179.164 28.655 178.59 28.0312 178.17 27.2282C177.75 26.4253 177.54 25.5112 177.54 24.4859ZM186.137 24.5044C186.137 23.7385 185.983 23.0714 185.674 22.5032C185.365 21.935 184.945 21.5026 184.414 21.2062C183.895 20.8973 183.321 20.7429 182.691 20.7429C182.061 20.7429 181.486 20.8912 180.968 21.1876C180.449 21.4841 180.035 21.9164 179.726 22.4847C179.417 23.0529 179.263 23.72 179.263 24.4859C179.263 25.2641 179.417 25.9435 179.726 26.5241C180.035 27.0923 180.449 27.5309 180.968 27.8397C181.486 28.1362 182.061 28.2844 182.691 28.2844C183.321 28.2844 183.895 28.1362 184.414 27.8397C184.945 27.5309 185.365 27.0923 185.674 26.5241C185.983 25.9435 186.137 25.2703 186.137 24.5044ZM194.286 29.7667C193.508 29.7667 192.81 29.637 192.192 29.3776C191.575 29.1059 191.087 28.7353 190.729 28.2659C190.37 27.7841 190.173 27.2344 190.136 26.6167H191.877C191.927 27.1232 192.162 27.537 192.582 27.8582C193.014 28.1794 193.576 28.34 194.268 28.34C194.91 28.34 195.417 28.1979 195.787 27.9138C196.158 27.6297 196.343 27.2714 196.343 26.8391C196.343 26.3944 196.145 26.067 195.75 25.857C195.355 25.6347 194.743 25.4185 193.916 25.2085C193.162 25.0109 192.544 24.8132 192.063 24.6156C191.593 24.4056 191.186 24.1029 190.84 23.7076C190.506 23.3 190.339 22.7688 190.339 22.1141C190.339 21.5953 190.494 21.1197 190.803 20.6873C191.112 20.255 191.55 19.9153 192.118 19.6682C192.687 19.4088 193.335 19.2791 194.064 19.2791C195.188 19.2791 196.096 19.5632 196.788 20.1314C197.479 20.6997 197.85 21.4779 197.899 22.4662H196.213C196.176 21.935 195.96 21.5088 195.565 21.1876C195.182 20.8664 194.663 20.7059 194.008 20.7059C193.403 20.7059 192.921 20.8356 192.563 21.095C192.205 21.3544 192.026 21.6941 192.026 22.1141C192.026 22.4476 192.131 22.7256 192.341 22.9479C192.563 23.1579 192.835 23.3309 193.156 23.4667C193.489 23.5903 193.947 23.7323 194.527 23.8929C195.256 24.0906 195.849 24.2882 196.306 24.4859C196.763 24.6712 197.152 24.9553 197.473 25.3382C197.807 25.7212 197.98 26.2214 197.992 26.8391C197.992 27.395 197.838 27.8953 197.529 28.34C197.22 28.7847 196.782 29.1367 196.213 29.3962C195.657 29.6432 195.015 29.7667 194.286 29.7667ZM202.429 20.8356V26.8206C202.429 27.3147 202.534 27.6667 202.744 27.8767C202.954 28.0744 203.319 28.1732 203.837 28.1732H205.079V29.6H203.559C202.621 29.6 201.917 29.3838 201.447 28.9514C200.978 28.5191 200.743 27.8088 200.743 26.8206V20.8356H199.427V19.4459H200.743V16.8888H202.429V19.4459H205.079V20.8356H202.429ZM216.387 24.1338C216.387 24.455 216.368 24.7947 216.331 25.1529H208.215C208.277 26.1535 208.617 26.9379 209.234 27.5062C209.864 28.062 210.624 28.34 211.513 28.34C212.242 28.34 212.847 28.1732 213.329 27.8397C213.823 27.4938 214.169 27.0367 214.367 26.4685H216.183C215.911 27.4444 215.367 28.2412 214.552 28.8588C213.737 29.4641 212.724 29.7667 211.513 29.7667C210.55 29.7667 209.685 29.5506 208.919 29.1182C208.166 28.6859 207.573 28.0744 207.14 27.2838C206.708 26.4809 206.492 25.5544 206.492 24.5044C206.492 23.4544 206.702 22.5341 207.122 21.7435C207.542 20.9529 208.129 20.3476 208.882 19.9276C209.648 19.4953 210.525 19.2791 211.513 19.2791C212.477 19.2791 213.329 19.4891 214.07 19.9091C214.812 20.3291 215.38 20.9097 215.775 21.6509C216.183 22.3797 216.387 23.2073 216.387 24.1338ZM214.645 23.7817C214.645 23.1394 214.503 22.5897 214.219 22.1326C213.935 21.6632 213.545 21.3112 213.051 21.0764C212.57 20.8294 212.032 20.7059 211.439 20.7059C210.587 20.7059 209.858 20.9776 209.253 21.5212C208.66 22.0647 208.32 22.8182 208.234 23.7817H214.645ZM231.186 26.7279H225.553L224.516 29.6H222.737L227.406 16.7591H229.352L234.003 29.6H232.224L231.186 26.7279ZM230.705 25.3567L228.37 18.8344L226.035 25.3567H230.705ZM235.408 24.4859C235.408 23.4482 235.618 22.5403 236.038 21.762C236.458 20.9714 237.032 20.36 237.761 19.9276C238.502 19.4953 239.33 19.2791 240.244 19.2791C241.035 19.2791 241.77 19.4644 242.449 19.835C243.128 20.1932 243.647 20.6688 244.006 21.2617V15.8882H245.71V29.6H244.006V27.6914C243.672 28.2967 243.178 28.797 242.523 29.1923C241.868 29.5753 241.103 29.7667 240.226 29.7667C239.324 29.7667 238.502 29.5444 237.761 29.0997C237.032 28.655 236.458 28.0312 236.038 27.2282C235.618 26.4253 235.408 25.5112 235.408 24.4859ZM244.006 24.5044C244.006 23.7385 243.851 23.0714 243.542 22.5032C243.233 21.935 242.813 21.5026 242.282 21.2062C241.763 20.8973 241.189 20.7429 240.559 20.7429C239.929 20.7429 239.355 20.8912 238.836 21.1876C238.317 21.4841 237.903 21.9164 237.594 22.4847C237.286 23.0529 237.131 23.72 237.131 24.4859C237.131 25.2641 237.286 25.9435 237.594 26.5241C237.903 27.0923 238.317 27.5309 238.836 27.8397C239.355 28.1362 239.929 28.2844 240.559 28.2844C241.189 28.2844 241.763 28.1362 242.282 27.8397C242.813 27.5309 243.233 27.0923 243.542 26.5241C243.851 25.9435 244.006 25.2703 244.006 24.5044ZM247.93 24.4859C247.93 23.4482 248.14 22.5403 248.56 21.762C248.98 20.9714 249.554 20.36 250.283 19.9276C251.024 19.4953 251.852 19.2791 252.766 19.2791C253.557 19.2791 254.292 19.4644 254.971 19.835C255.65 20.1932 256.169 20.6688 256.527 21.2617V15.8882H258.232V29.6H256.527V27.6914C256.194 28.2967 255.7 28.797 255.045 29.1923C254.39 29.5753 253.624 29.7667 252.747 29.7667C251.846 29.7667 251.024 29.5444 250.283 29.0997C249.554 28.655 248.98 28.0312 248.56 27.2282C248.14 26.4253 247.93 25.5112 247.93 24.4859ZM256.527 24.5044C256.527 23.7385 256.373 23.0714 256.064 22.5032C255.755 21.935 255.335 21.5026 254.804 21.2062C254.285 20.8973 253.711 20.7429 253.081 20.7429C252.451 20.7429 251.877 20.8912 251.358 21.1876C250.839 21.4841 250.425 21.9164 250.116 22.4847C249.807 23.0529 249.653 23.72 249.653 24.4859C249.653 25.2641 249.807 25.9435 250.116 26.5241C250.425 27.0923 250.839 27.5309 251.358 27.8397C251.877 28.1362 252.451 28.2844 253.081 28.2844C253.711 28.2844 254.285 28.1362 254.804 27.8397C255.335 27.5309 255.755 27.0923 256.064 26.5241C256.373 25.9435 256.527 25.2703 256.527 24.5044ZM262.768 21.095C263.064 20.5144 263.484 20.0635 264.028 19.7423C264.584 19.4212 265.257 19.2606 266.047 19.2606V21.0023H265.603C263.713 21.0023 262.768 22.0276 262.768 24.0782V29.6H261.082V19.4459H262.768V21.095ZM277.259 24.1338C277.259 24.455 277.24 24.7947 277.203 25.1529H269.087C269.149 26.1535 269.489 26.9379 270.106 27.5062C270.736 28.062 271.496 28.34 272.385 28.34C273.114 28.34 273.719 28.1732 274.201 27.8397C274.695 27.4938 275.041 27.0367 275.239 26.4685H277.055C276.783 27.4444 276.239 28.2412 275.424 28.8588C274.609 29.4641 273.596 29.7667 272.385 29.7667C271.422 29.7667 270.557 29.5506 269.791 29.1182C269.038 28.6859 268.445 28.0744 268.012 27.2838C267.58 26.4809 267.364 25.5544 267.364 24.5044C267.364 23.4544 267.574 22.5341 267.994 21.7435C268.414 20.9529 269.001 20.3476 269.754 19.9276C270.52 19.4953 271.397 19.2791 272.385 19.2791C273.349 19.2791 274.201 19.4891 274.942 19.9091C275.684 20.3291 276.252 20.9097 276.647 21.6509C277.055 22.3797 277.259 23.2073 277.259 24.1338ZM275.517 23.7817C275.517 23.1394 275.375 22.5897 275.091 22.1326C274.807 21.6632 274.417 21.3112 273.923 21.0764C273.442 20.8294 272.904 20.7059 272.311 20.7059C271.459 20.7059 270.73 20.9776 270.125 21.5212C269.532 22.0647 269.192 22.8182 269.106 23.7817H275.517ZM283.079 29.7667C282.301 29.7667 281.603 29.637 280.985 29.3776C280.368 29.1059 279.88 28.7353 279.521 28.2659C279.163 27.7841 278.965 27.2344 278.928 26.6167H280.67C280.72 27.1232 280.954 27.537 281.374 27.8582C281.807 28.1794 282.369 28.34 283.06 28.34C283.703 28.34 284.209 28.1979 284.58 27.9138C284.95 27.6297 285.136 27.2714 285.136 26.8391C285.136 26.3944 284.938 26.067 284.543 25.857C284.148 25.6347 283.536 25.4185 282.708 25.2085C281.955 25.0109 281.337 24.8132 280.855 24.6156C280.386 24.4056 279.978 24.1029 279.633 23.7076C279.299 23.3 279.132 22.7688 279.132 22.1141C279.132 21.5953 279.287 21.1197 279.595 20.6873C279.904 20.255 280.343 19.9153 280.911 19.6682C281.479 19.4088 282.128 19.2791 282.857 19.2791C283.981 19.2791 284.889 19.5632 285.58 20.1314C286.272 20.6997 286.643 21.4779 286.692 22.4662H285.006C284.969 21.935 284.753 21.5088 284.358 21.1876C283.975 20.8664 283.456 20.7059 282.801 20.7059C282.196 20.7059 281.714 20.8356 281.356 21.095C280.998 21.3544 280.818 21.6941 280.818 22.1141C280.818 22.4476 280.923 22.7256 281.133 22.9479C281.356 23.1579 281.628 23.3309 281.949 23.4667C282.282 23.5903 282.739 23.7323 283.32 23.8929C284.049 24.0906 284.642 24.2882 285.099 24.4859C285.556 24.6712 285.945 24.9553 286.266 25.3382C286.6 25.7212 286.773 26.2214 286.785 26.8391C286.785 27.395 286.63 27.8953 286.322 28.34C286.013 28.7847 285.574 29.1367 285.006 29.3962C284.45 29.6432 283.808 29.7667 283.079 29.7667ZM292.76 29.7667C291.982 29.7667 291.284 29.637 290.666 29.3776C290.048 29.1059 289.56 28.7353 289.202 28.2659C288.844 27.7841 288.646 27.2344 288.609 26.6167H290.351C290.4 27.1232 290.635 27.537 291.055 27.8582C291.488 28.1794 292.05 28.34 292.741 28.34C293.384 28.34 293.89 28.1979 294.261 27.9138C294.631 27.6297 294.817 27.2714 294.817 26.8391C294.817 26.3944 294.619 26.067 294.224 25.857C293.828 25.6347 293.217 25.4185 292.389 25.2085C291.636 25.0109 291.018 24.8132 290.536 24.6156C290.067 24.4056 289.659 24.1029 289.313 23.7076C288.98 23.3 288.813 22.7688 288.813 22.1141C288.813 21.5953 288.968 21.1197 289.276 20.6873C289.585 20.255 290.024 19.9153 290.592 19.6682C291.16 19.4088 291.809 19.2791 292.538 19.2791C293.662 19.2791 294.57 19.5632 295.261 20.1314C295.953 20.6997 296.324 21.4779 296.373 22.4662H294.687C294.65 21.935 294.434 21.5088 294.038 21.1876C293.655 20.8664 293.137 20.7059 292.482 20.7059C291.877 20.7059 291.395 20.8356 291.037 21.095C290.678 21.3544 290.499 21.6941 290.499 22.1141C290.499 22.4476 290.604 22.7256 290.814 22.9479C291.037 23.1579 291.308 23.3309 291.63 23.4667C291.963 23.5903 292.42 23.7323 293.001 23.8929C293.73 24.0906 294.323 24.2882 294.78 24.4859C295.237 24.6712 295.626 24.9553 295.947 25.3382C296.28 25.7212 296.453 26.2214 296.466 26.8391C296.466 27.395 296.311 27.8953 296.003 28.34C295.694 28.7847 295.255 29.1367 294.687 29.3962C294.131 29.6432 293.489 29.7667 292.76 29.7667Z" fill="white"/>
</svg>
