<svg width="48" height="36" viewBox="0 0 48 36" fill="none" xmlns="http://www.w3.org/2000/svg">
<rect opacity="0.5" x="1" y="1" width="46" height="34" rx="17" fill="black" fill-opacity="0.38" stroke="#EFF4DA" stroke-width="2"/>
<path d="M26.1361 9.36144L27.1312 9.26194L26.1361 9.36144ZM25.9838 8.54161L25.095 9V9L25.9838 8.54161ZM26.4311 10.8179L27.2261 10.2114L27.2261 10.2114L26.4311 10.8179ZM27.3595 11.2025L27.2261 10.2114L27.3595 11.2025ZM28.5979 10.3811L29.2311 11.1551L29.2311 11.1551L28.5979 10.3811ZM29.2853 9.90918L29.5896 10.8618L29.2853 9.90918ZM29.9872 9.94419L30.3848 9.02663L30.3848 9.02663L29.9872 9.94419ZM30.6243 10.4822L29.9172 11.1893L29.9172 11.1893L30.6243 10.4822ZM31.5178 11.3757L32.2249 10.6686L32.2249 10.6686L31.5178 11.3757ZM32.0558 12.0128L32.9733 11.6152L32.9733 11.6152L32.0558 12.0128ZM32.0908 12.7146L33.0434 13.019L33.0434 13.0189L32.0908 12.7146ZM31.6188 13.4021L30.8449 12.7689L30.8449 12.7689L31.6188 13.4021ZM30.7975 14.6406L29.8064 14.5072L29.8064 14.5072L30.7975 14.6406ZM31.182 15.5689L30.5755 16.364L30.5755 16.364L31.182 15.5689ZM32.6385 15.8639L32.738 14.8688L32.6385 15.8639ZM33.4584 16.0162L33.9168 15.1275L33.9168 15.1275L33.4584 16.0162ZM33.9299 16.5373L34.8599 16.1696L34.8599 16.1696L33.9299 16.5373ZM33.93 19.4626L33 19.095L33 19.095L33.93 19.4626ZM33.4583 19.9838L33.9166 20.8726L33.9166 20.8726L33.4583 19.9838ZM32.6386 20.1361L32.5391 19.1411L32.5065 19.1444L32.4742 19.1497L32.6386 20.1361ZM32.6386 20.1361L32.7381 21.1312L32.7707 21.1279L32.803 21.1225L32.6386 20.1361ZM31.1825 20.4309L30.5762 19.6357L30.5762 19.6357L31.1825 20.4309ZM30.7979 21.3596L29.8068 21.4931V21.4931L30.7979 21.3596ZM31.619 22.5976L30.845 23.2308H30.845L31.619 22.5976ZM32.0908 23.2848L31.1383 23.5892V23.5892L32.0908 23.2848ZM32.0558 23.9869L31.1383 23.5892L31.1383 23.5892L32.0558 23.9869ZM31.5179 24.6238L32.225 25.3309H32.225L31.5179 24.6238ZM30.6243 25.5174L29.9172 24.8102L29.9172 24.8103L30.6243 25.5174ZM29.9873 26.0554L30.3849 26.9729L30.3849 26.9729L29.9873 26.0554ZM29.2854 26.0904L28.981 27.0429L28.981 27.0429L29.2854 26.0904ZM28.5979 25.6184L29.2312 24.8444L29.2226 24.8376L28.5979 25.6184ZM28.5979 25.6184L27.9646 26.3924L27.9732 26.3993L28.5979 25.6184ZM27.3595 24.7971L27.4928 23.806H27.4928L27.3595 24.7971ZM26.4311 25.1816L27.2262 25.7882L27.2262 25.7881L26.4311 25.1816ZM26.1362 26.6383L25.1411 26.5388V26.5388L26.1362 26.6383ZM25.9837 27.4585L25.095 27L25.095 27L25.9837 27.4585ZM25.4628 27.9299L25.095 27L25.095 27L25.4628 27.9299ZM22.5373 27.9299L22.905 27L22.5373 27.9299ZM22.0162 27.4584L22.905 27H22.905L22.0162 27.4584ZM21.8639 26.6385L20.8688 26.7381V26.7381L21.8639 26.6385ZM21.5689 25.182L20.7739 25.7885L20.7739 25.7885L21.5689 25.182ZM20.6406 24.7975L20.5073 23.8064H20.5073L20.6406 24.7975ZM19.4021 25.6189L18.7688 24.8449L18.753 24.8579L18.7377 24.8714L19.4021 25.6189ZM19.4021 25.6189L20.0353 26.3928L20.0511 26.3799L20.0664 26.3663L19.4021 25.6189ZM18.7146 26.0908L19.0189 27.0434H19.0189L18.7146 26.0908ZM18.0127 26.0558L17.6152 26.9734H17.6152L18.0127 26.0558ZM17.3756 25.5178L18.0827 24.8107H18.0827L17.3756 25.5178ZM16.4822 24.6243L15.7751 25.3315L15.7751 25.3315L16.4822 24.6243ZM15.9441 23.9873L16.8617 23.5897L16.8617 23.5897L15.9441 23.9873ZM15.9091 23.2854L16.8617 23.5897L16.8617 23.5897L15.9091 23.2854ZM16.3811 22.5979L17.1551 23.2311H17.1551L16.3811 22.5979ZM17.2025 21.3594L18.1935 21.4928L17.2025 21.3594ZM16.8179 20.4311L17.4244 19.636L17.4244 19.636L16.8179 20.4311ZM15.3614 20.1361L15.2619 21.1312H15.2619L15.3614 20.1361ZM14.5416 19.9838L15 19.095H15L14.5416 19.9838ZM14.07 19.4627L13.1401 19.8304L13.1401 19.8304L14.07 19.4627ZM14.0701 16.5372L13.1402 16.1694L13.1402 16.1694L14.0701 16.5372ZM14.5415 16.0163L14.083 15.1276L14.083 15.1276L14.5415 16.0163ZM15.3616 15.8638V14.8638H15.3117L15.262 14.8688L15.3616 15.8638ZM15.3616 15.8638V16.8638H15.4114L15.4611 16.8589L15.3616 15.8638ZM16.8184 15.5688L16.2118 14.7738L16.2118 14.7738L16.8184 15.5688ZM17.2029 14.6407L18.194 14.5075L18.194 14.5075L17.2029 14.6407ZM16.3813 13.4018L17.1552 12.7686H17.1552L16.3813 13.4018ZM15.9091 12.7141L16.8618 12.4099L16.8618 12.4099L15.9091 12.7141ZM15.9441 12.0124L15.0265 11.615L15.0265 11.615L15.9441 12.0124ZM16.4823 11.3751L17.1894 12.0822H17.1894L16.4823 11.3751ZM17.3757 10.4818L16.6685 9.77466V9.77466L17.3757 10.4818ZM18.0128 9.94373L17.6152 9.02615L17.6152 9.02616L18.0128 9.94373ZM18.7146 9.90872L19.0189 8.95614V8.95614L18.7146 9.90872ZM19.4022 10.3808L20.0354 9.60681V9.60681L19.4022 10.3808ZM20.6404 11.2021L20.7739 10.211L20.6404 11.2021ZM21.5691 10.8174L20.7739 10.211L20.7739 10.211L21.5691 10.8174ZM21.8639 9.36131L22.8589 9.46081V9.46081L21.8639 9.36131ZM22.0162 8.5417L21.1274 8.08341L21.1274 8.08341L22.0162 8.5417ZM22.5374 8.07001L22.905 9L22.905 9L22.5374 8.07001ZM25.4627 8.07005L25.8304 7.1401V7.1401L25.4627 8.07005ZM27.1312 9.26194C27.1108 9.05831 27.0912 8.85693 27.0626 8.6868C27.0324 8.50684 26.9828 8.29705 26.8725 8.08322L25.095 9C25.0721 8.95549 25.0769 8.93878 25.0902 9.01798C25.1052 9.10701 25.1181 9.23089 25.1411 9.46094L27.1312 9.26194ZM27.2261 10.2114C27.2894 10.2943 27.2693 10.331 27.2342 10.136C27.2008 9.95045 27.1739 9.68915 27.1312 9.26194L25.1411 9.46094C25.1805 9.85459 25.2152 10.2089 25.2658 10.4902C25.3147 10.7618 25.4009 11.1163 25.636 11.4244L27.2261 10.2114ZM27.2261 10.2114L27.2261 10.2114L25.636 11.4244C26.0718 11.9958 26.7806 12.2894 27.4928 12.1936L27.2261 10.2114ZM27.9646 9.60717C27.6323 9.87905 27.4286 10.0448 27.2738 10.1524C27.1111 10.2655 27.1228 10.2253 27.2261 10.2114L27.4928 12.1936C27.8768 12.1419 28.1885 11.9522 28.4152 11.7947C28.6498 11.6316 28.9249 11.4056 29.2311 11.1551L27.9646 9.60717ZM28.981 8.95661C28.7518 9.02983 28.5684 9.14308 28.4198 9.24897C28.2793 9.34907 28.123 9.47759 27.9646 9.60717L29.2311 11.1551C29.41 11.0087 29.5068 10.9302 29.5803 10.8778C29.6457 10.8312 29.6373 10.8465 29.5896 10.8618L28.981 8.95661ZM30.3848 9.02663C29.9408 8.83421 29.442 8.80934 28.981 8.95661L29.5896 10.8618L29.5896 10.8618L30.3848 9.02663ZM31.3314 9.77509C31.1867 9.6304 31.044 9.48696 30.9142 9.37338C30.7768 9.25323 30.6056 9.12228 30.3848 9.02663L29.5896 10.8618C29.5437 10.8418 29.5369 10.8258 29.5973 10.8787C29.6653 10.9381 29.7537 11.0258 29.9172 11.1893L31.3314 9.77509ZM32.2249 10.6686L31.3314 9.77509L29.9172 11.1893L30.8107 12.0828L32.2249 10.6686ZM32.9733 11.6152C32.8777 11.3944 32.7467 11.2232 32.6266 11.0858C32.513 10.956 32.3696 10.8133 32.2249 10.6686L30.8106 12.0828C30.9741 12.2463 31.0618 12.3347 31.1213 12.4026C31.1742 12.4631 31.1581 12.4563 31.1382 12.4103L32.9733 11.6152ZM33.0434 13.0189C33.1906 12.558 33.1658 12.0592 32.9733 11.6152L31.1382 12.4103L31.1382 12.4103L33.0434 13.0189ZM32.3928 14.0353C32.5224 13.877 32.6509 13.7207 32.751 13.5802C32.8569 13.4316 32.9701 13.2481 33.0434 13.019L31.1382 12.4103C31.1535 12.3626 31.1687 12.3543 31.1221 12.4197C31.0697 12.4932 30.9913 12.5899 30.8449 12.7689L32.3928 14.0353ZM31.7885 14.7739C31.7746 14.8772 31.7345 14.8889 31.8476 14.7262C31.9551 14.5714 32.1209 14.3676 32.3928 14.0353L30.8449 12.7689C30.5943 13.0751 30.3683 13.3502 30.2052 13.5848C30.0477 13.8115 29.8581 14.1232 29.8064 14.5072L31.7885 14.7739ZM31.7885 14.7739V14.7739L29.8064 14.5072C29.7106 15.2194 30.0042 15.9282 30.5755 16.364L31.7885 14.7739ZM32.738 14.8688C32.3108 14.8261 32.0495 14.7992 31.864 14.7658C31.6689 14.7307 31.7056 14.7106 31.7885 14.7739L30.5755 16.364C30.8836 16.599 31.2381 16.6853 31.5098 16.7342C31.791 16.7848 32.1454 16.8195 32.539 16.8589L32.738 14.8688ZM33.9168 15.1275C33.703 15.0172 33.4932 14.9676 33.3132 14.9374C33.1431 14.9088 32.9417 14.8892 32.738 14.8688L32.539 16.8589C32.7691 16.8819 32.893 16.8948 32.982 16.9098C33.0612 16.9231 33.0445 16.9279 33 16.905L33.9168 15.1275ZM34.8599 16.1696C34.682 15.7196 34.3469 15.3493 33.9168 15.1275L33 16.905L33 16.905L34.8599 16.1696ZM35 17.3682C35 17.1636 35.0005 16.9613 34.989 16.7891C34.9769 16.607 34.9484 16.3933 34.8599 16.1696L33 16.905C32.9816 16.8584 32.9881 16.8423 32.9935 16.9224C32.9995 17.0125 33 17.137 33 17.3682H35ZM35 18.6319V17.3682H33V18.6319H35ZM34.86 19.8302C34.9484 19.6065 34.9769 19.3929 34.989 19.2108C35.0005 19.0388 35 18.8365 35 18.6319H33C33 18.863 32.9995 18.9875 32.9935 19.0776C32.9881 19.1577 32.9816 19.1416 33 19.095L34.86 19.8302ZM33.9166 20.8726C34.3469 20.6507 34.682 20.2804 34.86 19.8302L33 19.095V19.095L33.9166 20.8726ZM32.7381 21.1312C32.9417 21.1108 33.1431 21.0912 33.3132 21.0626C33.4931 21.0324 33.7028 20.9828 33.9166 20.8726L33 19.095C33.0445 19.0721 33.0612 19.077 32.982 19.0902C32.893 19.1052 32.7691 19.1181 32.5391 19.1411L32.7381 21.1312ZM32.803 21.1225L32.803 21.1225L32.4742 19.1497L32.4742 19.1497L32.803 21.1225ZM31.7889 21.2261C31.706 21.2893 31.6693 21.2692 31.8644 21.2341C32.0498 21.2007 32.311 21.1739 32.7381 21.1312L32.5391 19.1411C32.1456 19.1805 31.7913 19.2151 31.5102 19.2657C31.2386 19.3146 30.8842 19.4008 30.5762 19.6357L31.7889 21.2261ZM31.7889 21.2261L31.7889 21.2261L30.5762 19.6357C30.0046 20.0716 29.7108 20.7807 29.8068 21.4931L31.7889 21.2261ZM32.3929 21.9643C32.1212 21.6322 31.9555 21.4285 31.8479 21.2738C31.7348 21.1111 31.775 21.1228 31.7889 21.2261L29.8068 21.4931C29.8585 21.877 30.0481 22.1886 30.2056 22.4152C30.3686 22.6497 30.5946 22.9247 30.845 23.2308L32.3929 21.9643ZM33.0433 22.9803C32.9701 22.7513 32.8569 22.5679 32.751 22.4193C32.651 22.2789 32.5225 22.1227 32.3929 21.9643L30.845 23.2308C30.9914 23.4097 31.0698 23.5064 31.1222 23.5799C31.1688 23.6453 31.1535 23.6369 31.1383 23.5892L33.0433 22.9803ZM32.9733 24.3846C33.1658 23.9404 33.1907 23.4415 33.0433 22.9803L31.1383 23.5892L31.1383 23.5892L32.9733 24.3846ZM32.225 25.3309C32.3697 25.1862 32.5131 25.0436 32.6266 24.9138C32.7467 24.7765 32.8776 24.6053 32.9733 24.3846L31.1383 23.5892C31.1582 23.5433 31.1742 23.5365 31.1213 23.5969C31.0619 23.6648 30.9742 23.7532 30.8108 23.9167L32.225 25.3309ZM31.3314 26.2245L32.225 25.3309L30.8108 23.9167L29.9172 24.8102L31.3314 26.2245ZM30.3849 26.9729C30.6056 26.8773 30.7769 26.7463 30.9142 26.6262C31.044 26.5126 31.1867 26.3692 31.3314 26.2245L29.9172 24.8103C29.7537 24.9737 29.6653 25.0614 29.5974 25.1209C29.5369 25.1737 29.5437 25.1577 29.5897 25.1378L30.3849 26.9729ZM28.981 27.0429C29.442 27.1902 29.9408 27.1653 30.3849 26.9729L29.5897 25.1378H29.5897L28.981 27.0429ZM27.9647 26.3924C28.1231 26.522 28.2793 26.6505 28.4198 26.7506C28.5684 26.8565 28.7519 26.9697 28.981 27.0429L29.5897 25.1378C29.6374 25.153 29.6457 25.1683 29.5803 25.1217C29.5068 25.0693 29.4101 24.9909 29.2312 24.8445L27.9647 26.3924ZM27.9732 26.3993L27.9732 26.3993L29.2226 24.8376L29.2226 24.8375L27.9732 26.3993ZM27.2262 25.7881C27.1228 25.7742 27.1111 25.7341 27.2738 25.8472C27.4286 25.9547 27.6324 26.1205 27.9647 26.3924L29.2311 24.8445C28.925 24.5939 28.6499 24.3679 28.4152 24.2048C28.1886 24.0473 27.8769 23.8577 27.4928 23.806L27.2262 25.7881ZM27.2262 25.7881H27.2262L27.4928 23.806C26.7807 23.7102 26.0719 24.0038 25.636 24.5751L27.2262 25.7881ZM27.1312 26.7378C27.1739 26.3105 27.2008 26.0492 27.2342 25.8636C27.2693 25.6685 27.2894 25.7052 27.2262 25.7882L25.636 24.5751C25.401 24.8832 25.3147 25.2378 25.2658 25.5094C25.2152 25.7907 25.1805 26.1451 25.1411 26.5388L27.1312 26.7378ZM26.8724 27.917C26.9828 27.7031 27.0324 27.4932 27.0626 27.3132C27.0912 27.143 27.1108 26.9415 27.1312 26.7378L25.1411 26.5388C25.1181 26.769 25.1052 26.8929 25.0902 26.982C25.0769 27.0612 25.072 27.0445 25.095 27L26.8724 27.917ZM25.8306 28.8598C26.2805 28.6819 26.6506 28.3469 26.8724 27.917L25.095 27L25.095 27L25.8306 28.8598ZM24.6316 29C24.8363 29 25.0387 29.0005 25.2109 28.989C25.393 28.9768 25.6068 28.9483 25.8306 28.8598L25.095 27C25.1416 26.9816 25.1577 26.9881 25.0776 26.9935C24.9875 26.9995 24.8629 27 24.6316 27V29ZM23.3682 29H24.6316V27H23.3682V29ZM22.1696 28.8599C22.3933 28.9484 22.607 28.9769 22.7891 28.989C22.9613 29.0005 23.1636 29 23.3682 29V27C23.137 27 23.0125 26.9995 22.9224 26.9935C22.8423 26.9881 22.8584 26.9816 22.905 27L22.1696 28.8599ZM21.1275 27.9168C21.3493 28.3469 21.7196 28.682 22.1696 28.8599L22.905 27L21.1275 27.9168ZM20.8688 26.7381C20.8892 26.9417 20.9088 27.1431 20.9374 27.3132C20.9676 27.4932 21.0172 27.703 21.1275 27.9168L22.905 27C22.9279 27.0445 22.9231 27.0612 22.9098 26.982C22.8948 26.893 22.8819 26.7691 22.8589 26.539L20.8688 26.7381ZM20.7739 25.7885C20.7106 25.7056 20.7307 25.6689 20.7658 25.864C20.7992 26.0495 20.8261 26.3108 20.8688 26.7381L22.8589 26.539C22.8195 26.1454 22.7848 25.791 22.7342 25.5098C22.6853 25.2381 22.599 24.8836 22.364 24.5755L20.7739 25.7885ZM20.7739 25.7885L22.364 24.5755C21.9282 24.0042 21.2194 23.7106 20.5073 23.8064L20.7739 25.7885ZM20.0353 26.3928C20.3676 26.1209 20.5714 25.9551 20.7262 25.8476C20.8889 25.7345 20.8772 25.7746 20.7739 25.7885L20.5073 23.8064C20.1232 23.858 19.8115 24.0477 19.5848 24.2052C19.3502 24.3683 19.075 24.5944 18.7688 24.8449L20.0353 26.3928ZM20.0664 26.3663L20.0664 26.3663L18.7377 24.8714L18.7377 24.8715L20.0664 26.3663ZM19.0189 27.0434C19.2481 26.9702 19.4315 26.8569 19.5801 26.751C19.7206 26.6509 19.8769 26.5224 20.0353 26.3928L18.7688 24.8449C18.5899 24.9913 18.4932 25.0698 18.4196 25.1222C18.3542 25.1688 18.3626 25.1535 18.4103 25.1383L19.0189 27.0434ZM17.6152 26.9734C18.0592 27.1658 18.5579 27.1907 19.0189 27.0434L18.4103 25.1383L18.4103 25.1383L17.6152 26.9734ZM16.6685 26.2249C16.8132 26.3696 16.9559 26.513 17.0858 26.6266C17.2231 26.7468 17.3944 26.8777 17.6152 26.9734L18.4103 25.1383C18.4562 25.1582 18.463 25.1742 18.4026 25.1213C18.3346 25.0619 18.2462 24.9742 18.0827 24.8107L16.6685 26.2249ZM15.7751 25.3315L16.6685 26.2249L18.0827 24.8107L17.1893 23.9172L15.7751 25.3315ZM15.0266 24.3848C15.1222 24.6056 15.2532 24.7768 15.3733 24.9142C15.4869 25.044 15.6304 25.1868 15.7751 25.3315L17.1893 23.9172C17.0258 23.7538 16.9381 23.6653 16.8786 23.5974C16.8258 23.5369 16.8418 23.5437 16.8617 23.5897L15.0266 24.3848ZM14.9566 22.9811C14.8093 23.4421 14.8342 23.9408 15.0266 24.3848L16.8617 23.5897V23.5897L14.9566 22.9811ZM15.6071 21.9647C15.4776 22.123 15.349 22.2793 15.2489 22.4198C15.143 22.5684 15.0298 22.7519 14.9566 22.9811L16.8617 23.5897C16.8465 23.6374 16.8312 23.6457 16.8778 23.5803C16.9302 23.5068 17.0087 23.4101 17.1551 23.2311L15.6071 21.9647ZM16.2114 21.2261C16.2253 21.1228 16.2655 21.1111 16.1524 21.2738C16.0448 21.4286 15.879 21.6324 15.6071 21.9647L17.1551 23.2311C17.4056 22.9249 17.6316 22.6498 17.7947 22.4152C17.9522 22.1885 18.1419 21.8768 18.1935 21.4928L16.2114 21.2261ZM16.2114 21.2261L16.2114 21.2261L18.1935 21.4928C18.2893 20.7806 17.9957 20.0718 17.4244 19.636L16.2114 21.2261ZM15.2619 21.1312C15.6891 21.1739 15.9504 21.2008 16.1359 21.2342C16.331 21.2693 16.2943 21.2894 16.2114 21.2261L17.4244 19.636C17.1163 19.4009 16.7618 19.3147 16.4902 19.2658C16.2089 19.2152 15.8546 19.1805 15.4609 19.1411L15.2619 21.1312ZM14.0832 20.8725C14.297 20.9828 14.5068 21.0324 14.6868 21.0626C14.8569 21.0912 15.0583 21.1108 15.2619 21.1312L15.4609 19.1411C15.2309 19.1181 15.107 19.1052 15.018 19.0902C14.9388 19.0769 14.9555 19.0721 15 19.095L14.0832 20.8725ZM13.1401 19.8304C13.318 20.2804 13.6531 20.6507 14.0832 20.8725L15 19.095H15L13.1401 19.8304ZM13 18.6318C13 18.8364 12.9995 19.0387 13.011 19.2109C13.0231 19.393 13.0516 19.6066 13.1401 19.8304L15 19.095C15.0184 19.1416 15.0119 19.1577 15.0065 19.0776C15.0005 18.9875 15 18.863 15 18.6318H13ZM13 17.3683V18.6318H15V17.3683H13ZM13.1402 16.1694C13.0517 16.3932 13.0232 16.607 13.011 16.7891C12.9995 16.9613 13 17.1637 13 17.3683H15C15 17.1371 15.0005 17.0125 15.0065 16.9224C15.0119 16.8423 15.0184 16.8584 15 16.905L13.1402 16.1694ZM14.083 15.1276C13.6531 15.3494 13.3181 15.7195 13.1402 16.1694L15 16.905L15 16.905L14.083 15.1276ZM15.262 14.8688C15.0584 14.8892 14.8569 14.9088 14.6868 14.9374C14.5068 14.9676 14.2969 15.0172 14.083 15.1276L15 16.905C14.9555 16.928 14.9388 16.9231 15.018 16.9098C15.107 16.8948 15.2309 16.8819 15.4611 16.8589L15.262 14.8688ZM15.3616 14.8638H15.3616V16.8638H15.3616V14.8638ZM15.3616 14.8638H15.3616V16.8638H15.3616V14.8638ZM16.2118 14.7738C16.2947 14.7105 16.3314 14.7307 16.1363 14.7658C15.9507 14.7992 15.6894 14.8261 15.2621 14.8688L15.4611 16.8589C15.8548 16.8195 16.2093 16.7848 16.4906 16.7342C16.7623 16.6853 17.1169 16.5989 17.4251 16.3638L16.2118 14.7738ZM16.2118 14.7738L16.2118 14.7738L17.4251 16.3638C17.9961 15.928 18.2896 15.2194 18.194 14.5075L16.2118 14.7738ZM15.6073 14.0351C15.8793 14.3675 16.0451 14.5713 16.1527 14.7261C16.2659 14.8889 16.2257 14.8772 16.2118 14.7738L18.194 14.5075C18.1423 14.1233 17.9526 13.8115 17.7951 13.5848C17.6319 13.3501 17.4058 13.0749 17.1552 12.7686L15.6073 14.0351ZM14.9565 13.0182C15.0297 13.2475 15.143 13.431 15.249 13.5797C15.3491 13.7203 15.4777 13.8766 15.6073 14.0351L17.1552 12.7686C17.0088 12.5896 16.9303 12.4928 16.8779 12.4192C16.8312 12.3538 16.8465 12.3622 16.8618 12.4099L14.9565 13.0182ZM15.0265 11.615C14.8342 12.0589 14.8094 12.5574 14.9565 13.0182L16.8618 12.4099L15.0265 11.615ZM15.7752 10.668C15.6305 10.8127 15.487 10.9555 15.3734 11.0854C15.2532 11.2228 15.1222 11.3941 15.0265 11.615L16.8618 12.4099C16.8418 12.4559 16.8258 12.4627 16.8787 12.4022C16.9382 12.3342 17.0259 12.2457 17.1894 12.0822L15.7752 10.668ZM16.6685 9.77466L15.7752 10.668L17.1894 12.0822L18.0828 11.1889L16.6685 9.77466ZM16.6685 9.77466L16.6685 9.77466L18.0828 11.1889L18.0828 11.1889L16.6685 9.77466ZM17.6152 9.02616C17.3944 9.12181 17.2232 9.25276 17.0858 9.37292C16.956 9.48651 16.8133 9.62995 16.6685 9.77466L18.0828 11.1889C18.2463 11.0254 18.3347 10.9377 18.4026 10.8782C18.4631 10.8254 18.4563 10.8414 18.4103 10.8613L17.6152 9.02616ZM19.0189 8.95614C18.558 8.80889 18.0592 8.83377 17.6152 9.02615L18.4103 10.8613H18.4103L19.0189 8.95614ZM20.0354 9.60681C19.877 9.47719 19.7207 9.34865 19.5802 9.24853C19.4316 9.14264 19.2481 9.02936 19.0189 8.95614L18.4103 10.8613C18.3626 10.8461 18.3543 10.8308 18.4197 10.8774C18.4932 10.9298 18.59 11.0083 18.769 11.1547L20.0354 9.60681ZM20.7739 10.211C20.8773 10.2249 20.889 10.2651 20.7262 10.152C20.5714 10.0444 20.3677 9.87865 20.0354 9.60681L18.769 11.1547C19.0751 11.4052 19.3502 11.6312 19.5848 11.7943C19.8114 11.9518 20.123 12.1414 20.507 12.1931L20.7739 10.211ZM20.7739 10.211L20.7739 10.211L20.507 12.1931C21.2193 12.2891 21.9284 11.9954 22.3642 11.4238L20.7739 10.211ZM20.8688 9.2618C20.8261 9.6889 20.7993 9.95012 20.7659 10.1356C20.7308 10.3306 20.7107 10.2939 20.7739 10.211L22.3642 11.4238C22.5992 11.1158 22.6854 10.7614 22.7343 10.4898C22.7849 10.2086 22.8196 9.85435 22.8589 9.46081L20.8688 9.2618ZM21.1274 8.08341C21.0172 8.29719 20.9676 8.50692 20.9374 8.68683C20.9088 8.85692 20.8892 9.05824 20.8688 9.2618L22.8589 9.46081C22.8819 9.23082 22.8948 9.10698 22.9098 9.01798C22.923 8.9388 22.9279 8.9555 22.905 9L21.1274 8.08341ZM22.1698 7.14002C21.7196 7.31796 21.3492 7.65315 21.1274 8.08341L22.905 9L22.905 9L22.1698 7.14002ZM23.3681 7C23.1635 7 22.9612 6.99948 22.7892 7.01097C22.6071 7.02313 22.3935 7.05161 22.1698 7.14002L22.905 9C22.8584 9.0184 22.8423 9.01188 22.9224 9.00653C23.0125 9.00052 23.137 9 23.3681 9V7ZM24.6318 7H23.3681V9H24.6318V7ZM25.8304 7.1401C25.6066 7.05163 25.393 7.02314 25.2109 7.01098C25.0387 6.99948 24.8364 7 24.6318 7V9C24.863 9 24.9875 9.00052 25.0776 9.00653C25.1577 9.01188 25.1416 9.01841 25.095 9L25.8304 7.1401ZM26.8725 8.08322C26.6507 7.65312 26.2804 7.31803 25.8304 7.1401L25.095 9L25.095 9L26.8725 8.08322ZM27 18C27 19.6569 25.6569 21 24 21V23C26.7614 23 29 20.7614 29 18H27ZM24 15C25.6569 15 27 16.3431 27 18H29C29 15.2386 26.7614 13 24 13V15ZM21 18C21 16.3431 22.3431 15 24 15V13C21.2386 13 19 15.2386 19 18H21ZM24 21C22.3431 21 21 19.6569 21 18H19C19 20.7614 21.2386 23 24 23V21Z" fill="#EFF4DA"/>
</svg>
