<svg width="122" height="116" viewBox="0 0 122 116" fill="none" xmlns="http://www.w3.org/2000/svg">
<path d="M29 58C45.0163 58 58 45.0163 58 29C58 12.9837 45.0163 0 29 0C12.9837 0 0 12.9837 0 29C0 45.0163 12.9837 58 29 58Z" fill="#2D360C"/>
<path d="M45.7857 30.4762C46.5714 29.6905 46.5714 29.4286 45.7857 28.6429L34.6512 21.7147C34.1602 21.352 33.9527 21.3873 33.6857 21.8333L30.8571 26.5476C30.6476 27.5952 31.119 27.6825 31.3809 27.5952H32.6905C33.9476 27.5952 34.0873 26.8968 34 26.5476C34.2095 24.4524 35.1349 24.9762 35.5714 25.5L39.5 29.6905C39.0634 30.2143 37.1428 31.7857 35.8333 33.0952C34.2402 34.6883 33.7381 32.8333 34 32.0476C34.2095 31.419 33.9127 31.0873 33.7381 31H31.6429C30.8048 31 30.7698 31.3492 30.8571 31.5238C31.4683 32.746 32.8476 35.4524 33.4762 36.5C34.1048 37.5476 34.9603 37.1111 35.3095 36.7619C38.2778 35.0159 43.6904 31.7857 45.7857 30.4762Z" fill="#F9FFD9"/>
<path d="M20.096 12.8506C19.0227 12.563 18.7959 12.694 18.5083 13.7673L18.0756 26.8741C18.0069 27.4806 18.1413 27.6427 18.661 27.6509L24.158 27.7434C25.17 27.401 25.0099 26.9491 24.8034 26.766L24.1486 25.6319C23.52 24.5432 22.8453 24.7714 22.5866 25.0216C20.6673 25.8878 20.6582 24.8245 20.8936 24.1845L22.5584 18.6871C23.2303 18.8032 25.5515 19.6808 27.3403 20.1601C29.5165 20.7432 28.1611 22.1056 27.3497 22.2716C26.7006 22.4044 26.5617 22.8274 26.5734 23.0223L27.621 24.8368C28.0401 25.5626 28.3599 25.4182 28.4675 25.2553C29.2204 24.115 30.8745 21.5672 31.4675 20.4991C32.0605 19.4309 31.2547 18.9082 30.7776 18.7804C27.7814 17.0828 22.2777 14.0104 20.096 12.8506Z" fill="#F9FFD9"/>
<path d="M20.096 45.3349C19.0227 45.6225 18.7959 45.4915 18.5083 44.4182L18.0756 31.3115C18.0069 30.7049 18.1413 30.5428 18.661 30.5346L24.158 30.4421C25.17 30.7845 25.0099 31.2364 24.8034 31.4196L24.1486 32.5536C23.52 33.6424 22.8453 33.4141 22.5866 33.1639C20.6673 32.2978 20.6582 33.3611 20.8936 34.001L22.5584 39.4985C23.2303 39.3823 25.5515 38.5047 27.3403 38.0254C29.5165 37.4423 28.1611 36.08 27.3497 35.9139C26.7006 35.7811 26.5617 35.3582 26.5734 35.1633L27.621 33.3488C28.0401 32.623 28.3599 32.7673 28.4675 32.9302C29.2204 34.0706 30.8745 36.6183 31.4675 37.6865C32.0605 38.7546 31.2547 39.2773 30.7776 39.4051C27.7814 41.1027 22.2777 44.1751 20.096 45.3349Z" fill="#34B37C"/>
<g style="mix-blend-mode:multiply" opacity="0.1">
<path fill-rule="evenodd" clip-rule="evenodd" d="M29 3C14.6406 3 3 14.6406 3 29C3 43.3594 14.6406 55 29 55C43.3594 55 55 43.3594 55 29C55 14.6406 43.3594 3 29 3ZM0 29C0 12.9837 12.9837 0 29 0C45.0163 0 58 12.9837 58 29C58 45.0163 45.0163 58 29 58C12.9837 58 0 45.0163 0 29Z" fill="#191326"/>
</g>
<path d="M78.5 116C102.524 116 122 96.5244 122 72.5C122 48.4756 102.524 29 78.5 29C54.4756 29 35 48.4756 35 72.5C35 96.5244 54.4756 116 78.5 116Z" fill="url(#paint0_linear)"/>
<g clip-path="url(#clip0)">
<path fill-rule="evenodd" clip-rule="evenodd" d="M79.4732 69.1189C78.9463 71.3059 77.5723 73.0671 75.7834 74.138C76.8996 75.8889 77.3357 77.992 76.8351 80.0696C76.4007 81.8726 75.3296 83.3715 73.8834 84.4228C73.6901 85.8498 73.2137 87.3425 72.4405 88.7841C69.9284 93.4676 65.2343 95.8389 61.9558 94.0805C58.6773 92.322 58.056 87.0998 60.5681 82.4162C60.6395 82.283 60.7128 82.1516 60.7877 82.0221C59.5913 80.2389 59.1104 78.0678 59.627 75.9238C60.2232 73.4489 62.0192 71.547 64.3381 70.5893C63.6104 69.0058 63.3896 67.1756 63.8295 65.35C64.8702 61.0301 69.2159 58.3718 73.5358 59.4125C77.8557 60.4533 80.514 64.799 79.4732 69.1189Z" fill="url(#paint1_linear)"/>
<path fill-rule="evenodd" clip-rule="evenodd" d="M90.6308 74.0317C91.9431 71.9484 92.4498 69.3597 91.8367 66.7747C90.6259 61.669 85.5053 58.5117 80.3996 59.7225C75.2939 60.9334 72.1365 66.0539 73.3474 71.1596C73.8591 73.3172 75.0689 75.1268 76.6808 76.4059C74.7498 78.6531 73.8738 81.6154 74.5676 84.5406C75.1686 87.0747 76.8347 89.1047 79.0473 90.3438C79.0375 90.5202 79.0305 90.6977 79.0264 90.8762C78.8818 97.1506 82.3251 102.319 86.7172 102.42C91.1093 102.521 94.787 97.5171 94.9315 91.2427C94.976 89.3111 94.6805 87.4844 94.122 85.878C95.0836 83.9986 95.4112 81.848 94.9058 79.7172C94.3235 77.2618 92.7412 75.2797 90.6308 74.0317Z" fill="url(#paint2_linear)"/>
<ellipse cx="80.0402" cy="45.4157" rx="2.85032" ry="7.60087" transform="rotate(18.8887 80.0402 45.4157)" fill="url(#paint3_linear)"/>
<ellipse cx="90.4601" cy="53.4878" rx="1.88016" ry="5.79327" transform="rotate(73.8516 90.4601 53.4878)" fill="url(#paint4_linear)"/>
<ellipse cx="69.2054" cy="51.8489" rx="1.88016" ry="5.79327" transform="rotate(127.97 69.2054 51.8489)" fill="url(#paint5_linear)"/>
</g>
<g style="mix-blend-mode:multiply" opacity="0.2">
<path fill-rule="evenodd" clip-rule="evenodd" d="M78.5 31.8365C56.0421 31.8365 37.8365 50.0422 37.8365 72.5C37.8365 94.9578 56.0421 113.163 78.5 113.163C100.958 113.163 119.163 94.9578 119.163 72.5C119.163 50.0422 100.958 31.8365 78.5 31.8365ZM34.9995 72.5C34.9995 48.4753 54.4753 28.9995 78.5 28.9995C102.525 28.9995 122 48.4753 122 72.5C122 96.5246 102.525 116 78.5 116C54.4753 116 34.9995 96.5246 34.9995 72.5Z" fill="#191326"/>
</g>
<defs>
<linearGradient id="paint0_linear" x1="78.5" y1="29" x2="78.5" y2="116" gradientUnits="userSpaceOnUse">
<stop stop-color="#4E5828"/>
<stop offset="1" stop-color="#2B330F"/>
</linearGradient>
<linearGradient id="paint1_linear" x1="69.3622" y1="59.1869" x2="69.3622" y2="94.6609" gradientUnits="userSpaceOnUse">
<stop offset="0.0833333" stop-color="#C3ED2D"/>
<stop offset="1" stop-color="#B0D235"/>
</linearGradient>
<linearGradient id="paint2_linear" x1="80.3995" y1="59.7225" x2="84.7845" y2="78.2118" gradientUnits="userSpaceOnUse">
<stop offset="0.015625" stop-color="#DEFB76"/>
<stop offset="1" stop-color="#C2EF20"/>
</linearGradient>
<linearGradient id="paint3_linear" x1="80.0401" y1="37.8148" x2="80.0401" y2="53.0165" gradientUnits="userSpaceOnUse">
<stop stop-color="#8ED476"/>
<stop offset="1" stop-color="#7BD55D"/>
</linearGradient>
<linearGradient id="paint4_linear" x1="90.4601" y1="47.6945" x2="90.4601" y2="59.281" gradientUnits="userSpaceOnUse">
<stop stop-color="#8ED476"/>
<stop offset="1" stop-color="#7BD55D"/>
</linearGradient>
<linearGradient id="paint5_linear" x1="69.2054" y1="46.0556" x2="69.2054" y2="57.6422" gradientUnits="userSpaceOnUse">
<stop stop-color="#8ED476"/>
<stop offset="1" stop-color="#7BD55D"/>
</linearGradient>
<clipPath id="clip0">
<rect width="72" height="72" fill="white" transform="translate(42 36)"/>
</clipPath>
</defs>
</svg>
