<svg width="193" height="230" viewBox="0 0 193 230" fill="none" xmlns="http://www.w3.org/2000/svg">
<g opacity="0.1">
<path fill-rule="evenodd" clip-rule="evenodd" d="M112.526 146.487C121.992 144.047 130.51 137.953 135.784 128.818C146.201 110.775 140.019 87.703 121.976 77.2858C103.933 66.8686 80.8613 73.0506 70.4441 91.0938C66.0419 98.7185 64.604 107.241 65.7728 115.328C54.0732 116.555 43.4712 122.721 37.503 133.059C32.3326 142.014 31.6117 152.416 34.6239 162.024C34.115 162.507 33.6112 163 33.1129 163.505C15.5968 181.229 11.455 205.537 23.862 217.798C36.269 230.059 60.5265 225.631 78.0426 207.907C83.4348 202.45 87.5596 196.37 90.3243 190.209C98.2228 187.403 105.029 182.085 109.377 174.555C114.387 165.878 115.219 155.842 112.526 146.487Z" fill="url(#paint0_linear)"/>
<ellipse rx="11.3172" ry="30.1792" transform="matrix(-0.981255 -0.192715 -0.192715 0.981255 139.701 37.6004)" fill="url(#paint1_linear)"/>
<ellipse rx="7.46517" ry="23.0022" transform="matrix(-0.721137 0.692793 0.692793 0.721137 87.8459 44.6706)" fill="url(#paint2_linear)"/>
<ellipse rx="7.46517" ry="23.0022" transform="matrix(0.13866 0.99034 0.99034 -0.13866 164.185 81.2313)" fill="url(#paint3_linear)"/>
</g>
<defs>
<linearGradient id="paint0_linear" x1="121.976" y1="77.2857" x2="84.2519" y2="142.626" gradientUnits="userSpaceOnUse">
<stop offset="0.015625" stop-color="#DEFB76"/>
<stop offset="1" stop-color="#C2EF20"/>
</linearGradient>
<linearGradient id="paint1_linear" x1="11.3172" y1="0" x2="11.3172" y2="60.3585" gradientUnits="userSpaceOnUse">
<stop stop-color="#8ED576"/>
<stop offset="1" stop-color="#B1E1A0"/>
</linearGradient>
<linearGradient id="paint2_linear" x1="7.46517" y1="0" x2="7.46517" y2="46.0044" gradientUnits="userSpaceOnUse">
<stop stop-color="#8ED576"/>
<stop offset="1" stop-color="#B1E1A0"/>
</linearGradient>
<linearGradient id="paint3_linear" x1="7.46517" y1="0" x2="7.46517" y2="46.0044" gradientUnits="userSpaceOnUse">
<stop stop-color="#8ED576"/>
<stop offset="1" stop-color="#B1E1A0"/>
</linearGradient>
</defs>
</svg>
