<svg width="285" height="219" viewBox="0 0 285 219" fill="none" xmlns="http://www.w3.org/2000/svg">
<path opacity="0.5" d="M32.0482 102.212C31.4847 101.315 30.0995 101.916 30.3712 102.94L31.9726 109.005C32.0768 109.396 31.9128 109.81 31.5701 110.025L26.2566 113.36C25.3597 113.924 25.9607 115.309 26.9849 115.039L33.0506 113.438C33.4415 113.333 33.8549 113.497 34.0701 113.84L37.4054 119.154C37.9688 120.05 39.3541 119.45 39.0823 118.426L37.4809 112.36C37.3768 111.97 37.5408 111.556 37.8834 111.341L43.197 108.006C44.0938 107.442 43.4928 106.057 42.4686 106.327L36.4029 107.928C36.0121 108.032 35.5986 107.868 35.3835 107.526L32.0482 102.212ZM132.875 36.9361C132.312 36.0392 130.926 36.6402 131.196 37.6644L132.798 43.7301C132.902 44.121 132.738 44.5344 132.395 44.7496L127.082 48.0849C126.185 48.6483 126.786 50.0336 127.809 49.7618L133.875 48.1604C134.266 48.0563 134.679 48.2203 134.894 48.5629L138.23 53.8765C138.793 54.7733 140.178 54.1723 139.909 53.1482L138.307 47.0824C138.203 46.6916 138.367 46.2781 138.71 46.063L144.021 42.7285C144.919 42.1646 144.318 40.7794 143.294 41.0515L137.23 42.6521C136.839 42.7563 136.426 42.5923 136.21 42.2496L132.875 36.9361ZM48.4958 34.6279C48.2259 33.6037 49.6111 33.0027 50.1746 33.8995L51.2618 35.6516C51.476 35.9947 51.8899 36.1574 52.2812 36.0541L54.272 35.5175C55.2962 35.2475 55.8972 36.6328 55.0004 37.1963L53.2483 38.2834C52.9052 38.4976 52.7425 38.9116 52.8458 39.3028L53.3825 41.2937C53.6524 42.3179 52.2671 42.9188 51.7036 42.022L50.6165 40.2699C50.4023 39.9269 49.9883 39.7642 49.5971 39.8674L47.6062 40.4041C46.582 40.674 45.9811 39.2888 46.8779 38.7253L48.63 37.6382C48.973 37.4239 49.1357 37.01 49.0325 36.6187L48.4958 34.6279Z" fill="#B8D6A0"/>
<ellipse rx="4.16" ry="5.94286" transform="matrix(0.707107 -0.707107 -0.707107 -0.707107 80.345 72.3368)" fill="#E2D348"/>
<ellipse rx="4.16" ry="5.94286" transform="matrix(0.707107 -0.707107 -0.707107 -0.707107 80.345 72.3368)" fill="url(#paint0_radial)"/>
<ellipse rx="3.06662" ry="4.38089" transform="matrix(-1 0 0 1 58.743 118.954)" fill="#E2D348"/>
<ellipse rx="3.06662" ry="4.38089" transform="matrix(-1 0 0 1 58.743 118.954)" fill="url(#paint1_radial)"/>
<ellipse cx="187.144" cy="64.3368" rx="4.16" ry="5.94286" transform="rotate(-135 187.144 64.3368)" fill="#E2D348"/>
<ellipse cx="187.144" cy="64.3368" rx="4.16" ry="5.94286" transform="rotate(-135 187.144 64.3368)" fill="url(#paint2_radial)"/>
<path opacity="0.5" d="M235.54 94.5853C236.103 93.6885 237.488 94.2895 237.217 95.3128L235.615 101.379C235.511 101.769 235.675 102.183 236.018 102.398L241.331 105.733C242.228 106.297 241.627 107.682 240.603 107.412L234.537 105.811C234.146 105.707 233.733 105.871 233.518 106.213L230.182 111.527C229.619 112.424 228.234 111.823 228.505 110.799L230.107 104.733C230.211 104.343 230.047 103.929 229.704 103.714L224.391 100.379C223.494 99.8153 224.095 98.43 225.119 98.6999L231.185 100.301C231.576 100.406 231.989 100.242 232.204 99.8988L235.54 94.5853ZM219.092 27.001C219.362 25.9768 217.977 25.3758 217.413 26.2727L216.326 28.0247C216.112 28.3678 215.698 28.5305 215.307 28.4273L213.316 27.8906C212.292 27.6206 211.691 29.0059 212.587 29.5694L214.34 30.6565C214.683 30.8707 214.845 31.2847 214.742 31.6759L214.205 33.6668C213.935 34.691 215.321 35.292 215.884 34.3951L216.971 32.6431C217.186 32.3 217.6 32.1373 217.991 32.2405L219.982 32.7772C221.006 33.0471 221.607 31.6619 220.71 31.0984L218.958 30.0113C218.615 29.797 218.452 29.3831 218.555 28.9919L219.092 27.001Z" fill="#B8D6A0"/>
<ellipse cx="278.138" cy="79.8228" rx="3.06662" ry="4.38089" transform="rotate(-60 278.138 79.8228)" fill="#E2D348"/>
<ellipse cx="278.138" cy="79.8228" rx="3.06662" ry="4.38089" transform="rotate(-60 278.138 79.8228)" fill="url(#paint3_radial)"/>
<ellipse cx="142.5" cy="212.5" rx="36.5" ry="6.5" fill="#2F3713"/>
<path d="M196 126.5C196 156.047 172.047 180 142.5 180C112.953 180 89 156.047 89 126.5C89 96.9528 112.953 73 142.5 73C172.047 73 196 96.9528 196 126.5Z" fill="url(#paint4_linear)"/>
<path fill-rule="evenodd" clip-rule="evenodd" d="M142.5 176C169.838 176 192 153.838 192 126.5C192 99.1619 169.838 77 142.5 77C115.162 77 93 99.1619 93 126.5C93 153.838 115.162 176 142.5 176ZM142.5 180C172.047 180 196 156.047 196 126.5C196 96.9528 172.047 73 142.5 73C112.953 73 89 96.9528 89 126.5C89 156.047 112.953 180 142.5 180Z" fill="#2F3713"/>
<ellipse cx="142.5" cy="126.5" rx="47.5" ry="21.5" fill="#E2FF7E"/>
<path d="M190 126.5C190 138.374 168.734 148 142.5 148C116.266 148 95 138.374 95 126.5C95 114.626 116.266 105 142.5 105C168.734 105 190 114.626 190 126.5Z" fill="url(#paint5_linear)"/>
<path fill-rule="evenodd" clip-rule="evenodd" d="M174.026 139.624C182.295 135.01 185 129.901 185 126.5C185 123.099 182.295 117.99 174.026 113.376C166.215 109.019 155.074 106.163 142.5 106.163C129.926 106.163 118.785 109.019 110.974 113.376C102.705 117.99 100 123.099 100 126.5C100 129.901 102.705 135.01 110.974 139.624C118.785 143.981 129.926 146.837 142.5 146.837C155.074 146.837 166.215 143.981 174.026 139.624ZM142.5 153C168.734 153 190 141.136 190 126.5C190 111.864 168.734 100 142.5 100C116.266 100 95 111.864 95 126.5C95 141.136 116.266 153 142.5 153Z" fill="#2F3713"/>
<rect x="83" y="124" width="120" height="6" fill="#2F3713"/>
<circle cx="203" cy="127" r="7" fill="#2F3713"/>
<circle cx="83" cy="127" r="7" fill="#2F3713"/>
<path fill-rule="evenodd" clip-rule="evenodd" d="M79.002 127C79.2706 161.84 107.597 190 142.5 190C177.403 190 205.729 161.84 205.998 127H202.998C202.729 160.183 175.746 187 142.5 187C109.254 187 82.2707 160.183 82.002 127H79.002Z" fill="#2F3713"/>
<rect x="138" y="189" width="9" height="24" fill="#2F3713"/>
<rect x="207" y="124" width="17" height="5" rx="2" fill="#2F3713"/>
<rect x="224" y="124" width="17" height="5" rx="2" transform="rotate(90 224 124)" fill="#2F3713"/>
<rect x="232" y="141" width="13" height="5" rx="2" transform="rotate(-180 232 141)" fill="#2F3713"/>
<circle cx="234.5" cy="138.5" r="5.5" fill="#2F3713"/>
<path d="M238.683 81.8275L215.974 68.7163C215.436 68.4058 215.258 67.7069 215.577 67.1553L217.782 63.3361C218.1 62.7844 218.794 62.5887 219.332 62.8991C220.547 63.6003 222.12 63.1569 222.839 61.9107C223.559 60.6645 223.156 59.0804 221.942 58.3792C221.404 58.0688 221.226 57.3699 221.545 56.8181L223.75 52.9989C224.068 52.4473 224.763 52.2517 225.3 52.5621L248.01 65.6734C248.547 65.9838 248.725 66.6827 248.406 67.2344L246.2 71.0561C245.888 71.5958 245.215 71.7968 244.68 71.5099C241.806 69.9699 239.295 74.3028 242.073 76.0258C242.589 76.346 242.751 77.0292 242.44 77.569L240.233 81.3907C239.915 81.9423 239.221 82.138 238.683 81.8275Z" fill="#CAEE7E"/>
<path d="M244.68 71.5099C245.215 71.7968 245.888 71.5958 246.2 71.0561L248.406 67.2344C248.725 66.6827 248.547 65.9838 248.01 65.6734L234.111 57.649L224.784 73.8032L238.683 81.8276C239.221 82.1379 239.915 81.9423 240.233 81.3906L242.44 77.5689C242.751 77.0291 242.589 76.3459 242.073 76.0257C239.302 74.3068 241.799 69.9662 244.68 71.5099Z" fill="#E3F98F"/>
<path opacity="0.2" d="M226.123 71.4104L224.423 70.4286L223.441 72.1291L225.142 73.1108L226.123 71.4104Z" fill="#59A320"/>
<path opacity="0.2" d="M227.351 69.2848L225.65 68.3031L224.668 70.0035L226.369 70.9853L227.351 69.2848Z" fill="#59A320"/>
<path opacity="0.2" d="M228.578 67.1592L226.877 66.1775L225.896 67.8779L227.596 68.8597L228.578 67.1592Z" fill="#59A320"/>
<path opacity="0.2" d="M229.805 65.0337L228.105 64.0519L227.123 65.7524L228.823 66.7341L229.805 65.0337Z" fill="#59A320"/>
<path opacity="0.2" d="M231.032 62.9081L229.332 61.9264L228.35 63.6268L230.05 64.6086L231.032 62.9081Z" fill="#59A320"/>
<path opacity="0.2" d="M232.259 60.7826L230.559 59.8008L229.577 61.5013L231.278 62.483L232.259 60.7826Z" fill="#59A320"/>
<path opacity="0.2" d="M233.487 58.657L231.786 57.6753L230.804 59.3757L232.505 60.3575L233.487 58.657Z" fill="#59A320"/>
<path opacity="0.2" d="M234.067 57.6542L232.367 56.6725L232.007 57.2962L233.707 58.2779L234.067 57.6542Z" fill="#59A320"/>
<path opacity="0.2" d="M224.929 73.4817L223.229 72.4999L223.062 72.7895L224.762 73.7713L224.929 73.4817Z" fill="#59A320"/>
<path d="M234.352 68.4249C234.988 69.0364 236.005 68.9989 236.623 68.341C237.241 67.6831 237.226 66.6541 236.591 66.0425C235.955 65.431 234.938 65.4686 234.32 66.1264C233.702 66.7843 233.717 67.8134 234.352 68.4249Z" fill="#75D52B"/>
<path d="M232.67 69.9819C233.37 70.6546 234.438 70.6666 235.056 70.0087C235.674 69.3508 235.608 68.2722 234.909 67.5995C234.209 66.9268 233.141 66.9148 232.523 67.5727C231.905 68.2305 231.971 69.3092 232.67 69.9819Z" fill="#75D52B"/>
<path d="M233.415 71.1084C232.507 71.6845 231.46 71.637 231.076 71.0022C230.692 70.3675 231.117 69.3859 232.024 68.8098C232.932 68.2337 233.979 68.2812 234.363 68.916C234.747 69.5507 234.323 70.5323 233.415 71.1084Z" fill="#75D52B"/>
<path d="M236.397 70.8718C237.401 71.4514 238.697 71.0862 239.292 70.0559C239.887 69.0256 239.555 67.7205 238.551 67.1408C237.547 66.5611 236.251 66.9264 235.656 67.9567C235.061 68.987 235.393 70.2921 236.397 70.8718Z" fill="#75D52B"/>
<path d="M234.708 73.378C235.812 74.0157 237.19 73.6974 237.785 72.6671C238.379 71.6368 237.966 70.2847 236.862 69.6471C235.757 69.0094 234.38 69.3277 233.785 70.358C233.19 71.3883 233.603 72.7404 234.708 73.378Z" fill="#75D52B"/>
<path d="M232.967 75.1752C233.654 75.8631 235.016 75.5965 236.008 74.5799C237 73.5632 237.248 72.1815 236.56 71.4936C235.873 70.8058 234.512 71.0723 233.519 72.0889C232.527 73.1056 232.28 74.4874 232.967 75.1752Z" fill="#75D52B"/>
<path d="M238.737 66.226C238.964 66.4906 239.724 66.1946 240.435 65.5649C241.145 64.9352 241.536 64.2102 241.309 63.9456C241.082 63.681 240.322 63.977 239.612 64.6067C238.901 65.2364 238.51 65.9614 238.737 66.226Z" fill="#75D52B"/>
<path d="M239.737 67.5099C239.68 67.7377 240.191 68.0559 240.88 68.2207C241.569 68.3855 242.174 68.3344 242.232 68.1067C242.29 67.879 241.778 67.5607 241.089 67.396C240.401 67.2312 239.795 67.2822 239.737 67.5099Z" fill="#75D52B"/>
<path d="M236.634 63.9339C236.419 64.0241 236.455 64.6364 236.714 65.3015C236.974 65.9667 237.359 66.4328 237.574 66.3426C237.789 66.2525 237.753 65.6402 237.493 64.9751C237.234 64.3099 236.849 63.8438 236.634 63.9339Z" fill="#75D52B"/>
<path d="M44.4152 68.8576L28.3064 78.158C27.925 78.3782 27.4326 78.2395 27.2067 77.8481L25.6426 75.139C25.4166 74.7477 25.5426 74.2518 25.924 74.0316C26.7855 73.5343 27.0711 72.4105 26.5608 71.5266C26.0504 70.6426 24.9344 70.3281 24.0729 70.8255C23.6915 71.0457 23.1992 70.9069 22.9732 70.5155L21.4091 67.8064C21.1832 67.4151 21.3092 66.9193 21.6906 66.6991L37.7994 57.3987C38.1808 57.1785 38.6731 57.3173 38.899 57.7086L40.4642 60.4196C40.6852 60.8024 40.5701 61.2871 40.2039 61.5142C38.2385 62.7335 40.0099 65.8125 42.0534 64.7175C42.4331 64.514 42.9104 64.6566 43.1315 65.0394L44.6966 67.7504C44.9225 68.1416 44.7966 68.6374 44.4152 68.8576Z" fill="#CAEE7E"/>
<path d="M40.2039 61.5143C40.57 61.2872 40.6852 60.8025 40.4642 60.4196L38.899 57.7087C38.6731 57.3174 38.1808 57.1785 37.7994 57.3987L27.9405 63.0908L34.5563 74.5497L44.4152 68.8576C44.7965 68.6375 44.9225 68.1417 44.6966 67.7503L43.1314 65.0394C42.9104 64.6566 42.433 64.514 42.0533 64.7175C40.0147 65.81 38.2339 62.7364 40.2039 61.5143Z" fill="#E3F98F"/>
<path opacity="0.2" d="M33.5613 72.8784L32.3551 73.5748L33.0515 74.781L34.2577 74.0846L33.5613 72.8784Z" fill="#59A320"/>
<path opacity="0.2" d="M32.6908 71.3706L31.4846 72.067L32.181 73.2732L33.3872 72.5768L32.6908 71.3706Z" fill="#59A320"/>
<path opacity="0.2" d="M31.8203 69.8629L30.6141 70.5593L31.3105 71.7655L32.5167 71.0691L31.8203 69.8629Z" fill="#59A320"/>
<path opacity="0.2" d="M30.9498 68.3551L29.7436 69.0515L30.44 70.2577L31.6462 69.5613L30.9498 68.3551Z" fill="#59A320"/>
<path opacity="0.2" d="M30.0793 66.8474L28.8731 67.5438L29.5695 68.75L30.7757 68.0536L30.0793 66.8474Z" fill="#59A320"/>
<path opacity="0.2" d="M29.2088 65.3396L28.0026 66.036L28.699 67.2422L29.9052 66.5458L29.2088 65.3396Z" fill="#59A320"/>
<path opacity="0.2" d="M28.3383 63.8319L27.1321 64.5283L27.8285 65.7345L29.0347 65.0381L28.3383 63.8319Z" fill="#59A320"/>
<path opacity="0.2" d="M27.9282 63.1194L26.722 63.8158L26.9774 64.2582L28.1837 63.5618L27.9282 63.1194Z" fill="#59A320"/>
<path opacity="0.2" d="M34.4102 74.3465L33.204 75.0429L33.3226 75.2483L34.5288 74.5519L34.4102 74.3465Z" fill="#59A320"/>
<path d="M34.6459 66.7643C35.2471 66.5906 35.5845 65.9529 35.3996 65.3399C35.2146 64.7269 34.5774 64.3707 33.9762 64.5444C33.375 64.7181 33.0376 65.3558 33.2225 65.9688C33.4074 66.5818 34.0447 66.938 34.6459 66.7643Z" fill="#75D52B"/>
<path d="M35.0058 68.3498C35.6671 68.1587 36.0532 67.5069 35.8683 66.8939C35.6834 66.2809 34.9974 65.9388 34.3361 66.1299C33.6748 66.3209 33.2886 66.9727 33.4736 67.5858C33.6585 68.1988 34.3445 68.5408 35.0058 68.3498Z" fill="#75D52B"/>
<path d="M35.9619 68.292C35.9939 69.0539 35.5933 69.6803 35.0672 69.691C34.5411 69.7018 34.0886 69.0929 34.0566 68.331C34.0247 67.5691 34.4252 66.9427 34.9514 66.9319C35.4775 66.9212 35.9299 67.5301 35.9619 68.292Z" fill="#75D52B"/>
<path d="M36.8743 66.376C37.5865 65.9648 37.8218 65.039 37.3998 64.3082C36.9779 63.5774 36.0585 63.3183 35.3463 63.7295C34.6341 64.1407 34.3988 65.0664 34.8207 65.7973C35.2426 66.5281 36.162 66.7872 36.8743 66.376Z" fill="#75D52B"/>
<path d="M37.8147 68.3027C38.5981 67.8504 38.8912 66.8913 38.4692 66.1605C38.0473 65.4297 37.0701 65.2039 36.2867 65.6562C35.5033 66.1085 35.2102 67.0676 35.6322 67.7985C36.0541 68.5293 37.0313 68.7551 37.8147 68.3027Z" fill="#75D52B"/>
<path d="M38.3014 70.0095C38.9676 69.8313 39.2868 68.9004 39.0141 67.9303C38.7415 66.9602 37.9804 66.3182 37.3141 66.4964C36.6478 66.6746 36.3287 67.6054 36.6013 68.5756C36.8739 69.5457 37.6351 70.1877 38.3014 70.0095Z" fill="#75D52B"/>
<path d="M34.8501 63.2909C35.0933 63.2451 35.181 62.6733 35.0461 62.0136C34.9112 61.354 34.6047 60.8563 34.3615 60.902C34.1184 60.9478 34.0307 61.5196 34.1656 62.1793C34.3005 62.8389 34.607 63.3366 34.8501 63.2909Z" fill="#75D52B"/>
<path d="M35.9937 63.1317C36.1131 63.248 36.4901 63.0466 36.8356 62.6818C37.1812 62.3171 37.3646 61.9271 37.2452 61.8108C37.1258 61.6945 36.7488 61.896 36.4032 62.2607C36.0577 62.6255 35.8743 63.0155 35.9937 63.1317Z" fill="#75D52B"/>
<path d="M32.6962 63.77C32.6753 63.934 33.0642 64.1291 33.5649 64.2056C34.0655 64.2821 34.4883 64.2111 34.5092 64.047C34.53 63.883 34.1411 63.6879 33.6405 63.6114C33.1399 63.5349 32.7171 63.6059 32.6962 63.77Z" fill="#75D52B"/>
<path d="M67.8061 192.242L44.0197 178.509C43.4566 178.184 43.2705 177.452 43.6041 176.874L45.9137 172.874C46.2473 172.296 46.9744 172.091 47.5375 172.416C48.8095 173.15 50.4575 172.686 51.2111 171.381C51.9647 170.075 51.5429 168.416 50.2709 167.682C49.7077 167.357 49.5216 166.625 49.8553 166.047L52.1649 162.046C52.4985 161.468 53.2255 161.264 53.7886 161.589L77.575 175.322C78.1381 175.647 78.3241 176.379 77.9905 176.957L75.6794 180.96C75.353 181.525 74.6482 181.736 74.0874 181.435C71.0771 179.822 68.4476 184.36 71.3566 186.165C71.8971 186.501 72.0672 187.216 71.7409 187.782L69.4297 191.784C69.0962 192.362 68.3692 192.567 67.8061 192.242Z" fill="#CAEE7E"/>
<path d="M74.0873 181.435C74.648 181.736 75.3529 181.525 75.6793 180.96L77.9904 176.957C78.324 176.379 78.138 175.647 77.5749 175.322L63.0172 166.917L53.2483 183.837L67.806 192.242C68.3691 192.567 69.0961 192.362 69.4297 191.784L71.7408 187.781C72.0672 187.216 71.8971 186.5 71.3565 186.165C68.4544 184.365 71.0699 179.818 74.0873 181.435Z" fill="#E3F98F"/>
<path opacity="0.2" d="M54.6509 181.331L52.8698 180.303L51.8415 182.084L53.6226 183.112L54.6509 181.331Z" fill="#59A320"/>
<path opacity="0.2" d="M55.9363 179.104L54.1552 178.076L53.1269 179.857L54.908 180.886L55.9363 179.104Z" fill="#59A320"/>
<path opacity="0.2" d="M57.2217 176.878L55.4406 175.85L54.4123 177.631L56.1934 178.659L57.2217 176.878Z" fill="#59A320"/>
<path opacity="0.2" d="M58.5071 174.652L56.726 173.623L55.6977 175.405L57.4788 176.433L58.5071 174.652Z" fill="#59A320"/>
<path opacity="0.2" d="M59.7924 172.425L58.0114 171.397L56.9831 173.178L58.7641 174.206L59.7924 172.425Z" fill="#59A320"/>
<path opacity="0.2" d="M61.0778 170.199L59.2967 169.171L58.2684 170.952L60.0495 171.98L61.0778 170.199Z" fill="#59A320"/>
<path opacity="0.2" d="M62.3632 167.973L60.5822 166.944L59.5538 168.725L61.3349 169.754L62.3632 167.973Z" fill="#59A320"/>
<path opacity="0.2" d="M62.9716 166.922L61.1905 165.894L60.8133 166.547L62.5944 167.576L62.9716 166.922Z" fill="#59A320"/>
<path opacity="0.2" d="M53.4002 183.5L51.6191 182.472L51.444 182.775L53.2251 183.804L53.4002 183.5Z" fill="#59A320"/>
<path d="M63.2702 178.204C63.9361 178.844 65.0008 178.805 65.6481 178.116C66.2955 177.427 66.2804 176.349 65.6145 175.708C64.9486 175.068 63.8839 175.107 63.2365 175.796C62.5892 176.485 62.6042 177.563 63.2702 178.204Z" fill="#75D52B"/>
<path d="M61.5084 179.835C62.2409 180.539 63.3596 180.552 64.007 179.863C64.6543 179.174 64.5853 178.044 63.8527 177.339C63.1202 176.635 62.0016 176.622 61.3542 177.311C60.7068 178 60.7759 179.13 61.5084 179.835Z" fill="#75D52B"/>
<path d="M62.2882 181.015C61.3376 181.618 60.2408 181.568 59.8386 180.903C59.4364 180.239 59.881 179.21 60.8317 178.607C61.7824 178.004 62.8791 178.053 63.2813 178.718C63.6836 179.383 63.2389 180.411 62.2882 181.015Z" fill="#75D52B"/>
<path d="M65.412 180.767C66.4636 181.374 67.8212 180.991 68.4442 179.912C69.0673 178.833 68.7198 177.466 67.6682 176.859C66.6165 176.252 65.2589 176.634 64.6359 177.713C64.0129 178.793 64.3603 180.16 65.412 180.767Z" fill="#75D52B"/>
<path d="M63.6424 183.392C64.7992 184.06 66.242 183.726 66.8651 182.647C67.4881 181.568 67.0554 180.152 65.8986 179.484C64.7418 178.816 63.2989 179.149 62.6759 180.229C62.0528 181.308 62.4855 182.724 63.6424 183.392Z" fill="#75D52B"/>
<path d="M61.8192 185.274C62.5389 185.995 63.9649 185.715 65.0042 184.651C66.0435 183.586 66.3025 182.138 65.5828 181.418C64.863 180.698 63.437 180.977 62.3977 182.042C61.3584 183.106 61.0994 184.554 61.8192 185.274Z" fill="#75D52B"/>
<path d="M67.8627 175.901C68.1007 176.178 68.8968 175.868 69.6407 175.208C70.3847 174.549 70.7948 173.789 70.5568 173.512C70.3188 173.235 69.5228 173.545 68.7788 174.205C68.0349 174.864 67.6247 175.623 67.8627 175.901Z" fill="#75D52B"/>
<path d="M68.9105 177.245C68.85 177.484 69.3858 177.817 70.1074 177.99C70.829 178.163 71.4631 178.109 71.5236 177.871C71.5842 177.632 71.0483 177.299 70.3267 177.126C69.6051 176.953 68.9711 177.007 68.9105 177.245Z" fill="#75D52B"/>
<path d="M65.6598 173.5C65.4345 173.594 65.4723 174.236 65.744 174.932C66.0158 175.629 66.4187 176.117 66.644 176.023C66.8692 175.928 66.8315 175.287 66.5597 174.59C66.2879 173.894 65.885 173.405 65.6598 173.5Z" fill="#75D52B"/>
<path d="M261.662 169.342L237.342 193.662C236.767 194.238 235.821 194.226 235.23 193.635L231.14 189.545C230.549 188.954 230.537 188.008 231.113 187.433C232.413 186.132 232.386 183.988 231.051 182.654C229.717 181.319 227.573 181.292 226.272 182.592C225.696 183.168 224.751 183.156 224.16 182.565L220.07 178.475C219.479 177.884 219.467 176.938 220.043 176.362L244.363 152.042C244.938 151.467 245.884 151.479 246.475 152.07L250.568 156.163C251.146 156.741 251.172 157.661 250.627 158.242C247.7 161.36 252.337 166.012 255.463 163.078C256.044 162.533 256.964 162.559 257.542 163.137L261.635 167.23C262.226 167.821 262.238 168.767 261.662 169.342Z" fill="#CAEE7E"/>
<path d="M250.627 158.242C251.172 157.662 251.146 156.741 250.568 156.163L246.475 152.07C245.884 151.479 244.938 151.467 244.363 152.043L229.478 166.927L246.778 184.227L261.662 169.342C262.238 168.767 262.226 167.821 261.635 167.23L257.542 163.137C256.964 162.559 256.044 162.533 255.463 163.078C252.344 166.005 247.693 161.368 250.627 158.242Z" fill="#E3F98F"/>
<path opacity="0.2" d="M244.201 181.718L242.38 183.539L244.201 185.36L246.022 183.539L244.201 181.718Z" fill="#59A320"/>
<path opacity="0.2" d="M241.925 179.442L240.104 181.263L241.925 183.084L243.746 181.263L241.925 179.442Z" fill="#59A320"/>
<path opacity="0.2" d="M239.649 177.165L237.828 178.986L239.649 180.807L241.47 178.986L239.649 177.165Z" fill="#59A320"/>
<path opacity="0.2" d="M237.372 174.889L235.551 176.71L237.372 178.531L239.193 176.71L237.372 174.889Z" fill="#59A320"/>
<path opacity="0.2" d="M235.096 172.613L233.275 174.434L235.096 176.255L236.917 174.434L235.096 172.613Z" fill="#59A320"/>
<path opacity="0.2" d="M232.82 170.336L230.999 172.157L232.82 173.979L234.641 172.157L232.82 170.336Z" fill="#59A320"/>
<path opacity="0.2" d="M230.543 168.06L228.722 169.881L230.543 171.702L232.364 169.881L230.543 168.06Z" fill="#59A320"/>
<path opacity="0.2" d="M229.47 166.984L227.649 168.805L228.317 169.473L230.138 167.652L229.47 166.984Z" fill="#59A320"/>
<path opacity="0.2" d="M246.42 183.934L244.599 185.755L244.909 186.065L246.73 184.244L246.42 183.934Z" fill="#59A320"/>
<path d="M243.212 170.279C244.203 169.681 244.5 168.381 243.877 167.374C243.253 166.368 241.945 166.037 240.954 166.635C239.963 167.233 239.666 168.533 240.29 169.539C240.913 170.546 242.222 170.877 243.212 170.279Z" fill="#75D52B"/>
<path d="M244.614 172.938C245.704 172.281 246.081 170.932 245.458 169.925C244.834 168.919 243.445 168.636 242.355 169.294C241.266 169.952 240.888 171.301 241.512 172.307C242.135 173.313 243.524 173.596 244.614 172.938Z" fill="#75D52B"/>
<path d="M246.294 172.378C246.716 173.723 246.3 175.034 245.365 175.304C244.431 175.576 243.331 174.705 242.91 173.359C242.488 172.014 242.904 170.703 243.838 170.432C244.773 170.161 245.872 171.032 246.294 172.378Z" fill="#75D52B"/>
<path d="M247.006 168.519C248.082 167.444 248.059 165.678 246.956 164.574C245.852 163.471 244.086 163.448 243.011 164.523C241.936 165.599 241.958 167.365 243.062 168.468C244.165 169.571 245.931 169.594 247.006 168.519Z" fill="#75D52B"/>
<path d="M249.608 171.51C250.791 170.327 250.855 168.474 249.752 167.371C248.649 166.267 246.795 166.332 245.613 167.515C244.43 168.697 244.366 170.551 245.469 171.654C246.572 172.757 248.425 172.693 249.608 171.51Z" fill="#75D52B"/>
<path d="M251.294 174.326C252.399 173.688 252.523 171.873 251.572 170.271C250.621 168.669 248.954 167.886 247.85 168.523C246.745 169.161 246.62 170.976 247.572 172.578C248.523 174.18 250.189 174.963 251.294 174.326Z" fill="#75D52B"/>
<path d="M241.915 163.978C242.327 163.78 242.21 162.716 241.654 161.603C241.097 160.489 240.311 159.747 239.899 159.945C239.487 160.143 239.604 161.206 240.16 162.32C240.717 163.433 241.503 164.176 241.915 163.978Z" fill="#75D52B"/>
<path d="M243.881 163.146C244.15 163.297 244.727 162.756 245.17 161.94C245.612 161.123 245.753 160.338 245.484 160.188C245.215 160.037 244.638 160.578 244.196 161.394C243.753 162.211 243.612 162.996 243.881 163.146Z" fill="#75D52B"/>
<path d="M238.297 165.864C238.338 166.167 239.126 166.329 240.057 166.226C240.988 166.123 241.709 165.794 241.668 165.491C241.627 165.188 240.839 165.026 239.908 165.129C238.977 165.232 238.256 165.561 238.297 165.864Z" fill="#75D52B"/>
<defs>
<radialGradient id="paint0_radial" cx="0" cy="0" r="1" gradientUnits="userSpaceOnUse" gradientTransform="translate(4.16 5.94286) rotate(90) scale(5.94286 5.4503)">
<stop stop-color="#E2D348" stop-opacity="0"/>
<stop offset="1" stop-color="#DFCC1E"/>
</radialGradient>
<radialGradient id="paint1_radial" cx="0" cy="0" r="1" gradientUnits="userSpaceOnUse" gradientTransform="translate(3.06662 4.38089) rotate(90) scale(4.38089 4.0178)">
<stop stop-color="#E2D348" stop-opacity="0"/>
<stop offset="1" stop-color="#DFCC1E"/>
</radialGradient>
<radialGradient id="paint2_radial" cx="0" cy="0" r="1" gradientUnits="userSpaceOnUse" gradientTransform="translate(187.144 64.3368) rotate(90) scale(5.94286 5.4503)">
<stop stop-color="#E2D348" stop-opacity="0"/>
<stop offset="1" stop-color="#DFCC1E"/>
</radialGradient>
<radialGradient id="paint3_radial" cx="0" cy="0" r="1" gradientUnits="userSpaceOnUse" gradientTransform="translate(278.138 79.8228) rotate(90) scale(4.38089 4.0178)">
<stop stop-color="#E2D348" stop-opacity="0"/>
<stop offset="1" stop-color="#DFCC1E"/>
</radialGradient>
<linearGradient id="paint4_linear" x1="142.5" y1="73" x2="142.5" y2="180" gradientUnits="userSpaceOnUse">
<stop stop-color="#C8ED46"/>
<stop offset="1" stop-color="#A7CD20"/>
</linearGradient>
<linearGradient id="paint5_linear" x1="142.5" y1="105" x2="142.5" y2="148" gradientUnits="userSpaceOnUse">
<stop stop-color="#ECFEAF"/>
<stop offset="1" stop-color="#E2FF7E"/>
</linearGradient>
</defs>
</svg>
