<svg width="135" height="135" viewBox="0 0 135 135" fill="none" xmlns="http://www.w3.org/2000/svg">
<path d="M45.255 23L112 89.745V135L0 23H45.255Z" fill="#B3DD20"/>
<path d="M53.4492 47.1723L52.2792 48.3423L49.2662 45.3293L47.4128 47.1826L49.7218 49.4916L48.5725 50.6409L46.2635 48.3319L43.2091 51.3863L41.7596 49.9368L48.9866 42.7097L53.4492 47.1723Z" fill="black"/>
<path d="M54.4046 49.7429C54.1492 49.4875 54.0146 49.1941 54.0008 48.8628C54.0008 48.5315 54.1216 48.245 54.3632 48.0034C54.6048 47.7618 54.8878 47.6445 55.2122 47.6514C55.5504 47.6583 55.8472 47.7894 56.1026 48.0448C56.358 48.3002 56.4857 48.5936 56.4857 48.9249C56.4995 49.2563 56.3856 49.5427 56.144 49.7843C55.9025 50.0259 55.6125 50.1432 55.2743 50.1363C54.9499 50.1294 54.66 49.9983 54.4046 49.7429ZM54.4356 51.1407L48.6995 56.8768L47.25 55.4272L52.9861 49.6911L54.4356 51.1407Z" fill="black"/>
<path d="M59.1293 55.6687C59.8127 56.352 60.1474 57.1217 60.1336 57.9776C60.1267 58.8266 59.7367 59.6377 58.9636 60.4108L55.5986 63.7758L54.149 62.3263L57.3174 59.158C57.7729 58.7024 58.0076 58.2399 58.0214 57.7705C58.0421 57.2943 57.8558 56.8594 57.4623 56.4659C57.062 56.0656 56.6202 55.8723 56.137 55.8861C55.6676 55.8999 55.2051 56.1346 54.7496 56.5902L51.5813 59.7585L50.1317 58.3089L55.8678 52.5728L57.3174 54.0224L56.6029 54.7368C57.0447 54.6816 57.483 54.7334 57.9179 54.8921C58.3666 55.0509 58.7704 55.3097 59.1293 55.6687Z" fill="black"/>
<path d="M64.1316 59.47C63.8762 59.2146 63.7416 58.9212 63.7278 58.5899C63.7278 58.2585 63.8486 57.9721 64.0902 57.7305C64.3318 57.4889 64.6148 57.3716 64.9393 57.3785C65.2775 57.3854 65.5743 57.5165 65.8297 57.7719C66.0851 58.0273 66.2128 58.3207 66.2128 58.652C66.2266 58.9833 66.1127 59.2698 65.8711 59.5114C65.6295 59.753 65.3396 59.8703 65.0014 59.8634C64.677 59.8565 64.387 59.7254 64.1316 59.47ZM64.1627 60.8677L58.4266 66.6038L56.9771 65.1543L62.7132 59.4182L64.1627 60.8677Z" fill="black"/>
<path d="M61.9606 70.3242C61.4912 69.8549 61.153 69.351 60.9459 68.8126C60.7458 68.2672 60.6802 67.7392 60.7492 67.2284C60.8251 66.7245 61.0288 66.2862 61.3601 65.9134L62.82 67.3734C62.6267 67.6218 62.5508 67.9118 62.5922 68.2431C62.6405 68.5813 62.8062 68.8919 63.0892 69.1749C63.3653 69.451 63.6345 69.6098 63.8968 69.6512C64.166 69.6995 64.3869 69.6374 64.5595 69.4649C64.7458 69.2785 64.7873 69.0438 64.6837 68.7608C64.594 68.4778 64.3973 68.074 64.0935 67.5494C63.7691 67.0179 63.5241 66.5588 63.3584 66.1723C63.1997 65.7926 63.1341 65.3888 63.1617 64.9609C63.1962 64.5398 63.4067 64.136 63.7933 63.7495C64.1108 63.4319 64.4904 63.2318 64.9322 63.1489C65.3809 63.073 65.8503 63.1282 66.3404 63.3146C66.8373 63.5079 67.3171 63.8357 67.7796 64.2982C68.4629 64.9816 68.8357 65.6995 68.8978 66.4519C68.9668 67.1973 68.7321 67.8807 68.1937 68.5019L66.8063 67.1145C67.0134 66.866 67.0962 66.5899 67.0548 66.2862C67.0272 65.9825 66.8719 65.6891 66.5889 65.4061C66.3266 65.1438 66.0746 64.9885 65.833 64.9402C65.5983 64.8988 65.3947 64.9643 65.2221 65.1369C65.0289 65.3302 64.9771 65.5752 65.0668 65.872C65.1635 66.1619 65.3636 66.5623 65.6673 67.0731C65.978 67.5908 66.2127 68.0395 66.3714 68.4191C66.5302 68.7987 66.5889 69.2026 66.5474 69.6305C66.5198 70.0585 66.3196 70.4657 65.9469 70.8523C65.6156 71.1836 65.2256 71.3872 64.7769 71.4632C64.3351 71.546 63.8658 71.4908 63.3688 71.2975C62.8856 71.1042 62.4162 70.7798 61.9606 70.3242Z" fill="black"/>
<path d="M74.5502 71.0896C74.9851 71.5245 75.275 72.0077 75.42 72.5392C75.5718 73.0638 75.5546 73.6056 75.3682 74.1647C75.1956 74.7239 74.8505 75.2623 74.3328 75.78L70.9678 79.145L69.5182 77.6954L72.6865 74.5271C73.1421 74.0716 73.3768 73.6091 73.3906 73.1397C73.4113 72.6634 73.2249 72.2286 72.8315 71.8351C72.4311 71.4347 71.9894 71.2415 71.5062 71.2553C71.0368 71.2691 70.5743 71.5038 70.1187 71.9594L66.9504 75.1277L65.5009 73.6781L73.1628 66.0162L74.6124 67.4657L71.9721 70.106C72.407 70.0439 72.8487 70.0991 73.2974 70.2717C73.753 70.4373 74.1706 70.71 74.5502 71.0896Z" fill="black"/>
<path d="M80.6708 82.8635C80.4637 83.0705 80.2636 83.2431 80.0703 83.3812L75.8769 79.1878C75.4973 79.6365 75.3178 80.1058 75.3385 80.5959C75.3592 81.086 75.556 81.5174 75.9287 81.8902C76.4671 82.4286 77.0814 82.5804 77.7717 82.3458L79.3352 83.9092C78.6173 84.2958 77.8442 84.4338 77.0159 84.3234C76.1945 84.206 75.4421 83.8057 74.7587 83.1223C74.2065 82.5701 73.8303 81.9523 73.6301 81.2689C73.4437 80.5856 73.4506 79.8953 73.6508 79.1982C73.8579 78.5079 74.2548 77.8694 74.8415 77.2827C75.4352 76.689 76.0771 76.2887 76.7674 76.0816C77.4576 75.8745 78.141 75.8676 78.8175 76.0609C79.4939 76.2542 80.1152 76.6338 80.6812 77.1998C81.2265 77.7451 81.5958 78.3491 81.789 79.0118C81.9892 79.6813 81.9892 80.3509 81.789 81.0205C81.6027 81.69 81.2299 82.3043 80.6708 82.8635ZM79.5836 80.948C79.9495 80.5683 80.1117 80.1369 80.0703 79.6537C80.0358 79.1636 79.8287 78.7288 79.449 78.3491C79.0901 77.9902 78.6759 77.7969 78.2066 77.7693C77.751 77.7417 77.3023 77.8936 76.8606 78.2249L79.5836 80.948Z" fill="black"/>
<path d="M81.2526 83.6523C81.8324 83.0725 82.4605 82.6721 83.137 82.4512C83.8204 82.2373 84.483 82.2096 85.125 82.3684C85.7669 82.5272 86.3329 82.8516 86.823 83.3417C87.1958 83.7144 87.4684 84.1527 87.641 84.6566C87.8204 85.1536 87.8757 85.6368 87.8066 86.1062L90.5297 83.3831L92 84.8534L84.3381 92.5153L82.8678 91.045L83.7168 90.196C83.2543 90.2995 82.7746 90.2754 82.2776 90.1235C81.7806 89.9717 81.3182 89.6818 80.8902 89.2538C80.407 88.7706 80.0895 88.2046 79.9376 87.5557C79.7858 86.9069 79.8168 86.2408 80.0308 85.5574C80.2586 84.8741 80.6659 84.239 81.2526 83.6523ZM85.7462 88.1873C86.0982 87.8353 86.3295 87.466 86.4399 87.0795C86.5573 86.686 86.5642 86.3064 86.4606 85.9405C86.364 85.5678 86.1811 85.2468 85.9119 84.9776C85.6427 84.7084 85.3286 84.5255 84.9697 84.4288C84.6107 84.3322 84.2311 84.3391 83.8307 84.4496C83.4442 84.56 83.0783 84.7878 82.7332 85.1329C82.3881 85.478 82.1534 85.8508 82.0291 86.2511C81.9187 86.6515 81.9083 87.0346 81.9981 87.4004C82.0947 87.7732 82.2742 88.0907 82.5365 88.353C82.8057 88.6222 83.1232 88.8086 83.489 88.9121C83.8618 89.0088 84.2414 89.0018 84.628 88.8914C85.0214 88.7741 85.3942 88.5394 85.7462 88.1873Z" fill="black"/>
</svg>
