<svg width="64" height="64" viewBox="0 0 64 64" fill="none" xmlns="http://www.w3.org/2000/svg">
<g clip-path="url(#clip0)">
<path fill-rule="evenodd" clip-rule="evenodd" d="M43.1939 10.691C43.3655 10.535 43.5701 10.4201 43.7926 10.3548C44.015 10.2896 44.2494 10.2757 44.4779 10.3143C44.7065 10.3529 44.9233 10.4429 45.112 10.5776C45.3007 10.7122 45.4563 10.888 45.5671 11.0916C45.678 11.2952 45.741 11.5213 45.7517 11.7529C45.7623 11.9844 45.7202 12.2154 45.6284 12.4283C45.5367 12.6412 45.3978 12.8305 45.2223 12.9818C45.0467 13.1332 44.839 13.2426 44.6149 13.302L38.4959 14.942L43.1939 10.692V10.691ZM49.1129 10.514C48.8872 9.6767 48.4505 8.9113 47.8445 8.29097C47.2385 7.67063 46.4836 7.2161 45.6518 6.97081C44.82 6.72552 43.9392 6.69768 43.0936 6.88995C42.248 7.08221 41.4659 7.48816 40.8219 8.06899L31.0199 16.937C29.5599 18.258 30.8619 20.649 32.7639 20.14L45.5319 16.719C48.2339 15.995 49.8379 13.217 49.1139 10.515L49.1129 10.514Z" fill="#8FD945"/>
<path fill-rule="evenodd" clip-rule="evenodd" d="M30.189 8.084C30.1119 7.84503 29.9816 7.62666 29.8079 7.44533C29.6343 7.264 29.4217 7.12443 29.1863 7.03712C28.9509 6.94982 28.6987 6.91705 28.4488 6.9413C28.1989 6.96554 27.9577 7.04616 27.7435 7.17709C27.5292 7.30802 27.3475 7.48585 27.2119 7.69718C27.0763 7.90852 26.9905 8.14785 26.9607 8.39718C26.931 8.6465 26.9583 8.89931 27.0404 9.13658C27.1226 9.37385 27.2575 9.5894 27.435 9.767L32.299 14.631L30.189 8.084ZM24.72 4.704C27.628 1.796 32.582 2.992 33.844 6.906L38.247 20.566C38.903 22.601 36.38 24.143 34.869 22.631L24.72 12.482C23.6886 11.4506 23.1091 10.0516 23.1091 8.593C23.1091 7.13435 23.6886 5.73544 24.72 4.704Z" fill="#8FD945"/>
<path opacity="0.6" d="M7.27598 34.043C7.21644 34.258 7.08807 34.4475 6.91053 34.5826C6.73298 34.7176 6.51606 34.7908 6.29298 34.7908C6.06991 34.7908 5.85298 34.7176 5.67544 34.5826C5.49789 34.4475 5.36952 34.258 5.30998 34.043L4.51398 31.011C4.42098 30.656 4.14398 30.379 3.78898 30.286L0.756983 29.49C0.542 29.4305 0.352462 29.3021 0.217404 29.1245C0.0823464 28.947 0.00921631 28.7301 0.00921631 28.507C0.00921631 28.2839 0.0823464 28.067 0.217404 27.8895C0.352462 27.7119 0.542 27.5835 0.756983 27.524L3.78898 26.728C4.14398 26.635 4.42098 26.358 4.51398 26.003L5.30998 22.971C5.36952 22.756 5.49789 22.5665 5.67544 22.4314C5.85298 22.2964 6.06991 22.2232 6.29298 22.2232C6.51606 22.2232 6.73298 22.2964 6.91053 22.4314C7.08807 22.5665 7.21644 22.756 7.27598 22.971L8.07198 26.003C8.16498 26.358 8.44198 26.635 8.79698 26.728L11.829 27.524C12.044 27.5835 12.2335 27.7119 12.3686 27.8895C12.5036 28.067 12.5767 28.2839 12.5767 28.507C12.5767 28.7301 12.5036 28.947 12.3686 29.1245C12.2335 29.3021 12.044 29.4305 11.829 29.49L8.79698 30.286C8.44198 30.379 8.16498 30.656 8.07198 31.011L7.27598 34.043Z" fill="#E9C853"/>
<path d="M9.61997 11.664C9.61717 11.7938 9.5723 11.9193 9.49212 12.0215C9.41193 12.1236 9.30076 12.197 9.17529 12.2306C9.04983 12.2642 8.91685 12.2562 8.79634 12.2078C8.67582 12.1593 8.57428 12.0731 8.50697 11.962L7.59597 10.366C7.48897 10.179 7.29097 10.064 7.07597 10.066L5.23897 10.075C5.10912 10.0722 4.98368 10.0273 4.8815 9.94714C4.77932 9.86696 4.70592 9.75578 4.67233 9.63032C4.63874 9.50485 4.64677 9.37187 4.69521 9.25136C4.74365 9.13085 4.82989 9.02931 4.94097 8.962L6.53697 8.051C6.72397 7.94399 6.83897 7.746 6.83697 7.531L6.82797 5.693C6.83077 5.56314 6.87564 5.4377 6.95582 5.33553C7.03601 5.23335 7.14718 5.15995 7.27265 5.12636C7.39811 5.09276 7.53109 5.10079 7.65161 5.14923C7.77212 5.19767 7.87366 5.28391 7.94097 5.395L8.85197 6.991C8.95897 7.178 9.15697 7.293 9.37197 7.291L11.209 7.282C11.3388 7.2848 11.4643 7.32966 11.5664 7.40985C11.6686 7.49003 11.742 7.60121 11.7756 7.72667C11.8092 7.85214 11.8012 7.98512 11.7527 8.10563C11.7043 8.22614 11.6181 8.32768 11.507 8.395L9.91097 9.306C9.72397 9.413 9.60897 9.611 9.61097 9.826L9.61997 11.664Z" fill="#E9C853"/>
<path opacity="0.8" d="M53.871 15.786C53.7487 15.7522 53.6409 15.6792 53.564 15.5782C53.4872 15.4772 53.4456 15.3539 53.4456 15.227C53.4456 15.1001 53.4872 14.9768 53.564 14.8758C53.6409 14.7748 53.7487 14.7018 53.871 14.668L56.964 13.856C57.0629 13.8298 57.1531 13.7779 57.2255 13.7055C57.2978 13.6331 57.3497 13.5429 57.376 13.444L58.188 10.351C58.2218 10.2287 58.2948 10.1209 58.3958 10.0441C58.4967 9.96726 58.6201 9.92566 58.747 9.92566C58.8738 9.92566 58.9972 9.96726 59.0982 10.0441C59.1991 10.1209 59.2721 10.2287 59.306 10.351L60.118 13.444C60.1442 13.5429 60.1961 13.6331 60.2685 13.7055C60.3408 13.7779 60.431 13.8298 60.53 13.856L63.623 14.668C63.7452 14.7018 63.8531 14.7748 63.9299 14.8758C64.0067 14.9768 64.0483 15.1001 64.0483 15.227C64.0483 15.3539 64.0067 15.4772 63.9299 15.5782C63.8531 15.6792 63.7452 15.7522 63.623 15.786L60.53 16.598C60.431 16.6242 60.3408 16.6762 60.2685 16.7485C60.1961 16.8209 60.1442 16.9111 60.118 17.01L59.306 20.103C59.2721 20.2253 59.1991 20.3331 59.0982 20.4099C58.9972 20.4867 58.8738 20.5283 58.747 20.5283C58.6201 20.5283 58.4967 20.4867 58.3958 20.4099C58.2948 20.3331 58.2218 20.2253 58.188 20.103L57.376 17.01C57.323 16.808 57.166 16.651 56.964 16.598L53.871 15.786Z" fill="#E9C853"/>
<path d="M51.083 29.906C50.9089 29.2565 50.6087 28.6477 50.1993 28.1143C49.79 27.5809 49.2796 27.1334 48.6972 26.7972C48.1149 26.4611 47.4721 26.2429 46.8055 26.1552C46.1388 26.0675 45.4615 26.1119 44.812 26.286L17.612 33.574C16.9626 33.7481 16.3537 34.0483 15.8203 34.4577C15.2869 34.867 14.8394 35.3774 14.5032 35.9598C14.1671 36.5421 13.9489 37.1849 13.8612 37.8515C13.7735 38.5182 13.8179 39.1955 13.992 39.845L18.547 56.845C18.7211 57.4945 19.0213 58.1033 19.4307 58.6367C19.84 59.1701 20.3505 59.6176 20.9328 59.9538C21.5151 60.2899 22.1579 60.5081 22.8245 60.5958C23.4912 60.6835 24.1686 60.6391 24.818 60.465L52.018 53.177C52.6675 53.0029 53.2763 52.7027 53.8097 52.2933C54.3431 51.884 54.7906 51.3736 55.1268 50.7912C55.4629 50.2089 55.6811 49.5661 55.7688 48.8995C55.8565 48.2328 55.8121 47.5554 55.638 46.906L51.083 29.906Z" fill="url(#paint0_linear)"/>
<path fill-rule="evenodd" clip-rule="evenodd" d="M18.274 36.046L45.475 28.758C46.1307 28.5824 46.8294 28.6744 47.4173 29.0138C48.0052 29.3533 48.4342 29.9123 48.61 30.568L53.165 47.568C53.3406 48.2238 53.2486 48.9224 52.9092 49.5103C52.5698 50.0982 52.0107 50.5272 51.355 50.703L24.155 57.991C23.4993 58.1666 22.8006 58.0746 22.2127 57.7352C21.6248 57.3958 21.1958 56.8367 21.02 56.181L16.465 39.181C16.2894 38.5253 16.3814 37.8266 16.7208 37.2387C17.0603 36.6508 17.6193 36.2218 18.275 36.046H18.274ZM44.812 26.285C45.4615 26.1109 46.1388 26.0665 46.8055 26.1542C47.4721 26.2419 48.1149 26.4601 48.6972 26.7962C49.2796 27.1324 49.79 27.5799 50.1993 28.1133C50.6087 28.6467 50.9089 29.2556 51.083 29.905L55.638 46.905C55.8121 47.5545 55.8565 48.2318 55.7688 48.8985C55.6811 49.5651 55.4629 50.2079 55.1268 50.7902C54.7906 51.3726 54.3431 51.883 53.8097 52.2923C53.2763 52.7017 52.6675 53.0019 52.018 53.176L24.818 60.464C24.1686 60.6381 23.4912 60.6825 22.8245 60.5948C22.1579 60.5071 21.5151 60.2889 20.9328 59.9528C20.3505 59.6166 19.84 59.1691 19.4307 58.6357C19.0213 58.1023 18.7211 57.4935 18.547 56.844L13.992 39.844C13.8179 39.1946 13.7735 38.5172 13.8612 37.8505C13.9489 37.1839 14.1671 36.5411 14.5032 35.9588C14.8394 35.3765 15.2869 34.866 15.8203 34.4567C16.3537 34.0473 16.9626 33.7471 17.612 33.573L44.812 26.285Z" fill="#8FD945"/>
<path d="M35.23 28.853L27.194 31.006L34.4 57.897L42.436 55.744L35.23 28.853Z" fill="#8FD945"/>
<path d="M54.517 42.402L52.364 34.366L15.111 44.348L17.264 52.384L54.517 42.402Z" fill="#8FD945"/>
<g style="mix-blend-mode:multiply">
<g style="mix-blend-mode:multiply">
<path fill-rule="evenodd" clip-rule="evenodd" d="M39.926 46.324L31.861 48.485L32.192 49.721L40.257 47.56L39.926 46.324ZM29.702 40.426L37.767 38.265L37.436 37.029L29.371 39.19L29.702 40.426Z" fill="#8FD945"/>
</g>
</g>
<path d="M54.831 24.945C55.0946 23.9613 54.9566 22.9132 54.4475 22.0312C53.9383 21.1493 53.0997 20.5057 52.116 20.242L17.497 10.966C16.5133 10.7024 15.4652 10.8404 14.5832 11.3495C13.7013 11.8587 13.0577 12.6973 12.794 13.681L11.883 17.081C11.6194 18.0647 11.7574 19.1128 12.2665 19.9948C12.7757 20.8767 13.6143 21.5203 14.598 21.784L49.217 31.06C50.2007 31.3236 51.2488 31.1856 52.1308 30.6765C53.0128 30.1673 53.6563 29.3287 53.92 28.345L54.831 24.945Z" fill="url(#paint1_linear)"/>
<path fill-rule="evenodd" clip-rule="evenodd" d="M16.834 13.438L51.453 22.714C51.6154 22.7575 51.7676 22.8326 51.901 22.9349C52.0343 23.0373 52.1462 23.1649 52.2303 23.3105C52.3143 23.4561 52.3688 23.6169 52.3908 23.7836C52.4127 23.9502 52.4015 24.1196 52.358 24.282L51.447 27.682C51.4035 27.8444 51.3284 27.9966 51.226 28.13C51.1237 28.2634 50.996 28.3753 50.8504 28.4593C50.7048 28.5433 50.5441 28.5979 50.3774 28.6198C50.2107 28.6417 50.0413 28.6305 49.879 28.587L15.26 19.311C15.0976 19.2675 14.9453 19.1924 14.812 19.09C14.6786 18.9877 14.5667 18.8601 14.4827 18.7145C14.3986 18.5688 14.3441 18.4081 14.3222 18.2414C14.3003 18.0747 14.3114 17.9054 14.355 17.743L15.266 14.343C15.3095 14.1806 15.3846 14.0284 15.4869 13.895C15.5893 13.7616 15.7169 13.6497 15.8625 13.5657C16.0081 13.4816 16.1688 13.4271 16.3355 13.4052C16.5022 13.3833 16.6716 13.3944 16.834 13.438ZM52.115 20.241C53.0986 20.5046 53.9373 21.1482 54.4464 22.0302C54.9556 22.9122 55.0936 23.9603 54.83 24.944L53.919 28.344C53.6553 29.3277 53.0117 30.1663 52.1297 30.6755C51.2478 31.1846 50.1997 31.3226 49.216 31.059L14.597 21.783C13.6133 21.5193 12.7746 20.8757 12.2655 19.9938C11.7563 19.1118 11.6184 18.0637 11.882 17.08L12.793 13.68C13.0566 12.6963 13.7002 11.8577 14.5822 11.3485C15.4642 10.8394 16.5123 10.7014 17.496 10.965L52.115 20.241Z" fill="#8FD945"/>
<path d="M38.824 16.68L30.788 14.527L27.889 25.345L35.926 27.498L38.825 16.68H38.824Z" fill="#8FD945"/>
<g style="mix-blend-mode:multiply">
<g style="mix-blend-mode:multiply">
<path fill-rule="evenodd" clip-rule="evenodd" d="M38.426 18.08L30.426 15.84L30.746 14.4L38.882 16.657L38.426 18.08Z" fill="#8FD945"/>
</g>
</g>
</g>
<defs>
<linearGradient id="paint0_linear" x1="31.212" y1="29.929" x2="38.417" y2="56.821" gradientUnits="userSpaceOnUse">
<stop stop-color="#5374E9"/>
<stop offset="1" stop-color="#1F47D4"/>
</linearGradient>
<linearGradient id="paint1_linear" x1="34.806" y1="15.604" x2="31.907" y2="26.422" gradientUnits="userSpaceOnUse">
<stop stop-color="#538FE9"/>
<stop offset="1" stop-color="#1F5DD4"/>
</linearGradient>
<clipPath id="clip0">
<rect width="64" height="64" fill="white"/>
</clipPath>
</defs>
</svg>
