<svg width="64" height="64" viewBox="0 0 64 64" fill="none" xmlns="http://www.w3.org/2000/svg">
<g clip-path="url(#clip0)">
<path d="M62.6394 27.1619L26.9315 62.8699C26.086 63.7153 24.6974 63.6974 23.83 62.83L17.8247 56.8247C16.9572 55.9572 16.9392 54.5685 17.7847 53.7231C19.6942 51.8135 19.6536 48.6659 17.6942 46.7064C15.7347 44.747 12.5872 44.7065 10.6776 46.616C9.83217 47.4614 8.44352 47.4435 7.57598 46.576L1.57071 40.5707C0.703282 39.7033 0.685359 38.3146 1.53079 37.4692L37.2389 1.76114C38.0842 0.915809 39.4727 0.933842 40.3402 1.80135L46.3495 7.81059C47.1981 8.65924 47.2367 10.0111 46.4361 10.864C42.1389 15.4425 48.9475 22.272 53.5368 17.9647C54.3896 17.1642 55.7416 17.2027 56.5902 18.0513L62.5995 24.0606C63.4668 24.9279 63.4849 26.3165 62.6394 27.1619Z" fill="#CAEE7E"/>
<path d="M46.436 10.8641C47.2364 10.0114 47.1981 8.65932 46.3494 7.81067L40.3402 1.80142C39.4727 0.933993 38.0841 0.915884 37.2387 1.76129L15.3848 23.6152L40.7854 49.0159L62.6394 27.162C63.4847 26.3166 63.4668 24.928 62.5992 24.0605L56.59 18.0513C55.7414 17.2026 54.3894 17.1642 53.5365 17.9647C48.9582 22.2619 42.1287 15.4534 46.436 10.8641Z" fill="#E3F98F"/>
<path opacity="0.2" d="M37.0018 45.3323L34.3281 48.0061L37.0018 50.6799L39.6756 48.0061L37.0018 45.3323Z" fill="#59A320"/>
<path opacity="0.2" d="M33.6597 41.9902L30.9859 44.6639L33.6597 47.3377L36.3334 44.6639L33.6597 41.9902Z" fill="#59A320"/>
<path opacity="0.2" d="M30.3174 38.648L27.6437 41.3218L30.3174 43.9955L32.9912 41.3218L30.3174 38.648Z" fill="#59A320"/>
<path opacity="0.2" d="M26.9752 35.3058L24.3015 37.9796L26.9752 40.6533L29.649 37.9796L26.9752 35.3058Z" fill="#59A320"/>
<path opacity="0.2" d="M23.633 31.9636L20.9593 34.6374L23.633 37.3111L26.3068 34.6374L23.633 31.9636Z" fill="#59A320"/>
<path opacity="0.2" d="M20.2909 28.6214L17.6171 31.2952L20.2909 33.9689L22.9646 31.2952L20.2909 28.6214Z" fill="#59A320"/>
<path opacity="0.2" d="M16.9487 25.2792L14.2749 27.9529L16.9487 30.6267L19.6224 27.9529L16.9487 25.2792Z" fill="#59A320"/>
<path opacity="0.2" d="M15.3727 23.699L12.699 26.3727L13.6796 27.3534L16.3534 24.6796L15.3727 23.699Z" fill="#59A320"/>
<path opacity="0.2" d="M40.2596 48.5858L37.5858 51.2596L38.0412 51.7149L40.7149 49.0412L40.2596 48.5858Z" fill="#59A320"/>
<path d="M35.55 28.5371C37.0044 27.6592 37.4412 25.7497 36.5255 24.2721C35.6098 22.7946 33.6884 22.3084 32.234 23.1862C30.7795 24.0641 30.3428 25.9736 31.2585 27.4512C32.1742 28.9288 34.0955 29.4149 35.55 28.5371Z" fill="#75D52B"/>
<path d="M37.6078 32.4419C39.2077 31.4763 39.7624 29.4956 38.8467 28.018C37.931 26.5404 35.8917 26.1254 34.2918 27.0911C32.6919 28.0567 32.1373 30.0374 33.053 31.515C33.9686 32.9925 36.0079 33.4076 37.6078 32.4419Z" fill="#75D52B"/>
<path d="M40.0745 31.6184C40.6937 33.5939 40.0834 35.518 38.7112 35.9159C37.3391 36.3138 35.7248 35.035 35.1055 33.0594C34.4863 31.0839 35.0967 29.1599 36.4688 28.762C37.8409 28.364 39.4552 29.6429 40.0745 31.6184Z" fill="#75D52B"/>
<path d="M41.1207 25.953C42.6995 24.3743 42.666 21.7812 41.046 20.1612C39.426 18.5413 36.833 18.5078 35.2542 20.0865C33.6755 21.6653 33.709 24.2583 35.3289 25.8783C36.9489 27.4983 39.542 27.5318 41.1207 25.953Z" fill="#75D52B"/>
<path d="M44.9406 30.3449C46.6772 28.6083 46.7718 25.8872 45.1518 24.2672C43.5318 22.6472 40.8107 22.7418 39.0741 24.4784C37.3375 26.2149 37.243 28.936 38.863 30.556C40.483 32.176 43.204 32.0815 44.9406 30.3449Z" fill="#75D52B"/>
<path d="M47.4161 34.4785C49.0382 33.5431 49.2209 30.8777 47.8244 28.5253C46.4278 26.1728 43.9807 25.0241 42.3587 25.9596C40.7367 26.895 40.5539 29.5603 41.9505 31.9128C43.347 34.2652 45.7941 35.4139 47.4161 34.4785Z" fill="#75D52B"/>
<path d="M33.645 19.285C34.2505 18.9942 34.0787 17.433 33.2614 15.7979C32.444 14.1629 31.2906 13.0731 30.6852 13.3639C30.0797 13.6547 30.2515 15.2159 31.0688 16.8509C31.8862 18.486 33.0396 19.5758 33.645 19.285Z" fill="#75D52B"/>
<path d="M36.532 18.0642C36.9269 18.2852 37.7738 17.4921 38.4237 16.2927C39.0736 15.0934 39.2804 13.9419 38.8856 13.7208C38.4908 13.4998 37.6439 14.2929 36.9939 15.4923C36.344 16.6917 36.1372 17.8431 36.532 18.0642Z" fill="#75D52B"/>
<path d="M28.3332 22.0548C28.3937 22.4998 29.5506 22.7379 30.9172 22.5868C32.2838 22.4357 33.3426 21.9525 33.2821 21.5075C33.2216 21.0626 32.0647 20.8244 30.6981 20.9756C29.3315 21.1267 28.2727 21.6099 28.3332 22.0548Z" fill="#75D52B"/>
</g>
<defs>
<clipPath id="clip0">
<rect width="64" height="64" fill="white"/>
</clipPath>
</defs>
</svg>
