<svg width="180" height="61" viewBox="0 0 180 61" fill="none" xmlns="http://www.w3.org/2000/svg">
<g filter="url(#filter0_dd)">
<rect x="6" y="2" width="168" height="49" rx="5" fill="#A5C437"/>
</g>
<path d="M68.2511 26.574C68.9231 26.694 69.4931 27.048 69.9611 27.636C70.4291 28.224 70.6631 28.89 70.6631 29.634C70.6631 30.27 70.4951 30.846 70.1591 31.362C69.8351 31.866 69.3611 32.268 68.7371 32.568C68.1131 32.856 67.3871 33 66.5591 33H61.5551V20.49H66.3251C67.1771 20.49 67.9091 20.634 68.5211 20.922C69.1331 21.21 69.5951 21.6 69.9071 22.092C70.2191 22.572 70.3751 23.112 70.3751 23.712C70.3751 24.432 70.1831 25.032 69.7991 25.512C69.4151 25.992 68.8991 26.346 68.2511 26.574ZM63.6071 25.746H66.1451C66.8171 25.746 67.3391 25.596 67.7111 25.296C68.0951 24.984 68.2871 24.54 68.2871 23.964C68.2871 23.4 68.0951 22.962 67.7111 22.65C67.3391 22.326 66.8171 22.164 66.1451 22.164H63.6071V25.746ZM66.3791 31.326C67.0751 31.326 67.6211 31.158 68.0171 30.822C68.4131 30.486 68.6111 30.018 68.6111 29.418C68.6111 28.806 68.4011 28.32 67.9811 27.96C67.5611 27.6 67.0031 27.42 66.3071 27.42H63.6071V31.326H66.3791ZM81.875 23.082V33H79.823V31.83C79.499 32.238 79.073 32.562 78.545 32.802C78.029 33.03 77.477 33.144 76.889 33.144C76.109 33.144 75.407 32.982 74.783 32.658C74.171 32.334 73.685 31.854 73.325 31.218C72.977 30.582 72.803 29.814 72.803 28.914V23.082H74.837V28.608C74.837 29.496 75.059 30.18 75.503 30.66C75.947 31.128 76.553 31.362 77.321 31.362C78.089 31.362 78.695 31.128 79.139 30.66C79.595 30.18 79.823 29.496 79.823 28.608V23.082H81.875ZM86.9764 24.756V30.246C86.9764 30.618 87.0604 30.888 87.2284 31.056C87.4084 31.212 87.7084 31.29 88.1284 31.29H89.3884V33H87.7684C86.8444 33 86.1364 32.784 85.6444 32.352C85.1524 31.92 84.9064 31.218 84.9064 30.246V24.756H83.7364V23.082H84.9064V20.616H86.9764V23.082H89.3884V24.756H86.9764ZM93.6737 24.756V30.246C93.6737 30.618 93.7577 30.888 93.9257 31.056C94.1057 31.212 94.4057 31.29 94.8257 31.29H96.0857V33H94.4657C93.5417 33 92.8337 32.784 92.3417 32.352C91.8497 31.92 91.6037 31.218 91.6037 30.246V24.756H90.4337V23.082H91.6037V20.616H93.6737V23.082H96.0857V24.756H93.6737ZM102.279 33.162C101.343 33.162 100.497 32.952 99.741 32.532C98.985 32.1 98.391 31.5 97.959 30.732C97.527 29.952 97.311 29.052 97.311 28.032C97.311 27.024 97.533 26.13 97.977 25.35C98.421 24.57 99.027 23.97 99.795 23.55C100.563 23.13 101.421 22.92 102.369 22.92C103.317 22.92 104.175 23.13 104.943 23.55C105.711 23.97 106.317 24.57 106.761 25.35C107.205 26.13 107.427 27.024 107.427 28.032C107.427 29.04 107.199 29.934 106.743 30.714C106.287 31.494 105.663 32.1 104.871 32.532C104.091 32.952 103.227 33.162 102.279 33.162ZM102.279 31.38C102.807 31.38 103.299 31.254 103.755 31.002C104.223 30.75 104.601 30.372 104.889 29.868C105.177 29.364 105.321 28.752 105.321 28.032C105.321 27.312 105.183 26.706 104.907 26.214C104.631 25.71 104.265 25.332 103.809 25.08C103.353 24.828 102.861 24.702 102.333 24.702C101.805 24.702 101.313 24.828 100.857 25.08C100.413 25.332 100.059 25.71 99.795 26.214C99.531 26.706 99.399 27.312 99.399 28.032C99.399 29.1 99.669 29.928 100.209 30.516C100.761 31.092 101.451 31.38 102.279 31.38ZM114.459 22.92C115.239 22.92 115.935 23.082 116.547 23.406C117.171 23.73 117.657 24.21 118.005 24.846C118.353 25.482 118.527 26.25 118.527 27.15V33H116.493V27.456C116.493 26.568 116.271 25.89 115.827 25.422C115.383 24.942 114.777 24.702 114.009 24.702C113.241 24.702 112.629 24.942 112.173 25.422C111.729 25.89 111.507 26.568 111.507 27.456V33H109.455V23.082H111.507V24.216C111.843 23.808 112.269 23.49 112.785 23.262C113.313 23.034 113.871 22.92 114.459 22.92Z" fill="#333915"/>
<defs>
<filter id="filter0_dd" x="0" y="0" width="180" height="61" filterUnits="userSpaceOnUse" color-interpolation-filters="sRGB">
<feFlood flood-opacity="0" result="BackgroundImageFix"/>
<feColorMatrix in="SourceAlpha" type="matrix" values="0 0 0 0 0 0 0 0 0 0 0 0 0 0 0 0 0 0 127 0"/>
<feOffset dy="4"/>
<feColorMatrix type="matrix" values="0 0 0 0 0.419608 0 0 0 0 0.494118 0 0 0 0 0.14902 0 0 0 1 0"/>
<feBlend mode="normal" in2="BackgroundImageFix" result="effect1_dropShadow"/>
<feColorMatrix in="SourceAlpha" type="matrix" values="0 0 0 0 0 0 0 0 0 0 0 0 0 0 0 0 0 0 127 0"/>
<feOffset dy="4"/>
<feGaussianBlur stdDeviation="3"/>
<feColorMatrix type="matrix" values="0 0 0 0 0.419608 0 0 0 0 0.494118 0 0 0 0 0.14902 0 0 0 1 0"/>
<feBlend mode="normal" in2="effect1_dropShadow" result="effect2_dropShadow"/>
<feBlend mode="normal" in="SourceGraphic" in2="effect2_dropShadow" result="shape"/>
</filter>
</defs>
</svg>
