<svg width="192" height="73" viewBox="0 0 192 73" fill="none" xmlns="http://www.w3.org/2000/svg">
<g filter="url(#filter0_dd)">
<rect x="12" y="8" width="168" height="49" rx="5" fill="#212416"/>
<rect x="13" y="9" width="166" height="47" rx="4" stroke="#909772" stroke-width="2"/>
</g>
<path d="M74.2511 32.574C74.9231 32.694 75.4931 33.048 75.9611 33.636C76.4291 34.224 76.6631 34.89 76.6631 35.634C76.6631 36.27 76.4951 36.846 76.1591 37.362C75.8351 37.866 75.3611 38.268 74.7371 38.568C74.1131 38.856 73.3871 39 72.5591 39H67.5551V26.49H72.3251C73.1771 26.49 73.9091 26.634 74.5211 26.922C75.1331 27.21 75.5951 27.6 75.9071 28.092C76.2191 28.572 76.3751 29.112 76.3751 29.712C76.3751 30.432 76.1831 31.032 75.7991 31.512C75.4151 31.992 74.8991 32.346 74.2511 32.574ZM69.6071 31.746H72.1451C72.8171 31.746 73.3391 31.596 73.7111 31.296C74.0951 30.984 74.2871 30.54 74.2871 29.964C74.2871 29.4 74.0951 28.962 73.7111 28.65C73.3391 28.326 72.8171 28.164 72.1451 28.164H69.6071V31.746ZM72.3791 37.326C73.0751 37.326 73.6211 37.158 74.0171 36.822C74.4131 36.486 74.6111 36.018 74.6111 35.418C74.6111 34.806 74.4011 34.32 73.9811 33.96C73.5611 33.6 73.0031 33.42 72.3071 33.42H69.6071V37.326H72.3791ZM87.875 29.082V39H85.823V37.83C85.499 38.238 85.073 38.562 84.545 38.802C84.029 39.03 83.477 39.144 82.889 39.144C82.109 39.144 81.407 38.982 80.783 38.658C80.171 38.334 79.685 37.854 79.325 37.218C78.977 36.582 78.803 35.814 78.803 34.914V29.082H80.837V34.608C80.837 35.496 81.059 36.18 81.503 36.66C81.947 37.128 82.553 37.362 83.321 37.362C84.089 37.362 84.695 37.128 85.139 36.66C85.595 36.18 85.823 35.496 85.823 34.608V29.082H87.875ZM92.9764 30.756V36.246C92.9764 36.618 93.0604 36.888 93.2284 37.056C93.4084 37.212 93.7084 37.29 94.1284 37.29H95.3884V39H93.7684C92.8444 39 92.1364 38.784 91.6444 38.352C91.1524 37.92 90.9064 37.218 90.9064 36.246V30.756H89.7364V29.082H90.9064V26.616H92.9764V29.082H95.3884V30.756H92.9764ZM99.6737 30.756V36.246C99.6737 36.618 99.7577 36.888 99.9257 37.056C100.106 37.212 100.406 37.29 100.826 37.29H102.086V39H100.466C99.5417 39 98.8337 38.784 98.3417 38.352C97.8497 37.92 97.6037 37.218 97.6037 36.246V30.756H96.4337V29.082H97.6037V26.616H99.6737V29.082H102.086V30.756H99.6737ZM108.279 39.162C107.343 39.162 106.497 38.952 105.741 38.532C104.985 38.1 104.391 37.5 103.959 36.732C103.527 35.952 103.311 35.052 103.311 34.032C103.311 33.024 103.533 32.13 103.977 31.35C104.421 30.57 105.027 29.97 105.795 29.55C106.563 29.13 107.421 28.92 108.369 28.92C109.317 28.92 110.175 29.13 110.943 29.55C111.711 29.97 112.317 30.57 112.761 31.35C113.205 32.13 113.427 33.024 113.427 34.032C113.427 35.04 113.199 35.934 112.743 36.714C112.287 37.494 111.663 38.1 110.871 38.532C110.091 38.952 109.227 39.162 108.279 39.162ZM108.279 37.38C108.807 37.38 109.299 37.254 109.755 37.002C110.223 36.75 110.601 36.372 110.889 35.868C111.177 35.364 111.321 34.752 111.321 34.032C111.321 33.312 111.183 32.706 110.907 32.214C110.631 31.71 110.265 31.332 109.809 31.08C109.353 30.828 108.861 30.702 108.333 30.702C107.805 30.702 107.313 30.828 106.857 31.08C106.413 31.332 106.059 31.71 105.795 32.214C105.531 32.706 105.399 33.312 105.399 34.032C105.399 35.1 105.669 35.928 106.209 36.516C106.761 37.092 107.451 37.38 108.279 37.38ZM120.459 28.92C121.239 28.92 121.935 29.082 122.547 29.406C123.171 29.73 123.657 30.21 124.005 30.846C124.353 31.482 124.527 32.25 124.527 33.15V39H122.493V33.456C122.493 32.568 122.271 31.89 121.827 31.422C121.383 30.942 120.777 30.702 120.009 30.702C119.241 30.702 118.629 30.942 118.173 31.422C117.729 31.89 117.507 32.568 117.507 33.456V39H115.455V29.082H117.507V30.216C117.843 29.808 118.269 29.49 118.785 29.262C119.313 29.034 119.871 28.92 120.459 28.92Z" fill="#F9FFDE"/>
<defs>
<filter id="filter0_dd" x="0" y="0" width="192" height="73" filterUnits="userSpaceOnUse" color-interpolation-filters="sRGB">
<feFlood flood-opacity="0" result="BackgroundImageFix"/>
<feColorMatrix in="SourceAlpha" type="matrix" values="0 0 0 0 0 0 0 0 0 0 0 0 0 0 0 0 0 0 127 0"/>
<feOffset dy="4"/>
<feColorMatrix type="matrix" values="0 0 0 0 0.564706 0 0 0 0 0.592157 0 0 0 0 0.447059 0 0 0 1 0"/>
<feBlend mode="normal" in2="BackgroundImageFix" result="effect1_dropShadow"/>
<feColorMatrix in="SourceAlpha" type="matrix" values="0 0 0 0 0 0 0 0 0 0 0 0 0 0 0 0 0 0 127 0"/>
<feOffset dy="4"/>
<feGaussianBlur stdDeviation="6"/>
<feColorMatrix type="matrix" values="0 0 0 0 0.419608 0 0 0 0 0.494118 0 0 0 0 0.14902 0 0 0 1 0"/>
<feBlend mode="normal" in2="effect1_dropShadow" result="effect2_dropShadow"/>
<feBlend mode="normal" in="SourceGraphic" in2="effect2_dropShadow" result="shape"/>
</filter>
</defs>
</svg>
