<svg width="168" height="53" viewBox="0 0 168 53" fill="none" xmlns="http://www.w3.org/2000/svg">
<g filter="url(#filter0_d)">
<rect width="168" height="49" rx="5" fill="#212416"/>
<rect x="1" y="1" width="166" height="47" rx="4" stroke="#909772" stroke-width="2"/>
</g>
<path d="M62.2511 24.574C62.9231 24.694 63.4931 25.048 63.9611 25.636C64.4291 26.224 64.6631 26.89 64.6631 27.634C64.6631 28.27 64.4951 28.846 64.1591 29.362C63.8351 29.866 63.3611 30.268 62.7371 30.568C62.1131 30.856 61.3871 31 60.5591 31H55.5551V18.49H60.3251C61.1771 18.49 61.9091 18.634 62.5211 18.922C63.1331 19.21 63.5951 19.6 63.9071 20.092C64.2191 20.572 64.3751 21.112 64.3751 21.712C64.3751 22.432 64.1831 23.032 63.7991 23.512C63.4151 23.992 62.8991 24.346 62.2511 24.574ZM57.6071 23.746H60.1451C60.8171 23.746 61.3391 23.596 61.7111 23.296C62.0951 22.984 62.2871 22.54 62.2871 21.964C62.2871 21.4 62.0951 20.962 61.7111 20.65C61.3391 20.326 60.8171 20.164 60.1451 20.164H57.6071V23.746ZM60.3791 29.326C61.0751 29.326 61.6211 29.158 62.0171 28.822C62.4131 28.486 62.6111 28.018 62.6111 27.418C62.6111 26.806 62.4011 26.32 61.9811 25.96C61.5611 25.6 61.0031 25.42 60.3071 25.42H57.6071V29.326H60.3791ZM75.875 21.082V31H73.823V29.83C73.499 30.238 73.073 30.562 72.545 30.802C72.029 31.03 71.477 31.144 70.889 31.144C70.109 31.144 69.407 30.982 68.783 30.658C68.171 30.334 67.685 29.854 67.325 29.218C66.977 28.582 66.803 27.814 66.803 26.914V21.082H68.837V26.608C68.837 27.496 69.059 28.18 69.503 28.66C69.947 29.128 70.553 29.362 71.321 29.362C72.089 29.362 72.695 29.128 73.139 28.66C73.595 28.18 73.823 27.496 73.823 26.608V21.082H75.875ZM80.9764 22.756V28.246C80.9764 28.618 81.0604 28.888 81.2284 29.056C81.4084 29.212 81.7084 29.29 82.1284 29.29H83.3884V31H81.7684C80.8444 31 80.1364 30.784 79.6444 30.352C79.1524 29.92 78.9064 29.218 78.9064 28.246V22.756H77.7364V21.082H78.9064V18.616H80.9764V21.082H83.3884V22.756H80.9764ZM87.6737 22.756V28.246C87.6737 28.618 87.7577 28.888 87.9257 29.056C88.1057 29.212 88.4057 29.29 88.8257 29.29H90.0857V31H88.4657C87.5417 31 86.8337 30.784 86.3417 30.352C85.8497 29.92 85.6037 29.218 85.6037 28.246V22.756H84.4337V21.082H85.6037V18.616H87.6737V21.082H90.0857V22.756H87.6737ZM96.279 31.162C95.343 31.162 94.497 30.952 93.741 30.532C92.985 30.1 92.391 29.5 91.959 28.732C91.527 27.952 91.311 27.052 91.311 26.032C91.311 25.024 91.533 24.13 91.977 23.35C92.421 22.57 93.027 21.97 93.795 21.55C94.563 21.13 95.421 20.92 96.369 20.92C97.317 20.92 98.175 21.13 98.943 21.55C99.711 21.97 100.317 22.57 100.761 23.35C101.205 24.13 101.427 25.024 101.427 26.032C101.427 27.04 101.199 27.934 100.743 28.714C100.287 29.494 99.663 30.1 98.871 30.532C98.091 30.952 97.227 31.162 96.279 31.162ZM96.279 29.38C96.807 29.38 97.299 29.254 97.755 29.002C98.223 28.75 98.601 28.372 98.889 27.868C99.177 27.364 99.321 26.752 99.321 26.032C99.321 25.312 99.183 24.706 98.907 24.214C98.631 23.71 98.265 23.332 97.809 23.08C97.353 22.828 96.861 22.702 96.333 22.702C95.805 22.702 95.313 22.828 94.857 23.08C94.413 23.332 94.059 23.71 93.795 24.214C93.531 24.706 93.399 25.312 93.399 26.032C93.399 27.1 93.669 27.928 94.209 28.516C94.761 29.092 95.451 29.38 96.279 29.38ZM108.459 20.92C109.239 20.92 109.935 21.082 110.547 21.406C111.171 21.73 111.657 22.21 112.005 22.846C112.353 23.482 112.527 24.25 112.527 25.15V31H110.493V25.456C110.493 24.568 110.271 23.89 109.827 23.422C109.383 22.942 108.777 22.702 108.009 22.702C107.241 22.702 106.629 22.942 106.173 23.422C105.729 23.89 105.507 24.568 105.507 25.456V31H103.455V21.082H105.507V22.216C105.843 21.808 106.269 21.49 106.785 21.262C107.313 21.034 107.871 20.92 108.459 20.92Z" fill="#FAFFDE"/>
<defs>
<filter id="filter0_d" x="0" y="0" width="168" height="53" filterUnits="userSpaceOnUse" color-interpolation-filters="sRGB">
<feFlood flood-opacity="0" result="BackgroundImageFix"/>
<feColorMatrix in="SourceAlpha" type="matrix" values="0 0 0 0 0 0 0 0 0 0 0 0 0 0 0 0 0 0 127 0"/>
<feOffset dy="4"/>
<feColorMatrix type="matrix" values="0 0 0 0 0.334606 0 0 0 0 0.358333 0 0 0 0 0.232917 0 0 0 1 0"/>
<feBlend mode="normal" in2="BackgroundImageFix" result="effect1_dropShadow"/>
<feBlend mode="normal" in="SourceGraphic" in2="effect1_dropShadow" result="shape"/>
</filter>
</defs>
</svg>
