<svg width="141" height="53" viewBox="0 0 141 53" fill="none" xmlns="http://www.w3.org/2000/svg">
<g filter="url(#filter0_d)">
<rect width="141" height="48" rx="5" fill="#E2B85A"/>
</g>
<path d="M61.9286 16.405L57.6026 31H54.8936L51.8276 19.954L48.5726 31L45.8846 31.021L41.7476 16.405H44.2886L47.3126 28.291L50.5886 16.405H53.2766L56.3216 28.228L59.3666 16.405H61.9286ZM71.7151 23.503C72.4991 23.643 73.1641 24.056 73.7101 24.742C74.2561 25.428 74.5291 26.205 74.5291 27.073C74.5291 27.815 74.3331 28.487 73.9411 29.089C73.5631 29.677 73.0101 30.146 72.2821 30.496C71.5541 30.832 70.7071 31 69.7411 31H63.9031V16.405H69.4681C70.4621 16.405 71.3161 16.573 72.0301 16.909C72.7441 17.245 73.2831 17.7 73.6471 18.274C74.0111 18.834 74.1931 19.464 74.1931 20.164C74.1931 21.004 73.9691 21.704 73.5211 22.264C73.0731 22.824 72.4711 23.237 71.7151 23.503ZM66.2971 22.537H69.2581C70.0421 22.537 70.6511 22.362 71.0851 22.012C71.5331 21.648 71.7571 21.13 71.7571 20.458C71.7571 19.8 71.5331 19.289 71.0851 18.925C70.6511 18.547 70.0421 18.358 69.2581 18.358H66.2971V22.537ZM69.5311 29.047C70.3431 29.047 70.9801 28.851 71.4421 28.459C71.9041 28.067 72.1351 27.521 72.1351 26.821C72.1351 26.107 71.8901 25.54 71.4001 25.12C70.9101 24.7 70.2591 24.49 69.4471 24.49H66.2971V29.047H69.5311ZM86.5597 16.405V18.358H82.6747V31H80.2807V18.358H76.3747V16.405H86.5597ZM88.1862 23.671C88.1862 22.243 88.5152 20.962 89.1732 19.828C89.8452 18.694 90.7482 17.812 91.8822 17.182C93.0302 16.538 94.2832 16.216 95.6412 16.216C97.1952 16.216 98.5742 16.601 99.7782 17.371C100.996 18.127 101.878 19.205 102.424 20.605H99.5472C99.1692 19.835 98.6442 19.261 97.9722 18.883C97.3002 18.505 96.5232 18.316 95.6412 18.316C94.6752 18.316 93.8142 18.533 93.0582 18.967C92.3022 19.401 91.7072 20.024 91.2732 20.836C90.8532 21.648 90.6432 22.593 90.6432 23.671C90.6432 24.749 90.8532 25.694 91.2732 26.506C91.7072 27.318 92.3022 27.948 93.0582 28.396C93.8142 28.83 94.6752 29.047 95.6412 29.047C96.5232 29.047 97.3002 28.858 97.9722 28.48C98.6442 28.102 99.1692 27.528 99.5472 26.758H102.424C101.878 28.158 100.996 29.236 99.7782 29.992C98.5742 30.748 97.1952 31.126 95.6412 31.126C94.2692 31.126 93.0162 30.811 91.8822 30.181C90.7482 29.537 89.8452 28.648 89.1732 27.514C88.5152 26.38 88.1862 25.099 88.1862 23.671Z" fill="#35311A"/>
<path opacity="0.5" d="M111.515 22.465L120 30.95L128.485 22.465L127.071 21.05L120 28.122L112.929 21.05L111.515 22.465Z" fill="#262919"/>
<circle opacity="0.9" cx="22" cy="24" r="12" fill="#1C190D"/>
<path opacity="0.8" d="M24.3771 23.574C25.0491 23.694 25.6191 24.048 26.0871 24.636C26.5551 25.224 26.7891 25.89 26.7891 26.634C26.7891 27.27 26.6211 27.846 26.2851 28.362C25.9611 28.866 25.4871 29.268 24.8631 29.568C24.2391 29.856 23.5131 30 22.6851 30H17.6811V17.49H22.4511C23.3031 17.49 24.0351 17.634 24.6471 17.922C25.2591 18.21 25.7211 18.6 26.0331 19.092C26.3451 19.572 26.5011 20.112 26.5011 20.712C26.5011 21.432 26.3091 22.032 25.9251 22.512C25.5411 22.992 25.0251 23.346 24.3771 23.574ZM19.7331 22.746H22.2711C22.9431 22.746 23.4651 22.596 23.8371 22.296C24.2211 21.984 24.4131 21.54 24.4131 20.964C24.4131 20.4 24.2211 19.962 23.8371 19.65C23.4651 19.326 22.9431 19.164 22.2711 19.164H19.7331V22.746ZM22.5051 28.326C23.2011 28.326 23.7471 28.158 24.1431 27.822C24.5391 27.486 24.7371 27.018 24.7371 26.418C24.7371 25.806 24.5271 25.32 24.1071 24.96C23.6871 24.6 23.1291 24.42 22.4331 24.42H19.7331V28.326H22.5051Z" fill="white"/>
<defs>
<filter id="filter0_d" x="0" y="0" width="141" height="53" filterUnits="userSpaceOnUse" color-interpolation-filters="sRGB">
<feFlood flood-opacity="0" result="BackgroundImageFix"/>
<feColorMatrix in="SourceAlpha" type="matrix" values="0 0 0 0 0 0 0 0 0 0 0 0 0 0 0 0 0 0 127 0"/>
<feOffset dy="5"/>
<feColorMatrix type="matrix" values="0 0 0 0 0.504167 0 0 0 0 0.413047 0 0 0 0 0.21217 0 0 0 1 0"/>
<feBlend mode="normal" in2="BackgroundImageFix" result="effect1_dropShadow"/>
<feBlend mode="normal" in="SourceGraphic" in2="effect1_dropShadow" result="shape"/>
</filter>
</defs>
</svg>
