<svg width="224" height="72" viewBox="0 0 224 72" fill="none" xmlns="http://www.w3.org/2000/svg">
<g filter="url(#filter0_dd)">
<rect x="12" y="8" width="200" height="48" rx="5" fill="#E2B85A"/>
<rect x="12" y="8" width="200" height="48" rx="5" fill="url(#paint0_radial)" fill-opacity="0.5"/>
</g>
<path d="M35.8278 39.147C34.8478 39.147 33.9658 38.979 33.1818 38.643C32.3978 38.293 31.7818 37.803 31.3338 37.173C30.8858 36.543 30.6618 35.808 30.6618 34.968H33.2238C33.2798 35.598 33.5248 36.116 33.9588 36.522C34.4068 36.928 35.0298 37.131 35.8278 37.131C36.6538 37.131 37.2978 36.935 37.7598 36.543C38.2218 36.137 38.4528 35.619 38.4528 34.989C38.4528 34.499 38.3058 34.1 38.0118 33.792C37.7318 33.484 37.3748 33.246 36.9408 33.078C36.5208 32.91 35.9328 32.728 35.1768 32.532C34.2248 32.28 33.4478 32.028 32.8458 31.776C32.2578 31.51 31.7538 31.104 31.3338 30.558C30.9138 30.012 30.7038 29.284 30.7038 28.374C30.7038 27.534 30.9138 26.799 31.3338 26.169C31.7538 25.539 32.3418 25.056 33.0978 24.72C33.8538 24.384 34.7288 24.216 35.7228 24.216C37.1368 24.216 38.2918 24.573 39.1878 25.287C40.0978 25.987 40.6018 26.953 40.6998 28.185H38.0538C38.0118 27.653 37.7598 27.198 37.2978 26.82C36.8358 26.442 36.2268 26.253 35.4708 26.253C34.7848 26.253 34.2248 26.428 33.7908 26.778C33.3568 27.128 33.1398 27.632 33.1398 28.29C33.1398 28.738 33.2728 29.109 33.5388 29.403C33.8188 29.683 34.1688 29.907 34.5888 30.075C35.0088 30.243 35.5828 30.425 36.3108 30.621C37.2768 30.887 38.0608 31.153 38.6628 31.419C39.2788 31.685 39.7968 32.098 40.2168 32.658C40.6508 33.204 40.8678 33.939 40.8678 34.863C40.8678 35.605 40.6648 36.305 40.2588 36.963C39.8668 37.621 39.2858 38.153 38.5158 38.559C37.7598 38.951 36.8638 39.147 35.8278 39.147ZM54.2977 32.931C54.2977 33.365 54.2697 33.757 54.2137 34.107H45.3727C45.4427 35.031 45.7857 35.773 46.4017 36.333C47.0177 36.893 47.7737 37.173 48.6697 37.173C49.9577 37.173 50.8677 36.634 51.3997 35.556H53.9827C53.6327 36.62 52.9957 37.495 52.0717 38.181C51.1617 38.853 50.0277 39.189 48.6697 39.189C47.5637 39.189 46.5697 38.944 45.6877 38.454C44.8197 37.95 44.1337 37.25 43.6297 36.354C43.1397 35.444 42.8947 34.394 42.8947 33.204C42.8947 32.014 43.1327 30.971 43.6087 30.075C44.0987 29.165 44.7777 28.465 45.6457 27.975C46.5277 27.485 47.5357 27.24 48.6697 27.24C49.7617 27.24 50.7347 27.478 51.5887 27.954C52.4427 28.43 53.1077 29.102 53.5837 29.97C54.0597 30.824 54.2977 31.811 54.2977 32.931ZM51.7987 32.175C51.7847 31.293 51.4697 30.586 50.8537 30.054C50.2377 29.522 49.4747 29.256 48.5647 29.256C47.7387 29.256 47.0317 29.522 46.4437 30.054C45.8557 30.572 45.5057 31.279 45.3937 32.175H51.7987ZM59.0476 23.46V39H56.6536V23.46H59.0476ZM72.7957 32.931C72.7957 33.365 72.7677 33.757 72.7117 34.107H63.8707C63.9407 35.031 64.2837 35.773 64.8997 36.333C65.5157 36.893 66.2717 37.173 67.1677 37.173C68.4557 37.173 69.3657 36.634 69.8977 35.556H72.4807C72.1307 36.62 71.4937 37.495 70.5697 38.181C69.6597 38.853 68.5257 39.189 67.1677 39.189C66.0617 39.189 65.0677 38.944 64.1857 38.454C63.3177 37.95 62.6317 37.25 62.1277 36.354C61.6377 35.444 61.3927 34.394 61.3927 33.204C61.3927 32.014 61.6307 30.971 62.1067 30.075C62.5967 29.165 63.2757 28.465 64.1437 27.975C65.0257 27.485 66.0337 27.24 67.1677 27.24C68.2597 27.24 69.2327 27.478 70.0867 27.954C70.9407 28.43 71.6057 29.102 72.0817 29.97C72.5577 30.824 72.7957 31.811 72.7957 32.931ZM70.2967 32.175C70.2827 31.293 69.9677 30.586 69.3517 30.054C68.7357 29.522 67.9727 29.256 67.0627 29.256C66.2367 29.256 65.5297 29.522 64.9417 30.054C64.3537 30.572 64.0037 31.279 63.8917 32.175H70.2967ZM74.3537 33.204C74.3537 32.014 74.5917 30.971 75.0677 30.075C75.5577 29.165 76.2297 28.465 77.0837 27.975C77.9377 27.485 78.9177 27.24 80.0237 27.24C81.4237 27.24 82.5787 27.576 83.4887 28.248C84.4127 28.906 85.0357 29.851 85.3577 31.083H82.7747C82.5647 30.509 82.2287 30.061 81.7667 29.739C81.3047 29.417 80.7237 29.256 80.0237 29.256C79.0437 29.256 78.2597 29.606 77.6717 30.306C77.0977 30.992 76.8107 31.958 76.8107 33.204C76.8107 34.45 77.0977 35.423 77.6717 36.123C78.2597 36.823 79.0437 37.173 80.0237 37.173C81.4097 37.173 82.3267 36.564 82.7747 35.346H85.3577C85.0217 36.522 84.3917 37.46 83.4677 38.16C82.5437 38.846 81.3957 39.189 80.0237 39.189C78.9177 39.189 77.9377 38.944 77.0837 38.454C76.2297 37.95 75.5577 37.25 75.0677 36.354C74.5917 35.444 74.3537 34.394 74.3537 33.204ZM90.5365 29.382V35.787C90.5365 36.221 90.6345 36.536 90.8305 36.732C91.0405 36.914 91.3905 37.005 91.8805 37.005H93.3505V39H91.4605C90.3825 39 89.5565 38.748 88.9825 38.244C88.4085 37.74 88.1215 36.921 88.1215 35.787V29.382H86.7565V27.429H88.1215V24.552H90.5365V27.429H93.3505V29.382H90.5365ZM100.214 33.162C100.214 32 100.452 30.971 100.928 30.075C101.418 29.179 102.076 28.486 102.902 27.996C103.742 27.492 104.666 27.24 105.674 27.24C106.584 27.24 107.375 27.422 108.047 27.786C108.733 28.136 109.279 28.577 109.685 29.109V27.429H112.1V39H109.685V37.278C109.279 37.824 108.726 38.279 108.026 38.643C107.326 39.007 106.528 39.189 105.632 39.189C104.638 39.189 103.728 38.937 102.902 38.433C102.076 37.915 101.418 37.201 100.928 36.291C100.452 35.367 100.214 34.324 100.214 33.162ZM109.685 33.204C109.685 32.406 109.517 31.713 109.181 31.125C108.859 30.537 108.432 30.089 107.9 29.781C107.368 29.473 106.794 29.319 106.178 29.319C105.562 29.319 104.988 29.473 104.456 29.781C103.924 30.075 103.49 30.516 103.154 31.104C102.832 31.678 102.671 32.364 102.671 33.162C102.671 33.96 102.832 34.66 103.154 35.262C103.49 35.864 103.924 36.326 104.456 36.648C105.002 36.956 105.576 37.11 106.178 37.11C106.794 37.11 107.368 36.956 107.9 36.648C108.432 36.34 108.859 35.892 109.181 35.304C109.517 34.702 109.685 34.002 109.685 33.204ZM123.493 29.382V35.787C123.493 36.221 123.591 36.536 123.787 36.732C123.997 36.914 124.347 37.005 124.837 37.005H126.307V39H124.417C123.339 39 122.513 38.748 121.939 38.244C121.365 37.74 121.078 36.921 121.078 35.787V29.382H119.713V27.429H121.078V24.552H123.493V27.429H126.307V29.382H123.493ZM133.532 39.189C132.44 39.189 131.453 38.944 130.571 38.454C129.689 37.95 128.996 37.25 128.492 36.354C127.988 35.444 127.736 34.394 127.736 33.204C127.736 32.028 127.995 30.985 128.513 30.075C129.031 29.165 129.738 28.465 130.634 27.975C131.53 27.485 132.531 27.24 133.637 27.24C134.743 27.24 135.744 27.485 136.64 27.975C137.536 28.465 138.243 29.165 138.761 30.075C139.279 30.985 139.538 32.028 139.538 33.204C139.538 34.38 139.272 35.423 138.74 36.333C138.208 37.243 137.48 37.95 136.556 38.454C135.646 38.944 134.638 39.189 133.532 39.189ZM133.532 37.11C134.148 37.11 134.722 36.963 135.254 36.669C135.8 36.375 136.241 35.934 136.577 35.346C136.913 34.758 137.081 34.044 137.081 33.204C137.081 32.364 136.92 31.657 136.598 31.083C136.276 30.495 135.849 30.054 135.317 29.76C134.785 29.466 134.211 29.319 133.595 29.319C132.979 29.319 132.405 29.466 131.873 29.76C131.355 30.054 130.942 30.495 130.634 31.083C130.326 31.657 130.172 32.364 130.172 33.204C130.172 34.45 130.487 35.416 131.117 36.102C131.761 36.774 132.566 37.11 133.532 37.11ZM146.483 33.225L151.817 39H148.583L144.299 34.023V39H141.905V23.46H144.299V32.49L148.499 27.429H151.817L146.483 33.225ZM164.138 32.931C164.138 33.365 164.11 33.757 164.054 34.107H155.213C155.283 35.031 155.626 35.773 156.242 36.333C156.858 36.893 157.614 37.173 158.51 37.173C159.798 37.173 160.708 36.634 161.24 35.556H163.823C163.473 36.62 162.836 37.495 161.912 38.181C161.002 38.853 159.868 39.189 158.51 39.189C157.404 39.189 156.41 38.944 155.528 38.454C154.66 37.95 153.974 37.25 153.47 36.354C152.98 35.444 152.735 34.394 152.735 33.204C152.735 32.014 152.973 30.971 153.449 30.075C153.939 29.165 154.618 28.465 155.486 27.975C156.368 27.485 157.376 27.24 158.51 27.24C159.602 27.24 160.575 27.478 161.429 27.954C162.283 28.43 162.948 29.102 163.424 29.97C163.9 30.824 164.138 31.811 164.138 32.931ZM161.639 32.175C161.625 31.293 161.31 30.586 160.694 30.054C160.078 29.522 159.315 29.256 158.405 29.256C157.579 29.256 156.872 29.522 156.284 30.054C155.696 30.572 155.346 31.279 155.234 32.175H161.639ZM172.331 27.24C173.241 27.24 174.053 27.429 174.767 27.807C175.495 28.185 176.062 28.745 176.468 29.487C176.874 30.229 177.077 31.125 177.077 32.175V39H174.704V32.532C174.704 31.496 174.445 30.705 173.927 30.159C173.409 29.599 172.702 29.319 171.806 29.319C170.91 29.319 170.196 29.599 169.664 30.159C169.146 30.705 168.887 31.496 168.887 32.532V39H166.493V27.429H168.887V28.752C169.279 28.276 169.776 27.905 170.378 27.639C170.994 27.373 171.645 27.24 172.331 27.24Z" fill="#494324"/>
<path opacity="0.5" d="M182.515 30.465L191 38.95L199.485 30.465L198.071 29.05L191 36.122L183.929 29.05L182.515 30.465Z" fill="#262919"/>
<defs>
<filter id="filter0_dd" x="0" y="0" width="224" height="72" filterUnits="userSpaceOnUse" color-interpolation-filters="sRGB">
<feFlood flood-opacity="0" result="BackgroundImageFix"/>
<feColorMatrix in="SourceAlpha" type="matrix" values="0 0 0 0 0 0 0 0 0 0 0 0 0 0 0 0 0 0 127 0"/>
<feOffset dy="4"/>
<feColorMatrix type="matrix" values="0 0 0 0 0.501961 0 0 0 0 0.411765 0 0 0 0 0.211765 0 0 0 1 0"/>
<feBlend mode="normal" in2="BackgroundImageFix" result="effect1_dropShadow"/>
<feColorMatrix in="SourceAlpha" type="matrix" values="0 0 0 0 0 0 0 0 0 0 0 0 0 0 0 0 0 0 127 0"/>
<feOffset dy="4"/>
<feGaussianBlur stdDeviation="6"/>
<feColorMatrix type="matrix" values="0 0 0 0 0.676562 0 0 0 0 0.488353 0 0 0 0 0.0734375 0 0 0 1 0"/>
<feBlend mode="normal" in2="effect1_dropShadow" result="effect2_dropShadow"/>
<feBlend mode="normal" in="SourceGraphic" in2="effect2_dropShadow" result="shape"/>
</filter>
<radialGradient id="paint0_radial" cx="0" cy="0" r="1" gradientUnits="userSpaceOnUse" gradientTransform="translate(112 32) rotate(90) scale(24 100)">
<stop stop-color="white" stop-opacity="0.35"/>
<stop offset="1" stop-color="white" stop-opacity="0"/>
</radialGradient>
</defs>
</svg>
