<svg width="200" height="48" viewBox="0 0 200 48" fill="none" xmlns="http://www.w3.org/2000/svg">
<rect width="200" height="48" rx="5" fill="#AB883B"/>
<path d="M23.8278 31.147C22.8478 31.147 21.9658 30.979 21.1818 30.643C20.3978 30.293 19.7818 29.803 19.3338 29.173C18.8858 28.543 18.6618 27.808 18.6618 26.968H21.2238C21.2798 27.598 21.5248 28.116 21.9588 28.522C22.4068 28.928 23.0298 29.131 23.8278 29.131C24.6538 29.131 25.2978 28.935 25.7598 28.543C26.2218 28.137 26.4528 27.619 26.4528 26.989C26.4528 26.499 26.3058 26.1 26.0118 25.792C25.7318 25.484 25.3748 25.246 24.9408 25.078C24.5208 24.91 23.9328 24.728 23.1768 24.532C22.2248 24.28 21.4478 24.028 20.8458 23.776C20.2578 23.51 19.7538 23.104 19.3338 22.558C18.9138 22.012 18.7038 21.284 18.7038 20.374C18.7038 19.534 18.9138 18.799 19.3338 18.169C19.7538 17.539 20.3418 17.056 21.0978 16.72C21.8538 16.384 22.7288 16.216 23.7228 16.216C25.1368 16.216 26.2918 16.573 27.1878 17.287C28.0978 17.987 28.6018 18.953 28.6998 20.185H26.0538C26.0118 19.653 25.7598 19.198 25.2978 18.82C24.8358 18.442 24.2268 18.253 23.4708 18.253C22.7848 18.253 22.2248 18.428 21.7908 18.778C21.3568 19.128 21.1398 19.632 21.1398 20.29C21.1398 20.738 21.2728 21.109 21.5388 21.403C21.8188 21.683 22.1688 21.907 22.5888 22.075C23.0088 22.243 23.5828 22.425 24.3108 22.621C25.2768 22.887 26.0608 23.153 26.6628 23.419C27.2788 23.685 27.7968 24.098 28.2168 24.658C28.6508 25.204 28.8678 25.939 28.8678 26.863C28.8678 27.605 28.6648 28.305 28.2588 28.963C27.8668 29.621 27.2858 30.153 26.5158 30.559C25.7598 30.951 24.8638 31.147 23.8278 31.147ZM42.2977 24.931C42.2977 25.365 42.2697 25.757 42.2137 26.107H33.3727C33.4427 27.031 33.7857 27.773 34.4017 28.333C35.0177 28.893 35.7737 29.173 36.6697 29.173C37.9577 29.173 38.8677 28.634 39.3997 27.556H41.9827C41.6327 28.62 40.9957 29.495 40.0717 30.181C39.1617 30.853 38.0277 31.189 36.6697 31.189C35.5637 31.189 34.5697 30.944 33.6877 30.454C32.8197 29.95 32.1337 29.25 31.6297 28.354C31.1397 27.444 30.8947 26.394 30.8947 25.204C30.8947 24.014 31.1327 22.971 31.6087 22.075C32.0987 21.165 32.7777 20.465 33.6457 19.975C34.5277 19.485 35.5357 19.24 36.6697 19.24C37.7617 19.24 38.7347 19.478 39.5887 19.954C40.4427 20.43 41.1077 21.102 41.5837 21.97C42.0597 22.824 42.2977 23.811 42.2977 24.931ZM39.7987 24.175C39.7847 23.293 39.4697 22.586 38.8537 22.054C38.2377 21.522 37.4747 21.256 36.5647 21.256C35.7387 21.256 35.0317 21.522 34.4437 22.054C33.8557 22.572 33.5057 23.279 33.3937 24.175H39.7987ZM47.0476 15.46V31H44.6536V15.46H47.0476ZM60.7957 24.931C60.7957 25.365 60.7677 25.757 60.7117 26.107H51.8707C51.9407 27.031 52.2837 27.773 52.8997 28.333C53.5157 28.893 54.2717 29.173 55.1677 29.173C56.4557 29.173 57.3657 28.634 57.8977 27.556H60.4807C60.1307 28.62 59.4937 29.495 58.5697 30.181C57.6597 30.853 56.5257 31.189 55.1677 31.189C54.0617 31.189 53.0677 30.944 52.1857 30.454C51.3177 29.95 50.6317 29.25 50.1277 28.354C49.6377 27.444 49.3927 26.394 49.3927 25.204C49.3927 24.014 49.6307 22.971 50.1067 22.075C50.5967 21.165 51.2757 20.465 52.1437 19.975C53.0257 19.485 54.0337 19.24 55.1677 19.24C56.2597 19.24 57.2327 19.478 58.0867 19.954C58.9407 20.43 59.6057 21.102 60.0817 21.97C60.5577 22.824 60.7957 23.811 60.7957 24.931ZM58.2967 24.175C58.2827 23.293 57.9677 22.586 57.3517 22.054C56.7357 21.522 55.9727 21.256 55.0627 21.256C54.2367 21.256 53.5297 21.522 52.9417 22.054C52.3537 22.572 52.0037 23.279 51.8917 24.175H58.2967ZM62.3537 25.204C62.3537 24.014 62.5917 22.971 63.0677 22.075C63.5577 21.165 64.2297 20.465 65.0837 19.975C65.9377 19.485 66.9177 19.24 68.0237 19.24C69.4237 19.24 70.5787 19.576 71.4887 20.248C72.4127 20.906 73.0357 21.851 73.3577 23.083H70.7747C70.5647 22.509 70.2287 22.061 69.7667 21.739C69.3047 21.417 68.7237 21.256 68.0237 21.256C67.0437 21.256 66.2597 21.606 65.6717 22.306C65.0977 22.992 64.8107 23.958 64.8107 25.204C64.8107 26.45 65.0977 27.423 65.6717 28.123C66.2597 28.823 67.0437 29.173 68.0237 29.173C69.4097 29.173 70.3267 28.564 70.7747 27.346H73.3577C73.0217 28.522 72.3917 29.46 71.4677 30.16C70.5437 30.846 69.3957 31.189 68.0237 31.189C66.9177 31.189 65.9377 30.944 65.0837 30.454C64.2297 29.95 63.5577 29.25 63.0677 28.354C62.5917 27.444 62.3537 26.394 62.3537 25.204ZM78.5365 21.382V27.787C78.5365 28.221 78.6345 28.536 78.8305 28.732C79.0405 28.914 79.3905 29.005 79.8805 29.005H81.3505V31H79.4605C78.3825 31 77.5565 30.748 76.9825 30.244C76.4085 29.74 76.1215 28.921 76.1215 27.787V21.382H74.7565V19.429H76.1215V16.552H78.5365V19.429H81.3505V21.382H78.5365ZM88.214 25.162C88.214 24 88.452 22.971 88.928 22.075C89.418 21.179 90.076 20.486 90.902 19.996C91.742 19.492 92.666 19.24 93.674 19.24C94.584 19.24 95.375 19.422 96.047 19.786C96.733 20.136 97.279 20.577 97.685 21.109V19.429H100.1V31H97.685V29.278C97.279 29.824 96.726 30.279 96.026 30.643C95.326 31.007 94.528 31.189 93.632 31.189C92.638 31.189 91.728 30.937 90.902 30.433C90.076 29.915 89.418 29.201 88.928 28.291C88.452 27.367 88.214 26.324 88.214 25.162ZM97.685 25.204C97.685 24.406 97.517 23.713 97.181 23.125C96.859 22.537 96.432 22.089 95.9 21.781C95.368 21.473 94.794 21.319 94.178 21.319C93.562 21.319 92.988 21.473 92.456 21.781C91.924 22.075 91.49 22.516 91.154 23.104C90.832 23.678 90.671 24.364 90.671 25.162C90.671 25.96 90.832 26.66 91.154 27.262C91.49 27.864 91.924 28.326 92.456 28.648C93.002 28.956 93.576 29.11 94.178 29.11C94.794 29.11 95.368 28.956 95.9 28.648C96.432 28.34 96.859 27.892 97.181 27.304C97.517 26.702 97.685 26.002 97.685 25.204ZM111.493 21.382V27.787C111.493 28.221 111.591 28.536 111.787 28.732C111.997 28.914 112.347 29.005 112.837 29.005H114.307V31H112.417C111.339 31 110.513 30.748 109.939 30.244C109.365 29.74 109.078 28.921 109.078 27.787V21.382H107.713V19.429H109.078V16.552H111.493V19.429H114.307V21.382H111.493ZM121.532 31.189C120.44 31.189 119.453 30.944 118.571 30.454C117.689 29.95 116.996 29.25 116.492 28.354C115.988 27.444 115.736 26.394 115.736 25.204C115.736 24.028 115.995 22.985 116.513 22.075C117.031 21.165 117.738 20.465 118.634 19.975C119.53 19.485 120.531 19.24 121.637 19.24C122.743 19.24 123.744 19.485 124.64 19.975C125.536 20.465 126.243 21.165 126.761 22.075C127.279 22.985 127.538 24.028 127.538 25.204C127.538 26.38 127.272 27.423 126.74 28.333C126.208 29.243 125.48 29.95 124.556 30.454C123.646 30.944 122.638 31.189 121.532 31.189ZM121.532 29.11C122.148 29.11 122.722 28.963 123.254 28.669C123.8 28.375 124.241 27.934 124.577 27.346C124.913 26.758 125.081 26.044 125.081 25.204C125.081 24.364 124.92 23.657 124.598 23.083C124.276 22.495 123.849 22.054 123.317 21.76C122.785 21.466 122.211 21.319 121.595 21.319C120.979 21.319 120.405 21.466 119.873 21.76C119.355 22.054 118.942 22.495 118.634 23.083C118.326 23.657 118.172 24.364 118.172 25.204C118.172 26.45 118.487 27.416 119.117 28.102C119.761 28.774 120.566 29.11 121.532 29.11ZM134.483 25.225L139.817 31H136.583L132.299 26.023V31H129.905V15.46H132.299V24.49L136.499 19.429H139.817L134.483 25.225ZM152.138 24.931C152.138 25.365 152.11 25.757 152.054 26.107H143.213C143.283 27.031 143.626 27.773 144.242 28.333C144.858 28.893 145.614 29.173 146.51 29.173C147.798 29.173 148.708 28.634 149.24 27.556H151.823C151.473 28.62 150.836 29.495 149.912 30.181C149.002 30.853 147.868 31.189 146.51 31.189C145.404 31.189 144.41 30.944 143.528 30.454C142.66 29.95 141.974 29.25 141.47 28.354C140.98 27.444 140.735 26.394 140.735 25.204C140.735 24.014 140.973 22.971 141.449 22.075C141.939 21.165 142.618 20.465 143.486 19.975C144.368 19.485 145.376 19.24 146.51 19.24C147.602 19.24 148.575 19.478 149.429 19.954C150.283 20.43 150.948 21.102 151.424 21.97C151.9 22.824 152.138 23.811 152.138 24.931ZM149.639 24.175C149.625 23.293 149.31 22.586 148.694 22.054C148.078 21.522 147.315 21.256 146.405 21.256C145.579 21.256 144.872 21.522 144.284 22.054C143.696 22.572 143.346 23.279 143.234 24.175H149.639ZM160.331 19.24C161.241 19.24 162.053 19.429 162.767 19.807C163.495 20.185 164.062 20.745 164.468 21.487C164.874 22.229 165.077 23.125 165.077 24.175V31H162.704V24.532C162.704 23.496 162.445 22.705 161.927 22.159C161.409 21.599 160.702 21.319 159.806 21.319C158.91 21.319 158.196 21.599 157.664 22.159C157.146 22.705 156.887 23.496 156.887 24.532V31H154.493V19.429H156.887V20.752C157.279 20.276 157.776 19.905 158.378 19.639C158.994 19.373 159.645 19.24 160.331 19.24Z" fill="#494324"/>
<path opacity="0.5" d="M170.515 22.465L179 30.95L187.485 22.465L186.071 21.05L179 28.122L171.929 21.05L170.515 22.465Z" fill="#262919"/>
</svg>
