<svg width="130" height="35" viewBox="0 0 130 35" fill="none" xmlns="http://www.w3.org/2000/svg">
<rect x="0.833333" y="0.833333" width="128.333" height="33.3333" rx="12.5" fill="#212416" fill-opacity="0.5" stroke="#4D5045" stroke-width="1.66667"/>
<path d="M130 13.3333C130 5.96954 124.03 0 116.667 0H65V35H116.667C124.03 35 130 29.0305 130 21.6667V13.3333Z" fill="#EFF7CF"/>
<path fill-rule="evenodd" clip-rule="evenodd" d="M103.407 22.0257C103.33 22.0274 103.254 22.0282 103.177 22.0282C97.5408 22.0282 92.972 17.4594 92.972 11.8235C92.972 11.7466 92.9729 11.6698 92.9746 11.5933C91.2763 12.9539 90.1889 15.0458 90.1889 17.3897C90.1889 21.4885 93.5117 24.8113 97.6105 24.8113C99.9544 24.8113 102.046 23.7239 103.407 22.0257ZM104.537 20.0626C104.094 20.1351 103.64 20.1728 103.177 20.1728C98.5656 20.1728 94.8274 16.4347 94.8274 11.8235C94.8274 11.3603 94.8651 10.906 94.9377 10.4633C95.0602 9.71522 95.2822 9.00056 95.5896 8.33337C94.7906 8.5109 94.0303 8.79149 93.3235 9.16047C90.3579 10.7086 88.3335 13.8127 88.3335 17.3897C88.3335 22.5132 92.487 26.6667 97.6105 26.6667C101.187 26.6667 104.292 24.6423 105.84 21.6768C106.209 20.97 106.489 20.2097 106.667 19.4106C106 19.718 105.285 19.94 104.537 20.0626Z" fill="#9EC410"/>
<path opacity="0.5" d="M34.3335 27.5H32.3335V24.5H34.3335V27.5ZM39.6975 25.278L37.5765 23.157L38.9905 21.743L41.1125 23.865L39.6995 25.278H39.6975ZM26.9695 25.278L25.5545 23.864L27.6745 21.742L29.0895 23.156L26.9695 25.277V25.278ZM33.3335 22.507C30.5685 22.5059 28.3278 20.2637 28.3285 17.4987C28.3292 14.7336 30.5711 12.4926 33.3362 12.493C36.1012 12.4934 38.3425 14.735 38.3425 17.5C38.3397 20.2649 36.0984 22.5053 33.3335 22.507ZM33.3335 14.493C31.673 14.4941 30.3278 15.8409 30.3285 17.5013C30.3292 19.1618 31.6757 20.5074 33.3362 20.507C34.9966 20.5066 36.3425 19.1605 36.3425 17.5C36.3408 15.8392 34.9943 14.4936 33.3335 14.493ZM43.3335 18.5H40.3335V16.5H43.3335V18.5ZM26.3335 18.5H23.3335V16.5H26.3335V18.5ZM38.9895 13.258L37.5765 11.843L39.6975 9.721L41.1125 11.136L38.9905 13.257L38.9895 13.258ZM27.6765 13.258L25.5565 11.137L26.9715 9.723L29.0915 11.845L27.6775 13.257L27.6765 13.258ZM34.3335 10.5H32.3335V7.5H34.3335V10.5Z" fill="white"/>
<rect opacity="0.5" x="0.833333" y="0.833333" width="128.333" height="33.3333" rx="12.5" stroke="#4D5045" stroke-width="1.66667"/>
</svg>
