<svg width="116" height="32" viewBox="0 0 116 32" fill="none" xmlns="http://www.w3.org/2000/svg">
<rect x="1" y="1" width="114" height="30" rx="4" fill="#2A2C23" stroke="#585E4B" stroke-width="2"/>
<g opacity="0.5">
<path d="M15.1626 17.0259L15.1626 17.0259C15.0258 17.2676 14.9607 17.5313 14.9093 17.7396C14.9046 17.7585 14.9001 17.777 14.8956 17.7949L14.3987 19.7823C14.3959 19.7936 14.393 19.8052 14.39 19.8172C14.3532 19.9637 14.3022 20.1666 14.2846 20.3462C14.2644 20.5529 14.2577 21.0048 14.6265 21.3736C14.9952 21.7424 15.4472 21.7357 15.6539 21.7155C15.8335 21.6979 16.0364 21.6469 16.1829 21.6101C16.1949 21.6071 16.2065 21.6042 16.2177 21.6014L18.2052 21.1045C18.2231 21.1 18.2416 21.0955 18.2605 21.0908C18.4688 21.0394 18.7325 20.9743 18.9742 20.8374L18.9742 20.8374C19.216 20.7006 19.4074 20.5079 19.5587 20.3558C19.5724 20.342 19.5858 20.3285 19.5989 20.3154L25.4572 14.4571C25.4669 14.4474 25.4766 14.4377 25.4863 14.428C25.7153 14.199 25.9382 13.9762 26.1057 13.7698C26.2914 13.541 26.4817 13.2478 26.5527 12.8628C26.5969 12.6229 26.5969 12.3771 26.5527 12.1372C26.4817 11.7522 26.2914 11.459 26.1057 11.2302C25.9382 11.0238 25.7153 10.801 25.4863 10.572L25.4572 10.5429C25.4475 10.5332 25.4378 10.5235 25.4281 10.5138C25.1991 10.2847 24.9763 10.0618 24.7699 9.89435C24.5411 9.70873 24.2478 9.5184 23.8629 9.44739C23.623 9.40316 23.3771 9.40316 23.1373 9.44739C22.7523 9.5184 22.459 9.70873 22.2303 9.89435C22.0239 10.0618 21.801 10.2847 21.5721 10.5138C21.5624 10.5235 21.5527 10.5332 21.543 10.5429L15.6847 16.4012C15.6716 16.4143 15.6581 16.4277 15.6443 16.4414C15.4921 16.5926 15.2995 16.7841 15.1626 17.0259Z" stroke="#90918A" stroke-width="2"/>
<path d="M21.4167 11.25L23.9167 9.58337L26.4167 12.0834L24.7501 14.5834L21.4167 11.25Z" fill="#90918A"/>
</g>
</svg>
