<svg width="156" height="32" viewBox="0 0 156 32" fill="none" xmlns="http://www.w3.org/2000/svg">
<path d="M0 16C0 7.16344 7.16344 0 16 0H78V32H16C7.16344 32 0 24.8366 0 16V16Z" fill="#1F2214"/>
<path d="M30.056 22.126C28.892 22.126 27.818 21.856 26.834 21.316C25.862 20.764 25.088 20.002 24.512 19.03C23.948 18.046 23.666 16.942 23.666 15.718C23.666 14.494 23.948 13.396 24.512 12.424C25.088 11.452 25.862 10.696 26.834 10.156C27.818 9.604 28.892 9.328 30.056 9.328C31.232 9.328 32.306 9.604 33.278 10.156C34.262 10.696 35.036 11.452 35.6 12.424C36.164 13.396 36.446 14.494 36.446 15.718C36.446 16.942 36.164 18.046 35.6 19.03C35.036 20.002 34.262 20.764 33.278 21.316C32.306 21.856 31.232 22.126 30.056 22.126ZM30.056 20.344C30.884 20.344 31.622 20.158 32.27 19.786C32.918 19.402 33.422 18.862 33.782 18.166C34.154 17.458 34.34 16.642 34.34 15.718C34.34 14.794 34.154 13.984 33.782 13.288C33.422 12.592 32.918 12.058 32.27 11.686C31.622 11.314 30.884 11.128 30.056 11.128C29.228 11.128 28.49 11.314 27.842 11.686C27.194 12.058 26.684 12.592 26.312 13.288C25.952 13.984 25.772 14.794 25.772 15.718C25.772 16.642 25.952 17.458 26.312 18.166C26.684 18.862 27.194 19.402 27.842 19.786C28.49 20.158 29.228 20.344 30.056 20.344ZM45.8272 9.49V11.164H40.5172V14.854H44.6572V16.528H40.5172V22H38.4652V9.49H45.8272ZM55.0909 9.49V11.164H49.7809V14.854H53.9209V16.528H49.7809V22H47.7289V9.49H55.0909Z" fill="white"/>
<path d="M156 16C156 7.16344 148.837 0 140 0H78V32H140C148.837 32 156 24.8366 156 16V16Z" fill="#A5C437"/>
<path d="M110.056 22.126C108.892 22.126 107.818 21.856 106.834 21.316C105.862 20.764 105.088 20.002 104.512 19.03C103.948 18.046 103.666 16.942 103.666 15.718C103.666 14.494 103.948 13.396 104.512 12.424C105.088 11.452 105.862 10.696 106.834 10.156C107.818 9.604 108.892 9.328 110.056 9.328C111.232 9.328 112.306 9.604 113.278 10.156C114.262 10.696 115.036 11.452 115.6 12.424C116.164 13.396 116.446 14.494 116.446 15.718C116.446 16.942 116.164 18.046 115.6 19.03C115.036 20.002 114.262 20.764 113.278 21.316C112.306 21.856 111.232 22.126 110.056 22.126ZM110.056 20.344C110.884 20.344 111.622 20.158 112.27 19.786C112.918 19.402 113.422 18.862 113.782 18.166C114.154 17.458 114.34 16.642 114.34 15.718C114.34 14.794 114.154 13.984 113.782 13.288C113.422 12.592 112.918 12.058 112.27 11.686C111.622 11.314 110.884 11.128 110.056 11.128C109.228 11.128 108.49 11.314 107.842 11.686C107.194 12.058 106.684 12.592 106.312 13.288C105.952 13.984 105.772 14.794 105.772 15.718C105.772 16.642 105.952 17.458 106.312 18.166C106.684 18.862 107.194 19.402 107.842 19.786C108.49 20.158 109.228 20.344 110.056 20.344ZM128.743 22H126.691L120.517 12.658V22H118.465V9.472H120.517L126.691 18.796V9.472H128.743V22Z" fill="#435113"/>
<rect x="1" y="1" width="154" height="30" rx="15" stroke="#4D5045" stroke-width="2"/>
</svg>
