<svg width="24" height="24" viewBox="0 0 24 24" fill="none" xmlns="http://www.w3.org/2000/svg">
<g clip-path="url(#clip0)">
<circle opacity="0.1" cx="12" cy="12" r="12" transform="rotate(-90 12 12)" fill="white"/>
<path d="M16.936 12.8L15.4344 14.3075C15.1236 14.6194 15.1241 15.1241 15.4355 15.4355C15.7472 15.7472 16.2528 15.7472 16.5645 15.4355L19.3333 12.6667C19.7015 12.2985 19.7015 11.7015 19.3333 11.3333L16.5645 8.56454C16.2528 8.25275 15.7472 8.25275 15.4355 8.56454C15.1241 8.87591 15.1236 9.38058 15.4344 9.69254L16.936 11.2L4.8 11.2C4.35817 11.2 4 11.5582 4 12C4 12.4418 4.35817 12.8 4.8 12.8L16.936 12.8Z" fill="white"/>
</g>
<defs>
<clipPath id="clip0">
<rect width="24" height="24" fill="white" transform="translate(0 24) rotate(-90)"/>
</clipPath>
</defs>
</svg>
