<svg width="416" height="54" viewBox="0 0 416 54" fill="none" xmlns="http://www.w3.org/2000/svg">
<g filter="url(#filter0_d)">
<rect width="416" height="48" rx="5" fill="#A5C437"/>
</g>
<path d="M186.303 16.258V19.135H182.397V31H178.806V19.135H174.9V16.258H186.303ZM195.623 31L192.557 25.435H191.696V31H188.105V16.258H194.132C195.294 16.258 196.281 16.461 197.093 16.867C197.919 17.273 198.535 17.833 198.941 18.547C199.347 19.247 199.55 20.031 199.55 20.899C199.55 21.879 199.27 22.754 198.71 23.524C198.164 24.294 197.352 24.84 196.274 25.162L199.676 31H195.623ZM191.696 22.894H193.922C194.58 22.894 195.07 22.733 195.392 22.411C195.728 22.089 195.896 21.634 195.896 21.046C195.896 20.486 195.728 20.045 195.392 19.723C195.07 19.401 194.58 19.24 193.922 19.24H191.696V22.894ZM210.981 28.396H205.479L204.597 31H200.838L206.172 16.258H210.33L215.664 31H211.863L210.981 28.396ZM210.057 25.624L208.23 20.227L206.424 25.624H210.057ZM222.81 16.258C224.364 16.258 225.722 16.566 226.884 17.182C228.046 17.798 228.942 18.666 229.572 19.786C230.216 20.892 230.538 22.173 230.538 23.629C230.538 25.071 230.216 26.352 229.572 27.472C228.942 28.592 228.039 29.46 226.863 30.076C225.701 30.692 224.35 31 222.81 31H217.287V16.258H222.81ZM222.579 27.892C223.937 27.892 224.994 27.521 225.75 26.779C226.506 26.037 226.884 24.987 226.884 23.629C226.884 22.271 226.506 21.214 225.75 20.458C224.994 19.702 223.937 19.324 222.579 19.324H220.878V27.892H222.579ZM236.136 19.135V22.117H240.945V24.889H236.136V28.123H241.575V31H232.545V16.258H241.575V19.135H236.136Z" fill="#333915"/>
<defs>
<filter id="filter0_d" x="0" y="0" width="416" height="54" filterUnits="userSpaceOnUse" color-interpolation-filters="sRGB">
<feFlood flood-opacity="0" result="BackgroundImageFix"/>
<feColorMatrix in="SourceAlpha" type="matrix" values="0 0 0 0 0 0 0 0 0 0 0 0 0 0 0 0 0 0 127 0"/>
<feOffset dy="6"/>
<feColorMatrix type="matrix" values="0 0 0 0 0.419978 0 0 0 0 0.495833 0 0 0 0 0.150816 0 0 0 1 0"/>
<feBlend mode="normal" in2="BackgroundImageFix" result="effect1_dropShadow"/>
<feBlend mode="normal" in="SourceGraphic" in2="effect1_dropShadow" result="shape"/>
</filter>
</defs>
</svg>
