<svg width="128" height="53" viewBox="0 0 128 53" fill="none" xmlns="http://www.w3.org/2000/svg">
<g filter="url(#filter0_d)">
<rect width="128" height="48" rx="5" fill="#EFF4DA"/>
</g>
<circle cx="28" cy="24" r="12" fill="#627EEA"/>
<path d="M28 18L31.4641 24H24.5359L28 18Z" fill="#FAFBFF"/>
<path d="M28 30L31.4641 24H24.5359L28 30Z" fill="#FAFBFF"/>
<path d="M50.3662 31C50.2262 31 50.1072 30.958 50.0092 30.874C49.9252 30.776 49.8832 30.657 49.8832 30.517V16.804C49.8832 16.65 49.9252 16.531 50.0092 16.447C50.1072 16.349 50.2262 16.3 50.3662 16.3H59.0392C59.1792 16.3 59.2912 16.349 59.3752 16.447C59.4732 16.531 59.5222 16.65 59.5222 16.804V17.602C59.5222 17.742 59.4802 17.861 59.3962 17.959C59.3122 18.043 59.1932 18.085 59.0392 18.085H51.8992V22.684H58.5772C58.7172 22.684 58.8292 22.733 58.9132 22.831C59.0112 22.915 59.0602 23.034 59.0602 23.188V23.965C59.0602 24.105 59.0112 24.224 58.9132 24.322C58.8292 24.406 58.7172 24.448 58.5772 24.448H51.8992V29.215H59.2072C59.3612 29.215 59.4802 29.257 59.5642 29.341C59.6482 29.425 59.6902 29.544 59.6902 29.698V30.517C59.6902 30.657 59.6412 30.776 59.5432 30.874C59.4592 30.958 59.3472 31 59.2072 31H50.3662ZM66.3145 31C66.1745 31 66.0555 30.958 65.9575 30.874C65.8735 30.776 65.8315 30.657 65.8315 30.517V18.169H61.7995C61.6595 18.169 61.5405 18.127 61.4425 18.043C61.3585 17.945 61.3165 17.826 61.3165 17.686V16.804C61.3165 16.664 61.3585 16.545 61.4425 16.447C61.5405 16.349 61.6595 16.3 61.7995 16.3H71.9215C72.0755 16.3 72.1945 16.349 72.2785 16.447C72.3765 16.531 72.4255 16.65 72.4255 16.804V17.686C72.4255 17.826 72.3765 17.945 72.2785 18.043C72.1805 18.127 72.0615 18.169 71.9215 18.169H67.9105V30.517C67.9105 30.657 67.8615 30.776 67.7635 30.874C67.6655 30.958 67.5465 31 67.4065 31H66.3145ZM75.2626 31C75.1226 31 75.0036 30.958 74.9056 30.874C74.8216 30.776 74.7796 30.657 74.7796 30.517V16.804C74.7796 16.65 74.8216 16.531 74.9056 16.447C75.0036 16.349 75.1226 16.3 75.2626 16.3H76.3336C76.4876 16.3 76.6066 16.349 76.6906 16.447C76.7886 16.531 76.8376 16.65 76.8376 16.804V22.6H84.0616V16.804C84.0616 16.65 84.1036 16.531 84.1876 16.447C84.2856 16.349 84.4046 16.3 84.5446 16.3H85.6156C85.7696 16.3 85.8886 16.349 85.9726 16.447C86.0706 16.531 86.1196 16.65 86.1196 16.804V30.517C86.1196 30.657 86.0706 30.776 85.9726 30.874C85.8746 30.958 85.7556 31 85.6156 31H84.5446C84.4046 31 84.2856 30.958 84.1876 30.874C84.1036 30.776 84.0616 30.657 84.0616 30.517V24.49H76.8376V30.517C76.8376 30.657 76.7886 30.776 76.6906 30.874C76.5926 30.958 76.4736 31 76.3336 31H75.2626Z" fill="#262919"/>
<g opacity="0.5">
<path d="M95.5151 20.465L104 28.95L112.485 20.465L111.071 19.05L104 26.122L96.9291 19.05L95.5151 20.465Z" fill="#262919"/>
</g>
<defs>
<filter id="filter0_d" x="0" y="0" width="128" height="53" filterUnits="userSpaceOnUse" color-interpolation-filters="sRGB">
<feFlood flood-opacity="0" result="BackgroundImageFix"/>
<feColorMatrix in="SourceAlpha" type="matrix" values="0 0 0 0 0 0 0 0 0 0 0 0 0 0 0 0 0 0 127 0"/>
<feOffset dy="5"/>
<feColorMatrix type="matrix" values="0 0 0 0 0.488007 0 0 0 0 0.504167 0 0 0 0 0.420139 0 0 0 1 0"/>
<feBlend mode="normal" in2="BackgroundImageFix" result="effect1_dropShadow"/>
<feBlend mode="normal" in="SourceGraphic" in2="effect1_dropShadow" result="shape"/>
</filter>
</defs>
</svg>
